<svg width="318" height="280" viewBox="0 0 318 280" fill="none" xmlns="http://www.w3.org/2000/svg">
<path d="M8 24.6102H0L4 20.6102L8 24.6102Z" fill="#7D7D7D"/>
<path d="M22.001 6.61023L6.00098 22.6102" stroke="#7D7D7D" stroke-width="5.66"/>
<path d="M24 8.61023L24 0.610229L20 4.61023L24 8.61023Z" fill="#7D7D7D"/>
<rect x="24" y="0.610229" width="30" height="3.9999" fill="#7D7D7D"/>
<path d="M24 8.61023V4.61023H28L24 8.61023Z" fill="#7D7D7D"/>
<path d="M54 8.61023V4.61023H50L54 8.61023Z" fill="#7D7D7D"/>
<rect y="54.6102" width="2" height="32" fill="#7D7D7D"/>
<path d="M2 56.6102V54.6102H4L2 56.6102Z" fill="#7D7D7D"/>
<path d="M2 86.6102V84.6102L4 86.6102H2Z" fill="#7D7D7D"/>
<rect x="54" y="0.610229" width="30" height="1.9999" fill="#7D7D7D"/>
<path d="M54 4.61023V2.61023H56L54 4.61023Z" fill="#7D7D7D"/>
<path d="M84 4.61023V2.61023H82L84 4.61023Z" fill="#7D7D7D"/>
<rect y="24.6102" width="4" height="30" fill="#7D7D7D"/>
<path d="M4 28.6102V24.6102H8L4 28.6102Z" fill="#7D7D7D"/>
<path d="M4 54.6102V50.6102L8 54.6102H4Z" fill="#7D7D7D"/>
<path d="M84 0.610229L84 4.61023L86 2.61023L84 0.610229Z" fill="#7D7D7D"/>
<path d="M85 3.61023L87 5.61023" stroke="#7D7D7D" stroke-width="2.83"/>
<path d="M87.999 4.61023L87.999 8.61023L85.999 6.61023L87.999 4.61023Z" fill="#7D7D7D"/>
<path d="M4 86.6102H0L2 88.6102L4 86.6102Z" fill="#7D7D7D"/>
<path d="M3 87.6102L13 97.6102" stroke="#7D7D7D" stroke-width="2.83"/>
<path d="M15.999 98.6102H11.999L13.999 96.6102L15.999 98.6102Z" fill="#7D7D7D"/>
<rect x="14" y="98.6102" width="2" height="27" fill="#7D7D7D"/>
<path d="M14 100.61V98.6102H12L14 100.61Z" fill="#7D7D7D"/>
<path d="M14 125.61V123.61L12 125.61H14Z" fill="#7D7D7D"/>
<path d="M15.9999 128.022V125.61H14L15.9999 128.022Z" fill="#7D7D7D"/>
<path d="M297 2.61023L297 4.61023L298 3.61023L297 2.61023Z" fill="#7D7D7D"/>
<path d="M297.501 4.11023L301.501 8.11023" stroke="#7D7D7D" stroke-width="1.41"/>
<path d="M302 7.61023L302 9.61023L301 8.61023L302 7.61023Z" fill="#7D7D7D"/>
<path d="M302 7.61023L302 13.6102L305 10.6102L302 7.61023Z" fill="#7D7D7D"/>
<path d="M303.501 12.1102L312.501 21.1102" stroke="#7D7D7D" stroke-width="4.24"/>
<path d="M314 19.6102L314 25.6102L311 22.6102L314 19.6102Z" fill="#7D7D7D"/>
<rect x="92" y="2.61023" width="205" height="0.9999" fill="#7D7D7D"/>
<path d="M92 4.61023V3.61023H93L92 4.61023Z" fill="#7D7D7D"/>
<path d="M297 4.61023V3.61023H296L297 4.61023Z" fill="#7D7D7D"/>
<path d="M92 3.61023V2.61023H91L92 3.61023Z" fill="#7D7D7D"/>
<rect x="88" y="6.61023" width="207" height="1.9999" fill="#7D7D7D"/>
<path d="M88 6.61011V4.61011L90 6.61011H88Z" fill="#7D7D7D"/>
<path d="M295 6.61011V4.61011L293 6.61011H295Z" fill="#7D7D7D"/>
<path d="M295 8.61023V6.61023L297 8.61023H295Z" fill="#7D7D7D"/>
<g opacity="0.4">
<path d="M8 104.61V100.61L4 104.61H8Z" fill="#7D7D7D"/>
<rect x="4" y="104.61" width="4" height="13" fill="#7D7D7D"/>
<path d="M4 121.61V117.61H8L4 121.61Z" fill="#7D7D7D"/>
</g>
<path d="M8 255.61H0L4 259.61L8 255.61Z" fill="#7D7D7D"/>
<path d="M22.001 273.61L6.00098 257.61" stroke="#7D7D7D" stroke-width="5.66"/>
<path d="M24 271.61L24 279.61L20 275.61L24 271.61Z" fill="#7D7D7D"/>
<rect width="30" height="3.9999" transform="matrix(1 0 0 -1 24 279.61)" fill="#7D7D7D"/>
<path d="M24 271.61V275.61H28L24 271.61Z" fill="#7D7D7D"/>
<path d="M54 271.61V275.61H50L54 271.61Z" fill="#7D7D7D"/>
<rect width="2" height="32" transform="matrix(1 0 0 -1 0 225.61)" fill="#7D7D7D"/>
<path d="M2 223.61V225.61H4L2 223.61Z" fill="#7D7D7D"/>
<path d="M2 193.61V195.61L4 193.61H2Z" fill="#7D7D7D"/>
<rect width="30" height="1.9999" transform="matrix(1 0 0 -1 54 279.61)" fill="#7D7D7D"/>
<path d="M54 275.61V277.61H56L54 275.61Z" fill="#7D7D7D"/>
<path d="M84 275.61V277.61H82L84 275.61Z" fill="#7D7D7D"/>
<rect width="4" height="30" transform="matrix(1 0 0 -1 0 255.61)" fill="#7D7D7D"/>
<path d="M4 251.61V255.61H8L4 251.61Z" fill="#7D7D7D"/>
<path d="M4 225.61V229.61L8 225.61H4Z" fill="#7D7D7D"/>
<path d="M84 279.61L84 275.61L86 277.61L84 279.61Z" fill="#7D7D7D"/>
<path d="M85 276.61L87 274.61" stroke="#7D7D7D" stroke-width="2.83"/>
<path d="M87.999 275.61L87.999 271.61L85.999 273.61L87.999 275.61Z" fill="#7D7D7D"/>
<path d="M4 193.61H0L2 191.61L4 193.61Z" fill="#7D7D7D"/>
<path d="M3 192.61L13 182.61" stroke="#7D7D7D" stroke-width="2.83"/>
<path d="M15.999 181.61H11.999L13.999 183.61L15.999 181.61Z" fill="#7D7D7D"/>
<rect width="2" height="27" transform="matrix(1 0 0 -1 14 181.61)" fill="#7D7D7D"/>
<path d="M14 179.61V181.61H12L14 179.61Z" fill="#7D7D7D"/>
<path d="M14 154.61V156.61L12 154.61H14Z" fill="#7D7D7D"/>
<path d="M15.9999 152.198V154.61H14L15.9999 152.198Z" fill="#7D7D7D"/>
<path d="M297 277.61L297 275.61L298 276.61L297 277.61Z" fill="#7D7D7D"/>
<path d="M297.501 276.11L301.501 272.11" stroke="#7D7D7D" stroke-width="1.41"/>
<path d="M302 272.61L302 270.61L301 271.61L302 272.61Z" fill="#7D7D7D"/>
<path d="M302 272.61L302 266.61L305 269.61L302 272.61Z" fill="#7D7D7D"/>
<path d="M303.501 268.11L312.501 259.11" stroke="#7D7D7D" stroke-width="4.24"/>
<path d="M314 260.61L314 254.61L311 257.61L314 260.61Z" fill="#7D7D7D"/>
<rect width="205" height="0.9999" transform="matrix(1 0 0 -1 92 277.61)" fill="#7D7D7D"/>
<path d="M92 275.61V276.61H93L92 275.61Z" fill="#7D7D7D"/>
<path d="M297 275.61V276.61H296L297 275.61Z" fill="#7D7D7D"/>
<path d="M92 276.61V277.61H91L92 276.61Z" fill="#7D7D7D"/>
<rect width="207" height="1.9999" transform="matrix(1 0 0 -1 88 273.61)" fill="#7D7D7D"/>
<path d="M88 273.61V275.61L90 273.61H88Z" fill="#7D7D7D"/>
<path d="M295 273.61V275.61L293 273.61H295Z" fill="#7D7D7D"/>
<path d="M295 271.61V273.61L297 271.61H295Z" fill="#7D7D7D"/>
<g opacity="0.4">
<path d="M8 175.61V179.61L4 175.61H8Z" fill="#7D7D7D"/>
<rect width="4" height="13" transform="matrix(1 0 0 -1 4 175.61)" fill="#7D7D7D"/>
<path d="M4 158.61V162.61H8L4 158.61Z" fill="#7D7D7D"/>
</g>
</svg>
