<svg width="82" height="59" viewBox="0 0 82 59" fill="none" xmlns="http://www.w3.org/2000/svg">
<g clip-path="url(#clip0_428_937)">
<path d="M39.074 18.9986C40.0615 17.7312 41.2174 16.5951 42.4998 15.6321C43.7803 14.6644 45.2036 13.8956 46.6934 13.3151C47.0625 13.159 47.4469 13.0477 47.8255 12.9211C48.0138 12.8546 48.2098 12.8079 48.403 12.7566L48.9833 12.6034C49.376 12.5253 49.7651 12.4349 50.1591 12.3721L50.7527 12.2893L51.0486 12.2474L51.3464 12.2227C51.7443 12.1913 52.1418 12.1514 52.5402 12.1533L53.1378 12.1418L53.7354 12.1618L54.0352 12.1713L54.3325 12.1942L54.9282 12.2436L55.5199 12.3236L55.8157 12.3635L56.1101 12.4187C59.2496 12.9678 62.211 14.4217 64.5788 16.5275C66.9516 18.6285 68.741 21.3756 69.6655 24.3967C69.8903 25.1532 70.0861 25.9183 70.2039 26.6985C70.2794 27.0858 70.309 27.4788 70.3593 27.8699L70.4012 28.4589L70.4209 28.7529L70.4278 29.0469L70.4372 29.6378L70.4194 30.2268C70.4165 30.6198 70.3642 31.0118 70.3366 31.4029L70.2582 31.9872L70.2182 32.2803L70.165 32.5695L70.0555 33.1481L69.918 33.7199C69.1576 36.7668 67.5433 39.5862 65.315 41.7786C63.0897 43.9738 60.2643 45.5409 57.2363 46.2527C54.2102 46.973 50.9973 46.8398 48.0519 45.8835C51.0116 46.7846 54.2127 46.8569 57.1964 46.09C60.1815 45.3316 62.9369 43.7349 65.0783 41.5426C67.2257 39.354 68.7469 36.5727 69.4318 33.602L69.5546 33.0434L69.6497 32.4791L69.6961 32.1984L69.7296 31.9139L69.7942 31.3468C69.8139 30.9662 69.8568 30.5884 69.8539 30.2078L69.8627 29.6369L69.8425 29.066L69.8312 28.7814L69.8065 28.497L69.7572 27.9298C69.701 27.554 69.6655 27.1743 69.5876 26.8042C69.4614 26.0543 69.2587 25.3226 69.0304 24.5985C68.0891 21.7105 66.3263 19.1147 64.032 17.1555C61.7401 15.1915 58.9098 13.867 55.9395 13.4036L55.6619 13.357L55.3823 13.3237L54.8236 13.2589L54.2615 13.2228L53.981 13.2047L53.6999 13.2L53.1378 13.1914L52.5757 13.2133C52.1999 13.2181 51.8267 13.2618 51.4549 13.2999L51.1753 13.3284L50.8972 13.3731L50.344 13.4616C49.9766 13.5282 49.6122 13.6177 49.2459 13.6976L48.7074 13.8508C48.5276 13.9022 48.3468 13.9469 48.1718 14.0135C47.8188 14.1401 47.4621 14.2476 47.1205 14.4008C45.7401 14.9679 44.4263 15.7063 43.2542 16.6284C42.0784 17.5447 41.0271 18.618 40.1347 19.8056L39.074 18.9986Z" fill="url(#paint0_linear_428_937)"/>
<path d="M36.9915 17.5001L37.4766 16.9025L37.7192 16.6047L37.979 16.3202L38.4974 15.753L39.0464 15.2154L39.3204 14.9481L39.6096 14.6949L40.188 14.1906L40.7931 13.7187C40.8949 13.6406 40.9948 13.5607 41.0975 13.4846L41.4133 13.2667L42.045 12.8309L42.6986 12.4303C42.808 12.3637 42.9165 12.2952 43.0259 12.2324L43.3636 12.0506L44.0401 11.69L44.7355 11.3674L45.0827 11.2075L45.4385 11.0658L46.1502 10.7851L46.877 10.5453C50.768 9.30163 55.0204 9.28639 58.9019 10.4853C59.8698 10.7917 60.819 11.1552 61.7303 11.6015C62.64 12.0506 63.5162 12.5616 64.3535 13.1335C66.0127 14.2925 67.5082 15.6883 68.7449 17.2851C68.8963 17.4868 69.0585 17.6809 69.2005 17.8893L69.6344 18.5097C69.9036 18.935 70.1812 19.3575 70.4209 19.8019C70.913 20.682 71.3489 21.5946 71.695 22.5413C72.4046 24.4273 72.8138 26.4217 72.9223 28.4276C73.0268 30.4335 72.8335 32.4526 72.338 34.3957C72.084 35.3653 71.7729 36.3197 71.3779 37.2398C70.9805 38.158 70.52 39.0478 69.9978 39.9013C67.8894 43.3011 64.7346 46.0225 61.0823 47.5973C59.2599 48.3909 57.3142 48.8914 55.3423 49.096C53.37 49.2939 51.3691 49.2045 49.4322 48.8096C47.4935 48.4204 45.6193 47.7248 43.8945 46.7723C43.0345 46.288 42.2049 45.7542 41.4267 45.1509C40.6504 44.5438 39.9187 43.8854 39.2329 43.1765C39.9293 43.8721 40.6732 44.5172 41.4561 45.1091C42.243 45.698 43.0792 46.2147 43.942 46.681C45.6745 47.5992 47.5458 48.2549 49.4692 48.605C51.3932 48.9628 53.369 49.0161 55.3059 48.7868C57.2427 48.5508 59.1425 48.0246 60.9112 47.2167C64.458 45.6115 67.4806 42.9024 69.4623 39.5759C69.9529 38.7414 70.3829 37.8726 70.7512 36.9791C71.1176 36.0847 71.4001 35.1579 71.6294 34.2215C72.0737 32.3442 72.2251 30.3992 72.09 28.478C71.9519 26.5569 71.5274 24.6604 70.8198 22.8763C70.4751 21.9799 70.0442 21.1178 69.5629 20.2919C69.3287 19.8732 69.058 19.4764 68.7942 19.0778L68.3716 18.4954C68.234 18.2994 68.0758 18.1195 67.9293 17.9302C66.7287 16.4363 65.2923 15.1441 63.7095 14.0784C62.9112 13.5541 62.0779 13.0868 61.215 12.6796C60.3501 12.2771 59.4537 11.9507 58.5405 11.6795C54.8853 10.6185 50.91 10.7099 47.327 11.9269L46.6572 12.1601L46.0017 12.4332L45.6745 12.5692L45.3548 12.7243L44.7165 13.0336L44.0981 13.378L43.7889 13.5512C43.6871 13.6111 43.5891 13.6778 43.4892 13.7405L42.8918 14.1202L42.3162 14.5322L42.0289 14.7387C41.9357 14.8101 41.8443 14.8871 41.753 14.9595L41.2021 15.4038L40.677 15.8777L40.4144 16.1156L40.1652 16.3668L39.6695 16.8711L39.2024 17.4021L38.9693 17.6666L38.7515 17.9444L38.3157 18.5002L36.9915 17.5001Z" fill="url(#paint1_linear_428_937)"/>
<path d="M33.9366 18.6342C35.1478 16.5864 36.6737 14.7319 38.4451 13.1523C40.2346 11.5918 42.2648 10.3148 44.4415 9.38042C46.6268 8.46219 48.9585 7.90553 51.3133 7.71712C51.6072 7.68097 51.9021 7.67904 52.1979 7.67046L53.0845 7.64575C53.6752 7.65907 54.2649 7.66573 54.8542 7.72565C56.0302 7.82178 57.2022 8.00354 58.3447 8.29661C62.9398 9.41278 67.0979 12.1056 70.0698 15.7462C70.8104 16.6607 71.4751 17.6322 72.0623 18.6503C72.2038 18.9082 72.3596 19.1556 72.4874 19.422L72.8833 20.209L73.2408 21.014C73.3606 21.2813 73.4568 21.5592 73.5652 21.8323C73.9765 22.9313 74.3073 24.0608 74.5396 25.2103C74.7659 26.3616 74.9 27.5273 74.9503 28.6986C75.0302 31.0375 74.762 33.3926 74.0988 35.6363C73.4568 37.8848 72.4228 40.0144 71.1003 41.9356C70.4401 42.8985 69.6886 43.7949 68.8834 44.6369C68.0743 45.4734 67.2074 46.2603 66.271 46.9521C64.4057 48.3442 62.3249 49.4537 60.1169 50.1768C57.9138 50.9221 55.5884 51.2748 53.2709 51.2827C52.9819 51.2846 52.6905 51.2644 52.4016 51.258C52.1121 51.2427 51.8212 51.2462 51.5337 51.2092L50.6689 51.1228L50.4529 51.1007L50.2389 51.0656L49.8099 50.9961C48.6627 50.8269 47.5401 50.5241 46.4393 50.1709C42.0394 48.7095 38.175 45.7722 35.5435 41.9812C38.2197 45.7398 42.1069 48.6163 46.4907 50.0131C47.5886 50.349 48.7045 50.6365 49.8415 50.7894L50.2665 50.8526L50.4795 50.8836L50.694 50.9019L51.552 50.9769C51.8365 51.0104 52.1235 51.004 52.4119 51.0153C52.6984 51.0198 52.9854 51.035 53.2719 51.0306C55.5637 50.9951 57.8536 50.6193 60.0133 49.8592C62.1804 49.1187 64.2104 48.0045 66.023 46.6171C66.9342 45.9273 67.7725 45.147 68.5555 44.3182C69.3336 43.4846 70.0584 42.5987 70.692 41.6501C71.9612 39.7575 72.944 37.6698 73.5426 35.4726C74.1609 33.2822 74.3941 30.9918 74.2891 28.7234C74.2275 27.5891 74.082 26.4615 73.8507 25.3501C73.6111 24.2406 73.2788 23.153 72.87 22.0968C72.7615 21.8361 72.6654 21.5678 72.5475 21.3118L72.1935 20.5401L71.8025 19.7845C71.6777 19.5305 71.5219 19.2926 71.3838 19.0462C70.8054 18.0728 70.1526 17.1431 69.4317 16.2734C66.5299 12.804 62.5103 10.2758 58.1135 9.26432C57.0193 8.99788 55.8995 8.83896 54.7777 8.76C54.2176 8.71053 53.6535 8.71146 53.0924 8.70387L52.2492 8.73716C51.9686 8.7486 51.6871 8.75334 51.4085 8.79235C49.1697 8.99882 46.9664 9.55453 44.9077 10.4471C42.8575 11.3586 40.9529 12.589 39.2823 14.081C37.6298 15.593 36.2104 17.3581 35.0964 19.2955L33.9366 18.6342Z" fill="#008ABF"/>
<path d="M32.4973 8.88287C34.7958 6.64768 37.4415 4.76935 40.3279 3.38391C43.2152 2.00703 46.3224 1.08023 49.4969 0.720544C52.6679 0.331364 55.8932 0.499786 59.0144 1.13827C60.5725 1.47607 62.1026 1.93471 63.5838 2.5142L64.1375 2.73686C64.322 2.81013 64.5064 2.8834 64.6863 2.96999L65.7711 3.46859L66.8288 4.01954C67.1818 4.20414 67.5186 4.41538 67.8628 4.6114C69.2262 5.42971 70.524 6.35461 71.7399 7.37755C72.9574 8.39759 74.0742 9.53279 75.1038 10.7393C76.1304 11.9488 77.0662 13.2362 77.8843 14.5931C78.6959 15.9557 79.399 17.3792 79.9833 18.8512L80.1973 19.405C80.2703 19.5896 80.3398 19.7742 80.4 19.9636L80.7727 21.0911L81.0888 22.2359C81.1445 22.4252 81.185 22.6203 81.2284 22.8134L81.358 23.392C81.685 24.9392 81.8965 26.5102 81.9734 28.0888C82.038 29.6674 81.9867 31.2489 81.8117 32.8179C81.6386 34.388 81.3112 35.9362 80.8822 37.452C80.0277 40.4893 78.6283 43.3601 76.8399 45.9445C75.9464 47.2405 74.9307 48.448 73.8346 49.5717C72.7369 50.6963 71.5511 51.7306 70.2907 52.6672C69.0235 53.595 67.6833 54.4172 66.2864 55.1289C64.89 55.8386 63.4393 56.4478 61.9418 56.9069C60.4473 57.3745 58.9153 57.7208 57.3665 57.9452C55.8167 58.1681 54.2502 58.2411 52.6906 58.2165C49.5674 58.1499 46.4565 57.5693 43.5282 56.4951C40.6 55.4238 37.8544 53.8623 35.436 51.9052C33.0167 49.9476 30.9228 47.5935 29.2646 44.9692C27.6054 42.341 26.3829 39.4435 25.6647 36.43C26.4229 39.4359 27.6815 42.3077 29.3702 44.8978C31.056 47.4888 33.168 49.7982 35.593 51.7059C38.0161 53.6157 40.7513 55.122 43.6548 56.14C46.5583 57.1615 49.6285 57.6902 52.6994 57.7148C54.2339 57.7178 55.7714 57.6266 57.2856 57.3878C58.8004 57.1471 60.2939 56.7871 61.7505 56.3116C63.2091 55.8426 64.6178 55.2265 65.9728 54.5168C67.3263 53.8031 68.6231 52.9848 69.8435 52.065C71.0595 51.1372 72.2 50.1143 73.2512 49.0075C74.3005 47.8999 75.2739 46.7152 76.1215 45.4468C77.8246 42.9167 79.1382 40.1229 79.9232 37.1808C80.3171 35.7125 80.613 34.2148 80.7594 32.7018C80.9059 31.1879 80.9355 29.6645 80.8546 28.1478C80.7614 26.631 80.5371 25.1257 80.2027 23.647L80.0716 23.0932C80.0267 22.9086 79.9868 22.724 79.9301 22.5423L79.612 21.4508L79.2412 20.3765C79.183 20.1967 79.1125 20.0207 79.0396 19.8456L78.828 19.3184C78.2496 17.9177 77.5608 16.5656 76.7674 15.2763C75.9696 13.9907 75.0599 12.7747 74.0668 11.6366C73.0708 10.5005 71.9929 9.43474 70.8208 8.47941C69.6512 7.5231 68.4082 6.661 67.1054 5.90266C66.7746 5.72091 66.4541 5.52298 66.1183 5.3536L65.1089 4.84453L64.0764 4.38588C63.9053 4.30596 63.7293 4.23935 63.5542 4.17274L63.0271 3.97006C61.6174 3.441 60.1662 3.02708 58.6919 2.72735C55.7388 2.16498 52.6935 2.04889 49.7168 2.45425C46.7372 2.83201 43.8384 3.74169 41.1527 5.06528C38.4689 6.39742 36.0221 8.18728 33.9072 10.2978L32.4973 8.88287Z" fill="url(#paint2_linear_428_937)"/>
<path d="M28.6301 21.1959C29.0468 19.9608 29.5548 18.7551 30.1522 17.5952C29.5348 18.7523 29.0049 19.9579 28.5682 21.1959H28.6301Z" fill="url(#paint3_linear_428_937)"/>
<path d="M79.6712 26.7463C79.5331 25.3095 79.2536 23.885 78.8813 22.4881C78.7018 21.7878 78.4696 21.1027 78.2363 20.4176L77.8453 19.4042C77.7141 19.0664 77.5564 18.741 77.4134 18.4079C76.8103 17.0919 76.1037 15.8235 75.3015 14.616C74.4968 13.4104 73.5855 12.2771 72.5959 11.2161C71.6029 10.1599 70.5353 9.16654 69.3795 8.28731C67.0763 6.52123 64.4931 5.10059 61.7333 4.16427L61.2175 3.98633C61.0444 3.9302 60.8684 3.88357 60.6933 3.83028L60.1692 3.67708C59.9942 3.62379 59.8201 3.57527 59.6421 3.53531L58.5795 3.28219L57.5056 3.08237C56.0692 2.84449 54.6126 2.71603 53.1541 2.69604H53.1521V4.68667C54.5041 4.68667 55.8557 4.78468 57.1944 4.98641L58.1954 5.15768L59.1865 5.37844C59.3531 5.41364 59.5159 5.45645 59.6786 5.50311L60.1672 5.63821C60.3299 5.68482 60.4946 5.72482 60.6564 5.77616L61.1386 5.93606C63.7179 6.76769 66.1459 8.05515 68.3263 9.67465C69.4205 10.4796 70.4333 11.396 71.378 12.3723C72.3193 13.3524 73.1926 14.4029 73.9657 15.5238C74.7354 16.6466 75.4193 17.8303 76.0046 19.0616C76.1427 19.3728 76.2955 19.6772 76.4252 19.9932L76.8074 20.9409C77.0352 21.5841 77.2659 22.2265 77.4439 22.8849C77.8133 24.1971 78.0978 25.5378 78.2487 26.8966C78.4 28.2554 78.4488 29.6256 78.3971 30.9949C78.2595 33.7277 77.7171 36.4501 76.7097 39.004C74.7458 44.1338 71.0205 48.5642 66.3293 51.4614C65.1533 52.182 63.9176 52.8054 62.643 53.3312L62.1622 53.5246L61.9226 53.6207L61.678 53.7056L60.6983 54.0429L59.7042 54.3344C59.3714 54.4326 59.0326 54.4992 58.6973 54.5835C57.3502 54.8864 55.9804 55.0975 54.5983 55.1823C53.2157 55.2622 51.8297 55.24 50.4495 55.1137C44.9353 54.5761 39.5935 52.1983 35.5274 48.3844C33.4753 46.5012 31.7591 44.2575 30.4119 41.8159C29.7365 40.5931 29.1828 39.3076 28.7195 37.9907C28.6653 37.8346 28.612 37.6776 28.5596 37.5206H28.241C28.2999 37.7109 28.3598 37.9012 28.4236 38.0906C28.8727 39.4294 29.4168 40.7416 30.0818 41.9928C31.4118 44.4906 33.1214 46.7981 35.1858 48.7488C39.27 52.6959 44.7032 55.2222 50.3706 55.8595C51.7887 56.0109 53.2177 56.0548 54.6427 55.9927C56.0702 55.9261 57.4883 55.7283 58.8867 55.4353C59.2343 55.3534 59.5869 55.2888 59.9315 55.1926L60.9655 54.9061L61.9847 54.5722L62.2387 54.4873L62.4877 54.3916L62.9882 54.1983C64.318 53.673 65.6109 53.0442 66.8431 52.3142C68.0704 51.5758 69.2415 50.7403 70.3386 49.8195L70.7473 49.4701C70.8834 49.3549 71.0205 49.2369 71.1477 49.1123C71.4076 48.8658 71.6724 48.6232 71.9298 48.3739L72.6788 47.6003C72.9253 47.3405 73.1546 47.0646 73.3942 46.7972C74.3281 45.7058 75.1767 44.542 75.9302 43.3174C76.6856 42.0928 77.3221 40.7977 77.8665 39.4655C78.9641 36.8012 79.578 33.9466 79.7654 31.0691C79.8413 29.6304 79.8107 28.1831 79.6712 26.7463Z" fill="url(#paint4_linear_428_937)"/>
<path d="M74.9638 18.9256C73.7833 16.4753 72.165 14.2402 70.2439 12.3095C68.3184 10.3798 66.0572 8.79165 63.6026 7.59558C61.1416 6.40992 58.476 5.64966 55.7591 5.3366C53.0397 5.04543 50.2676 5.17008 47.5934 5.78574C46.2567 6.08834 44.941 6.49559 43.6719 7.01989C42.4047 7.54704 41.1813 8.17788 40.0149 8.90583C38.8524 9.63471 37.7402 10.453 36.7156 11.3713C35.6901 12.2857 34.7387 13.2877 33.874 14.3582C32.2148 16.4021 30.9038 18.7257 29.9819 21.1959H31.6402C32.4622 19.0683 33.5952 17.0567 35.0137 15.264C35.8137 14.2459 36.6985 13.2915 37.6546 12.4151C38.6088 11.535 39.6487 10.7499 40.7389 10.0468C41.8311 9.3445 42.9803 8.73073 44.1742 8.21689C45.3701 7.70497 46.6126 7.30344 47.876 6.99892C50.4057 6.38141 53.0427 6.22915 55.6388 6.47177C56.9376 6.59833 58.223 6.84573 59.4824 7.18832C60.7392 7.5356 61.9749 7.97334 63.1573 8.53379C65.5207 9.64803 67.7124 11.1439 69.5876 12.9746C71.4579 14.8073 73.0466 16.9416 74.2172 19.2938C76.5821 23.9858 77.2891 29.5 76.1994 34.664C75.9391 35.9562 75.55 37.2237 75.0658 38.4512C74.5816 39.6787 73.9963 40.8662 73.3164 42.0004C71.9471 44.2623 70.1927 46.2919 68.1626 47.9913C66.1237 49.6841 63.7978 51.0288 61.3147 51.9679C60.0696 52.4286 58.7851 52.7842 57.4799 53.0338C56.1767 53.2848 54.8493 53.4313 53.5185 53.4515C50.8573 53.5132 48.1851 53.125 45.6498 52.3018C43.1125 51.4796 40.7142 50.2263 38.586 48.6089C40.6932 50.252 43.0793 51.5418 45.6165 52.4C48.1528 53.2582 50.8386 53.6833 53.5205 53.6567C54.8627 53.6547 56.2043 53.5235 57.5263 53.2878C58.8488 53.0535 60.1539 52.7092 61.4212 52.2599C63.9512 51.34 66.3303 50.0059 68.4269 48.311C70.5151 46.6078 72.3317 44.5639 73.7606 42.2697C74.4702 41.1202 75.0855 39.9109 75.5984 38.6605C76.1092 37.4102 76.5249 36.1161 76.8104 34.7915C77.9947 29.5105 77.3498 23.8184 74.9638 18.9256Z" fill="url(#paint5_linear_428_937)"/>
<path d="M67.8189 25.5481C67.0295 22.6145 65.3249 19.9311 63.0035 17.95C62.4211 17.458 61.8097 17.0003 61.1608 16.5959C60.5109 16.1953 59.8334 15.8376 59.1332 15.5302C58.4281 15.2305 57.7033 14.9812 56.9651 14.7804C56.223 14.5892 55.4686 14.4531 54.7068 14.3627C53.1837 14.2076 51.6349 14.2533 50.1251 14.5473C48.6151 14.8346 47.1482 15.3542 45.7877 16.0774L46.3452 17.0974C47.5924 16.4075 48.9415 15.9032 50.34 15.614C51.7365 15.318 53.1807 15.2533 54.6067 15.3732C55.3182 15.4465 56.0273 15.5616 56.7235 15.7291C57.4188 15.9051 58.1002 16.1288 58.7659 16.398C59.4281 16.6778 60.0696 17.0023 60.6869 17.3696C61.3023 17.7407 61.8856 18.1612 62.4428 18.617C64.6637 20.4497 66.3229 22.9627 67.1207 25.7441C67.9259 28.5197 67.8791 31.5504 66.9723 34.3118C66.0744 37.0779 64.316 39.5614 62.0015 41.3437C61.4211 41.7861 60.8107 42.1915 60.1741 42.5492C59.5321 42.9004 58.867 43.2077 58.184 43.4694C57.4972 43.7235 56.7921 43.9252 56.0756 44.0813C55.3572 44.2306 54.6284 44.322 53.8972 44.3724C52.4302 44.4409 50.9515 44.3229 49.5235 43.968C48.0957 43.6188 46.7181 43.0517 45.4547 42.2933C43.4845 41.1153 41.7958 39.4653 40.5553 37.5232H40.5172C41.7302 39.4977 43.4036 41.1924 45.3796 42.4179C46.6429 43.2068 48.0291 43.8034 49.4722 44.1812C50.9155 44.5656 52.4179 44.7102 53.9124 44.6655C54.659 44.6274 55.404 44.5456 56.1402 44.4057C56.8759 44.2573 57.6007 44.0632 58.3083 43.8148C59.0134 43.5588 59.7003 43.2544 60.3654 42.9032C61.0257 42.5454 61.6593 42.1382 62.2643 41.6919C64.676 39.8954 66.5413 37.3595 67.5226 34.4982C68.5117 31.6389 68.6162 28.4807 67.8189 25.5481Z" fill="url(#paint6_linear_428_937)"/>
<path d="M65.9915 27.7768C65.7844 26.3314 65.3485 24.9126 64.668 23.6157C63.993 22.3187 63.1069 21.1245 62.034 20.1206C60.9645 19.1177 59.7327 18.2775 58.3856 17.6856C57.0405 17.09 55.5933 16.7113 54.1234 16.6009C52.6555 16.4848 51.1639 16.6095 49.733 16.9872C48.304 17.3612 46.9378 17.9835 45.7115 18.8151C44.724 19.4812 43.8307 20.2872 43.0573 21.1959H44.2864C44.8667 20.5793 45.5089 20.0217 46.2053 19.5374C47.3393 18.7457 48.6084 18.1434 49.943 17.7723C51.2788 17.3992 52.6801 17.2603 54.0672 17.3498C56.8442 17.5182 59.5498 18.6819 61.6069 20.5784C62.6429 21.5184 63.5038 22.646 64.1695 23.8783C64.8396 25.1096 65.277 26.4646 65.4969 27.85C65.6083 28.5437 65.6463 29.2469 65.6384 29.951C65.629 30.6542 65.5654 31.3584 65.4323 32.0501C65.1724 33.4327 64.6892 34.7782 63.9777 35.9991C62.5744 38.4492 60.3121 40.4065 57.6662 41.4362C55.0272 42.4819 52.0219 42.5808 49.3 41.7359C46.896 40.9889 44.7288 39.4969 43.1486 37.5234H43.1305C44.6841 39.5264 46.8408 41.0631 49.262 41.8539C51.9992 42.7483 55.047 42.6969 57.7545 41.6693C60.4669 40.6578 62.817 38.69 64.2982 36.1874C65.0477 34.9419 65.5699 33.5593 65.8593 32.132C66.0077 31.4183 66.0837 30.6894 66.1059 29.9615C66.1266 29.2326 66.097 28.5009 65.9915 27.7768Z" fill="url(#paint7_linear_428_937)"/>
<path d="M63.3412 26.5644C62.6696 24.2921 61.2091 22.2615 59.2634 20.8941C57.3275 19.5134 54.9104 18.8197 52.5288 18.951C50.3572 19.0538 48.226 19.8569 46.5031 21.1948H47.6219C49.085 20.2271 50.8015 19.6381 52.5603 19.5325C54.8142 19.3811 57.1135 20.0082 58.9764 21.3023C60.8466 22.5831 62.2707 24.5109 62.9423 26.6842C63.6124 28.8566 63.5522 31.263 62.7248 33.3935C61.9152 35.5307 60.3585 37.3786 58.3876 38.5528C57.4064 39.1485 56.3182 39.5605 55.1964 39.8003C54.6343 39.9164 54.0608 39.982 53.4869 40.0049C53.3444 40.0068 53.1999 40.021 53.0559 40.0115L52.6249 39.9935L52.194 39.9754C52.0515 39.962 51.9095 39.9392 51.767 39.9202C50.6265 39.7774 49.5067 39.4425 48.4724 38.9306C47.7142 38.5499 47.0035 38.0742 46.3594 37.5204H46.2186C46.8827 38.1161 47.6209 38.6299 48.4153 39.04C49.4559 39.569 50.587 39.923 51.7443 40.0829C51.8888 40.1029 52.0332 40.1295 52.1777 40.1447L52.6156 40.1676L53.0539 40.1904C53.2004 40.2018 53.3473 40.1885 53.4928 40.1885C54.0766 40.1723 54.6619 40.1133 55.2373 40.0001C56.3847 39.7689 57.5025 39.3616 58.5148 38.764C60.5469 37.5851 62.1721 35.7086 63.035 33.5116C63.9166 31.3249 64.0127 28.8347 63.3412 26.5644Z" fill="url(#paint8_linear_428_937)"/>
<path d="M61.3195 27.1619C61.0552 26.315 60.6677 25.509 60.1682 24.7735L59.7727 24.2378C59.6278 24.0694 59.4769 23.9067 59.3285 23.7401L59.217 23.6174C59.1791 23.5793 59.1352 23.5422 59.0952 23.5041L58.8487 23.2777L58.6027 23.0512L58.3359 22.8505L58.0696 22.6487L57.9365 22.5488L57.7945 22.4603L57.226 22.1111L56.6254 21.818C56.5741 21.7952 56.5258 21.7685 56.474 21.7466L56.3182 21.6886L56.0051 21.5725L55.6915 21.4574L55.369 21.3727L55.046 21.288L54.8843 21.2462L54.7201 21.2195L54.0599 21.1148C53.839 21.0968 53.6156 21.0882 53.3927 21.0749C52.7946 21.0482 52.1931 21.091 51.6024 21.1948H53.447V21.4888C53.6373 21.4983 53.8267 21.504 54.015 21.5173L54.6466 21.6106L54.8044 21.6334L54.9598 21.6715L55.2689 21.7495L55.5781 21.8275L55.8789 21.9341L56.1791 22.0426L56.3286 22.0959C56.3784 22.1159 56.4247 22.1406 56.4735 22.1625L57.0509 22.4365L57.5997 22.7639L57.7358 22.8457L57.864 22.9408L58.1219 23.1302L58.3798 23.3196L58.6174 23.5336L58.8556 23.7477C58.8955 23.7839 58.9355 23.8172 58.9735 23.8562L59.0819 23.9742C59.2264 24.1303 59.3728 24.2873 59.5139 24.4462L59.9 24.9572C60.3891 25.6594 60.7717 26.4321 61.036 27.2475C61.287 28.0677 61.4004 28.9241 61.4053 29.7805L61.3767 30.4238C61.3634 30.6369 61.3186 30.8481 61.2919 31.0603C61.2737 31.1669 61.2653 31.2735 61.2406 31.3782L61.1627 31.6912C61.1075 31.8977 61.0691 32.1099 60.9877 32.3097C60.7318 33.1319 60.3112 33.895 59.8087 34.5896C59.5661 34.9455 59.2663 35.2566 58.9744 35.5725L58.4986 36.0103C58.3369 36.1549 58.1584 36.2748 57.9878 36.408C57.2876 36.9085 56.5199 37.3196 55.6959 37.587C54.873 37.8477 54.013 37.9847 53.1462 38.0028C52.1817 38.0095 51.2173 37.842 50.3075 37.5194H50.0792C51.0526 37.9048 52.0979 38.1132 53.1482 38.1179C54.0264 38.1084 54.9006 37.98 55.7428 37.724C56.5825 37.4614 57.3724 37.0522 58.0923 36.5479C58.2674 36.4147 58.4523 36.2938 58.6174 36.1482L59.1086 35.7058C59.4128 35.388 59.7219 35.0701 59.9754 34.7095C60.4976 34.0025 60.9379 33.2222 61.2111 32.3811C61.2974 32.1765 61.3393 31.9586 61.3994 31.7455L61.4842 31.4248C61.5109 31.3182 61.5202 31.2069 61.54 31.0984C61.5715 30.8805 61.6183 30.6626 61.6351 30.4428L61.6716 29.7805C61.678 28.8994 61.5695 28.0135 61.3195 27.1619Z" fill="#008ABF"/>
<path d="M59.2884 28.3933C59.1533 27.7548 58.924 27.1392 58.608 26.5673C58.2968 25.9916 57.8728 25.4825 57.3989 25.0353C56.9211 24.59 56.3743 24.2122 55.7777 23.9429C55.0499 23.6032 54.2536 23.4053 53.4489 23.3596V23.7336C54.2013 23.7688 54.9493 23.9448 55.6372 24.255C56.2057 24.5024 56.7283 24.8554 57.1869 25.2732C57.6425 25.6918 58.0532 26.1714 58.356 26.7167C58.6632 27.2571 58.8915 27.8443 59.0276 28.4533C59.1503 29.0651 59.1824 29.6941 59.1291 30.3173C59.0626 30.9396 58.8984 31.5496 58.6518 32.1253C58.4112 32.7038 58.0498 33.2281 57.6386 33.7C57.4379 33.9408 57.2002 34.1473 56.965 34.3566L56.5893 34.6411C56.4626 34.7344 56.323 34.8095 56.1914 34.8942C55.6475 35.2083 55.0603 35.4547 54.4439 35.5898C54.1165 35.6583 53.7837 35.7011 53.4479 35.7202V35.8496C53.7925 35.8344 54.1357 35.7944 54.4755 35.7278C55.1091 35.5984 55.7141 35.3519 56.2762 35.036C56.4142 34.9513 56.5567 34.8762 56.6894 34.782L57.0804 34.4946C57.3245 34.2814 57.572 34.0721 57.783 33.8257C58.214 33.3432 58.5927 32.8056 58.8506 32.209C59.1134 31.6152 59.2928 30.9843 59.3693 30.3383C59.4329 29.6883 59.4082 29.0346 59.2884 28.3933Z" fill="url(#paint9_linear_428_937)"/>
<path d="M56.7008 28.1783C56.3827 27.4294 55.8398 26.7681 55.1328 26.3504C54.7817 26.141 54.403 25.9726 54.0006 25.886C53.8192 25.846 53.6343 25.8194 53.4489 25.8032V26.0211C53.62 26.0335 53.7906 26.0554 53.9587 26.0896C54.3394 26.1648 54.7038 26.3189 55.0396 26.5121C55.7181 26.8984 56.2506 27.5236 56.5667 28.2373C56.8689 28.9594 56.9468 29.7778 56.7644 30.5438C56.7378 30.6389 56.7225 30.737 56.6885 30.8283L56.5884 31.1061C56.5055 31.286 56.4256 31.4658 56.3172 31.6314C56.1101 31.9654 55.8546 32.2737 55.5524 32.5296C54.9646 33.0254 54.2215 33.3441 53.4489 33.4031V33.4421C54.2329 33.3946 54.9912 33.0834 55.5997 32.5877C55.9108 32.3317 56.1776 32.0206 56.3951 31.6808C56.5085 31.5125 56.5933 31.3298 56.6816 31.147L56.7881 30.8625C56.8245 30.7674 56.8433 30.6665 56.8709 30.5695C57.0716 29.7825 57.005 28.9347 56.7008 28.1783Z" fill="url(#paint10_linear_428_937)"/>
<path d="M54.759 29.2744C54.6895 28.9652 54.5258 28.6759 54.2945 28.4523C54.0652 28.2249 53.7664 28.0745 53.4489 28.0127V28.2239C53.7161 28.2744 53.973 28.3943 54.1747 28.5817C54.3877 28.773 54.546 29.0289 54.617 29.3106C54.6535 29.4505 54.6722 29.597 54.6658 29.7416C54.6628 29.8882 54.6342 30.0328 54.5894 30.1708C54.4286 30.677 53.977 31.0767 53.4489 31.1861V31.2489C54.0065 31.1566 54.507 30.7531 54.7008 30.2088C54.7541 30.0604 54.7906 29.9044 54.797 29.7464C54.8083 29.5884 54.793 29.4295 54.759 29.2744Z" fill="url(#paint11_linear_428_937)"/>
<path d="M22.0476 25.926H16.4965V28.3182H14.9962V25.2199C14.9962 24.749 15.0656 24.3236 15.2036 23.9439C15.3416 23.5643 15.5432 23.2407 15.8087 22.9724C16.0732 22.705 16.3966 22.4985 16.78 22.3539C17.1624 22.2093 17.5972 22.1379 18.0862 22.1379H22.5433V23.5947H18.1129C17.6543 23.5947 17.3071 23.6756 17.0711 23.8374C16.8361 23.9991 16.6706 24.2332 16.5773 24.5387H22.0495V25.926H22.0476Z" fill="#00ADEF"/>
<path d="M31.2101 28.3182H29.7003V25.926H24.6696V28.3182H23.1693V25.22C23.1693 24.7376 23.2387 24.3046 23.3767 23.9221C23.5146 23.5396 23.7154 23.2161 23.977 22.9506C24.2386 22.686 24.5611 22.4843 24.9436 22.3464C25.326 22.2084 25.7608 22.1389 26.2498 22.1389H31.2101V28.3182ZM29.7003 23.5958H26.9823C26.5295 23.5958 26.1661 23.6195 25.8921 23.6661C25.6181 23.7137 25.4031 23.7794 25.248 23.865C25.092 23.9507 24.9807 24.0534 24.9132 24.1743C24.8456 24.2951 24.7971 24.4264 24.7676 24.5673H29.7013V23.5958H29.7003Z" fill="#00ADEF"/>
<path d="M33.8662 28.3182H32.366V22.1389H33.8662V28.3182Z" fill="#00ADEF"/>
<path d="M37.2379 24.5396H40.7513C41.0576 24.5396 41.2955 24.4588 41.4657 24.297C41.636 24.1352 41.7454 23.9012 41.792 23.5958H36.5406V28.3182H35.0403V22.1389H43.2486V23.3217C43.2486 24.8812 42.4894 25.7405 40.9711 25.8994L43.319 28.3182H41.5009L39.1178 25.926H37.2379V24.5396Z" fill="#00ADEF"/>
<path d="M52.4548 22.1389V25.2467C52.4548 25.7291 52.3873 26.1601 52.2521 26.5398C52.117 26.9194 51.9183 27.2421 51.6565 27.5066C51.3947 27.7711 51.0722 27.9728 50.6901 28.1108C50.3074 28.2488 49.8691 28.3182 49.375 28.3182H44.3349V26.8529H49.339C49.7976 26.8529 50.1467 26.7748 50.3844 26.6188C50.6235 26.4627 50.7833 26.2343 50.8661 25.9346H44.334V22.1389H45.8343V24.5844H50.9534V22.1389H52.4548Z" fill="#00ADEF"/>
<path d="M0 36.1656V29.9863H8.20828V31.1691C8.20828 32.9056 7.2693 33.7734 5.39228 33.7734H2.19762V32.387H5.71096C6.01731 32.387 6.25513 32.3061 6.42544 32.1444C6.59575 31.9826 6.70512 31.7486 6.75176 31.4431H1.50028V36.1656H0Z" fill="#00ADEF"/>
<path d="M10.6447 29.9851V34.6991H13.866C14.6604 34.6991 15.1636 34.3898 15.3758 33.7723H16.9293C16.7942 34.5668 16.4651 35.1644 15.9409 35.5641C15.4176 35.9647 14.7346 36.1645 13.8936 36.1645H9.14441V29.9851H10.6447Z" fill="#00ADEF"/>
<path d="M25.658 36.1656H24.1482V33.7734H19.1174V36.1656H17.6172V33.0674C17.6172 32.585 17.6866 32.152 17.8246 31.7695C17.9625 31.387 18.1632 31.0634 18.4249 30.798C18.6865 30.5335 19.009 30.3317 19.3915 30.1937C19.7739 30.0558 20.2086 29.9863 20.6976 29.9863H25.658V36.1656ZM24.1482 31.4422H21.4302C20.9774 31.4422 20.6139 31.4659 20.34 31.5125C20.0659 31.5601 19.851 31.6258 19.6959 31.7115C19.5399 31.7971 19.4285 31.8998 19.361 32.0207C19.2935 32.1416 19.245 32.2728 19.2154 32.4137H24.1492V31.4422H24.1482Z" fill="#00ADEF"/>
<path d="M35.181 36.1654H33.5922C32.7388 34.9998 31.9045 34.0463 31.0902 33.3051C30.2749 32.5639 29.4643 32.0396 28.6585 31.7341C28.5995 31.7169 28.5358 31.6941 28.4682 31.6685C28.4007 31.6418 28.3284 31.6142 28.2523 31.5847C28.2704 31.8083 28.2789 31.953 28.2789 32.0177V36.1664H26.8138V29.9871H28.1115C28.6062 30.146 29.0895 30.3524 29.5632 30.6056C30.037 30.8587 30.4994 31.147 30.9493 31.4705C31.3993 31.794 31.8351 32.1471 32.2556 32.5296C32.6761 32.9121 33.0813 33.3127 33.4695 33.7304L33.7425 34.0216C33.7254 33.8389 33.7159 33.7038 33.7159 33.6153V29.9871H35.181V36.1654Z" fill="#00ADEF"/>
<path d="M44.1218 31.4422H37.7849V32.387H43.963V33.7734H37.8639C37.9581 34.0732 38.1226 34.3034 38.3576 34.4624C38.5926 34.6212 38.9398 34.7012 39.3993 34.7012H44.1208V36.1665H39.3727C38.8961 36.1665 38.4661 36.0942 38.0836 35.9505C37.7012 35.8059 37.3758 35.6023 37.1085 35.3368C36.8402 35.0723 36.6366 34.7497 36.4949 34.37C36.3541 33.9904 36.2827 33.565 36.2827 33.094V29.9863H44.1199V31.4422H44.1218Z" fill="#00ADEF"/>
<path d="M52.5421 31.442H49.7004V36.1645H48.2003V31.442H47.1585C46.5049 31.442 46.152 31.7569 46.0997 32.3868H44.6783C44.8077 30.7863 45.7144 29.9851 47.3973 29.9851H52.5431V31.442H52.5421Z" fill="#00ADEF"/>
</g>
<defs>
<linearGradient id="paint0_linear_428_937" x1="54.7566" y1="12.1409" x2="54.7531" y2="46.7095" gradientUnits="userSpaceOnUse">
<stop stop-color="#6415FF"/>
<stop offset="0.5031" stop-color="#9035DC"/>
<stop offset="1" stop-color="#F78297"/>
</linearGradient>
<linearGradient id="paint1_linear_428_937" x1="35.4305" y1="27.8834" x2="73.4915" y2="31.1333" gradientUnits="userSpaceOnUse">
<stop stop-color="#6415FF"/>
<stop offset="0.3036" stop-color="#9035DC"/>
<stop offset="0.6077" stop-color="#F78297"/>
<stop offset="0.7777" stop-color="#75C1FD"/>
<stop offset="1" stop-color="#14E0FF"/>
</linearGradient>
<linearGradient id="paint2_linear_428_937" x1="60.0321" y1="-22.8467" x2="50.3144" y2="65.8426" gradientUnits="userSpaceOnUse">
<stop stop-color="#6415FF"/>
<stop offset="0.3036" stop-color="#9035DC"/>
<stop offset="0.6077" stop-color="#F78297"/>
<stop offset="0.7777" stop-color="#75C1FD"/>
<stop offset="1" stop-color="#14E0FF"/>
</linearGradient>
<linearGradient id="paint3_linear_428_937" x1="28.3227" y1="19.4948" x2="30.3431" y2="19.307" gradientUnits="userSpaceOnUse">
<stop stop-color="#5DA1CE"/>
<stop offset="1" stop-color="#2D449D"/>
</linearGradient>
<linearGradient id="paint4_linear_428_937" x1="25.3405" y1="32.014" x2="80.5546" y2="26.8821" gradientUnits="userSpaceOnUse">
<stop stop-color="#5DA1CE"/>
<stop offset="1" stop-color="#2D449D"/>
</linearGradient>
<linearGradient id="paint5_linear_428_937" x1="47.6477" y1="65.6238" x2="58.5165" y2="-5.15576" gradientUnits="userSpaceOnUse">
<stop stop-color="#6415FF"/>
<stop offset="0.3036" stop-color="#9035DC"/>
<stop offset="0.6077" stop-color="#F78297"/>
<stop offset="0.7777" stop-color="#75C1FD"/>
<stop offset="1" stop-color="#14E0FF"/>
</linearGradient>
<linearGradient id="paint6_linear_428_937" x1="57.58" y1="51.511" x2="52.1467" y2="19.3688" gradientUnits="userSpaceOnUse">
<stop stop-color="#6415FF"/>
<stop offset="0.3036" stop-color="#9035DC"/>
<stop offset="0.6077" stop-color="#F78297"/>
<stop offset="0.7777" stop-color="#75C1FD"/>
<stop offset="1" stop-color="#14E0FF"/>
</linearGradient>
<linearGradient id="paint7_linear_428_937" x1="54.5864" y1="42.4848" x2="54.5844" y2="16.5595" gradientUnits="userSpaceOnUse">
<stop stop-color="#6415FF"/>
<stop offset="0.5031" stop-color="#9035DC"/>
<stop offset="1" stop-color="#F78297"/>
</linearGradient>
<linearGradient id="paint8_linear_428_937" x1="44.5941" y1="30.3613" x2="64.036" y2="28.5548" gradientUnits="userSpaceOnUse">
<stop stop-color="#6415FF"/>
<stop offset="0.3036" stop-color="#9035DC"/>
<stop offset="0.6077" stop-color="#F78297"/>
<stop offset="0.7777" stop-color="#75C1FD"/>
<stop offset="1" stop-color="#14E0FF"/>
</linearGradient>
<linearGradient id="paint9_linear_428_937" x1="56.4266" y1="35.8498" x2="56.4256" y2="23.3587" gradientUnits="userSpaceOnUse">
<stop stop-color="#6415FF"/>
<stop offset="0.5031" stop-color="#9035DC"/>
<stop offset="1" stop-color="#F78297"/>
</linearGradient>
<linearGradient id="paint10_linear_428_937" x1="52.9474" y1="29.6705" x2="57.0331" y2="29.2861" gradientUnits="userSpaceOnUse">
<stop stop-color="#5DA1CE"/>
<stop offset="1" stop-color="#2D449D"/>
</linearGradient>
<linearGradient id="paint11_linear_428_937" x1="53.2043" y1="29.652" x2="54.8206" y2="29.512" gradientUnits="userSpaceOnUse">
<stop stop-color="#6415FF"/>
<stop offset="0.3036" stop-color="#9035DC"/>
<stop offset="0.6077" stop-color="#F78297"/>
<stop offset="0.7777" stop-color="#75C1FD"/>
<stop offset="1" stop-color="#14E0FF"/>
</linearGradient>
<clipPath id="clip0_428_937">
<rect width="82" height="57.7565" fill="white" transform="translate(0 0.478271)"/>
</clipPath>
</defs>
</svg>
