<svg width="128" height="17" viewBox="0 0 128 17" fill="none" xmlns="http://www.w3.org/2000/svg">
<g opacity="0.8">
<path d="M25.0399 11.4902L19.5369 1.77712C18.3304 -0.247326 15.3884 -0.268863 14.2243 1.86326L8.44624 11.964C7.36677 13.8161 8.70017 16.1421 10.8591 16.1421H22.4365C24.6165 16.1421 26.2463 13.7515 25.0399 11.4902Z" fill="#CECECE"/>
<path d="M17.1017 12.2436L16.7631 11.6406C16.4456 11.0806 15.7471 9.87458 15.7471 9.87458L11.0908 1.6476C9.88436 -0.183015 7.02705 -0.333772 5.82063 1.97065L0.4023 11.5114C-0.719463 13.5143 0.613953 16.1202 3.04797 16.1418H14.5619H19.4722H22.3931C19.4088 16.1633 18.4564 14.5911 17.1017 12.2436Z" fill="white"/>
<path d="M17.1013 12.2437L16.7627 11.6407C16.4452 11.0807 15.7467 9.87468 15.7467 9.87468L12.7412 4.49051L8.4235 11.9853C7.34409 13.8374 8.67751 16.1634 10.8364 16.1634H14.5403H19.4507H22.3927C19.3872 16.1418 18.4559 14.5912 17.1013 12.2437Z" fill="#C4C4C4"/>
<path d="M127.09 15.3883C126.307 15.3883 125.693 15.216 125.228 14.9145C124.74 14.5915 124.487 14.1176 124.487 13.4715V4.08157H125.714C126.159 4.08157 126.54 4.4477 126.54 4.9215V13.1915C126.54 13.2132 126.54 13.6008 126.857 13.9238C127.047 14.1176 127.28 14.2253 127.598 14.2253H127.831C127.916 14.2253 128 14.3115 128 14.3976V15.4099L127.09 15.3883Z" fill="white"/>
<path d="M100.633 15.3882C99.3634 15.3882 98.3264 15.0436 97.543 14.3544C97.1414 14.0099 96.8662 13.6222 96.6968 13.1914C96.5275 12.7608 96.4424 12.1361 96.4424 11.2962C96.4424 10.4779 96.5275 9.83172 96.6968 9.40097C96.8448 8.99183 97.1199 8.62566 97.5223 8.2811C98.3049 7.59193 99.3419 7.24734 100.612 7.24734C101.882 7.24734 102.919 7.59193 103.702 8.2811C104.105 8.62566 104.38 9.01336 104.528 9.40097C104.697 9.85325 104.782 10.4779 104.782 11.2962C104.782 12.1361 104.697 12.7608 104.528 13.1914C104.358 13.6222 104.083 14.0099 103.681 14.3544C102.94 15.0436 101.903 15.3882 100.633 15.3882ZM100.633 8.43185C99.2362 8.43185 98.5379 9.40097 98.5379 11.3178C98.5379 13.2561 99.2362 14.2252 100.633 14.2252C102.03 14.2252 102.729 13.2561 102.729 11.3393C102.729 9.40097 102.009 8.43185 100.633 8.43185Z" fill="white"/>
<path d="M109.396 15.3883C108.296 15.3883 107.28 15.0868 106.412 14.5053C106.327 14.4191 106.158 14.3115 105.946 14.1823C105.904 14.1607 105.862 14.0961 105.862 14.0315V4.08157H107.111C107.555 4.08157 107.936 4.46923 107.936 4.9215V7.82895L108.317 7.61358C108.762 7.37668 109.354 7.269 110.116 7.269C111.45 7.269 112.465 7.67819 113.143 8.47502C113.735 9.18576 114.032 10.1334 114.032 11.2964C114.032 12.4594 113.693 13.407 113.015 14.0961C112.232 14.9576 111.005 15.3883 109.396 15.3883ZM109.608 8.43197C109.143 8.43197 108.613 8.60425 108.02 8.97042L107.936 9.01347V13.6869L108.02 13.7515C108.486 14.053 109.037 14.2038 109.608 14.2038C110.37 14.2038 110.963 13.8808 111.365 13.2347C111.703 12.7178 111.894 12.0501 111.894 11.2964C111.894 9.40109 111.111 8.43197 109.608 8.43197Z" fill="white"/>
<path d="M118.92 15.3667C116.591 15.3667 115.131 13.8161 115.131 11.2962C115.131 8.79802 116.57 7.24734 118.877 7.24734C119.766 7.24734 120.528 7.48425 121.142 7.93652L121.269 8.02267V7.3981H122.898C123.004 7.3981 123.068 7.48425 123.068 7.57039V15.2159H121.247V14.5267L121.12 14.6344C120.613 15.1082 119.808 15.3667 118.92 15.3667ZM119.343 8.62566C117.882 8.62566 117.014 9.76714 117.014 11.2962C117.014 12.8253 117.882 14.0099 119.343 14.0099C119.808 14.0099 120.613 13.9668 121.247 13.3207L121.269 13.2991V9.37945L121.247 9.35792C120.803 8.84108 120.147 8.62566 119.343 8.62566Z" fill="white"/>
<path d="M43.7197 15.2793V4.05869H52.8843V4.7694C52.8843 5.32934 52.4398 5.78162 51.8896 5.78162H46.0056V8.79672H51.8896V10.5197H46.0056V13.5348H51.8896C52.4398 13.5348 52.8843 13.987 52.8843 14.547V15.2578L43.7197 15.2793Z" fill="white"/>
<path d="M66.049 4.05869H63.8901C63.4879 4.05869 63.1281 4.23098 62.8741 4.55402L60.2708 7.89221L57.6675 4.57557C57.4135 4.25252 57.0537 4.08022 56.6516 4.08022H54.4927L58.8739 9.67974L54.4927 15.2793H56.6516C57.0537 15.2793 57.4135 15.107 57.6675 14.784L60.2708 11.4673L62.8953 14.8055C63.1493 15.107 63.5092 15.3008 63.9112 15.3008H66.0702L61.6889 9.70127L66.049 4.05869Z" fill="white"/>
<path d="M36.5444 14.0959L39.5499 8.75479V15.2589H41.8358V4.03827H40.4177C39.9732 4.03827 39.5499 4.27517 39.3383 4.68437L35.7402 11.3607L32.1421 4.68437C31.9304 4.27517 31.507 4.03827 31.0626 4.03827H29.6445V15.2589H31.9304V8.75479L34.9358 14.0959H36.5444Z" fill="white"/>
<path d="M72.0178 15.4095C68.8431 15.4526 66.2609 12.9112 66.2397 9.68076C66.2397 7.91476 66.7688 6.45026 67.7636 5.43804C68.7584 4.44736 70.1976 3.90894 71.9121 3.90894C73.9227 3.90894 75.5102 4.61965 76.653 5.998L75.9335 6.62256C75.489 7.01022 74.8328 7.03176 74.3461 6.66563C73.7111 6.17029 72.9068 5.93338 71.9967 5.93338C69.7532 5.93338 68.4197 7.31173 68.4197 9.63771C68.4197 11.9852 69.7955 13.4282 71.9967 13.4282C72.9279 13.4282 73.7111 13.1697 74.3461 12.6959C74.8117 12.3297 75.4678 12.3513 75.9335 12.739L76.653 13.3635C75.5102 14.7203 73.9863 15.4095 72.0178 15.4095Z" fill="white"/>
<path d="M86.0919 15.4089C82.5362 15.4089 80.335 13.2122 80.335 9.6801C80.335 6.14812 82.5362 3.95139 86.0497 3.95139C87.7429 3.95139 89.1608 4.44672 90.2615 5.45895L89.7326 6.06198C89.4996 6.32042 89.1608 6.47118 88.822 6.47118C88.632 6.47118 88.4411 6.4281 88.2717 6.34195C87.6156 5.99736 86.8538 5.82507 86.0497 5.82507C83.7634 5.82507 82.3454 7.31111 82.3454 9.7017C82.3454 12.1137 83.827 13.5998 86.1977 13.5998C87.3405 13.5998 88.2296 13.3845 88.8857 12.9107L88.9278 12.8891V10.5846H86.4092V9.83086C86.4092 9.27096 86.8538 8.81869 87.4041 8.81869H90.5152C90.6003 8.81869 90.6846 8.90479 90.6846 8.99097V13.966C89.6054 14.9136 88.0602 15.4089 86.0919 15.4089Z" fill="white"/>
<path d="M94.7707 15.3883C93.9873 15.3883 93.3734 15.216 92.9082 14.9145C92.4215 14.5915 92.167 14.1176 92.167 13.4715V4.08157H93.3949C93.8394 4.08157 94.2204 4.4477 94.2204 4.9215V13.1915C94.2204 13.2132 94.2204 13.6008 94.5377 13.9238C94.7285 14.1176 94.9608 14.2253 95.2781 14.2253H95.5111C95.5962 14.2253 95.6805 14.3115 95.6805 14.3976V15.4099L94.7707 15.3883Z" fill="white"/>
</g>
</svg>
