<svg width="137" height="26" viewBox="0 0 137 26" fill="none" xmlns="http://www.w3.org/2000/svg">
<g opacity="0.8">
<path d="M25.0248 25.1583C25.3762 24.8069 25.3762 24.2371 25.0248 23.8857C24.6733 23.5342 24.1035 23.5342 23.7521 23.8857C23.4006 24.2371 23.4006 24.8069 23.7521 25.1583C24.1035 25.5098 24.6733 25.5098 25.0248 25.1583Z" fill="white"/>
<path d="M23.1953 23.3288C23.4964 23.0277 23.4964 22.5395 23.1953 22.2383C22.8941 21.9372 22.4059 21.9372 22.1048 22.2383C21.8037 22.5395 21.8037 23.0277 22.1048 23.3288C22.4059 23.6299 22.8941 23.6299 23.1953 23.3288Z" fill="white"/>
<path d="M21.5467 21.6806C21.7975 21.4298 21.7975 21.0232 21.5467 20.7724C21.2959 20.5216 20.8892 20.5216 20.6384 20.7724C20.3876 21.0232 20.3876 21.4298 20.6384 21.6806C20.8892 21.9314 21.2959 21.9314 21.5467 21.6806Z" fill="white"/>
<path d="M20.0843 20.2144C20.2848 20.014 20.2848 19.6889 20.0843 19.4885C19.8839 19.288 19.5588 19.288 19.3584 19.4885C19.1579 19.6889 19.1579 20.014 19.3584 20.2144C19.5588 20.4149 19.8839 20.4149 20.0843 20.2144Z" fill="white"/>
<path d="M18.7995 18.9296C18.9496 18.7795 18.9496 18.536 18.7995 18.3859C18.6493 18.2357 18.4059 18.2357 18.2558 18.3859C18.1056 18.536 18.1056 18.7795 18.2558 18.9296C18.4059 19.0798 18.6493 19.0798 18.7995 18.9296Z" fill="white"/>
<path d="M17.6969 17.828C17.7975 17.7273 17.7975 17.5641 17.6969 17.4635C17.5962 17.3628 17.433 17.3628 17.3324 17.4635C17.2317 17.5641 17.2317 17.7273 17.3324 17.828C17.433 17.9286 17.5962 17.9286 17.6969 17.828Z" fill="white"/>
<path d="M16.776 16.9068C16.8264 16.8565 16.8264 16.7749 16.776 16.7246C16.7257 16.6743 16.6441 16.6743 16.5938 16.7246C16.5435 16.7749 16.5435 16.8565 16.5938 16.9068C16.6441 16.9571 16.7257 16.9571 16.776 16.9068Z" fill="white"/>
<path d="M15.8548 15.9854C16.1056 15.7346 16.1056 15.328 15.8548 15.0772C15.604 14.8264 15.1973 14.8264 14.9465 15.0772C14.6957 15.328 14.6957 15.7346 14.9465 15.9854C15.1973 16.2362 15.604 16.2362 15.8548 15.9854Z" fill="white"/>
<path d="M1.91101 2.04134C2.26245 1.6899 2.26245 1.1201 1.91101 0.768658C1.55956 0.417216 0.989752 0.417216 0.638304 0.768658C0.286857 1.1201 0.286857 1.6899 0.638304 2.04134C0.989752 2.39278 1.55956 2.39278 1.91101 2.04134Z" fill="white"/>
<path d="M3.5583 3.68865C3.85942 3.38754 3.85942 2.89933 3.5583 2.59821C3.25717 2.2971 2.76896 2.29709 2.46784 2.59821C2.16672 2.89933 2.16672 3.38754 2.46784 3.68865C2.76896 3.98977 3.25718 3.98977 3.5583 3.68865Z" fill="white"/>
<path d="M5.02175 5.1546C5.27255 4.90381 5.27255 4.49719 5.02175 4.2464C4.77095 3.99561 4.36433 3.99561 4.11353 4.2464C3.86273 4.49719 3.86274 4.90381 4.11353 5.1546C4.36433 5.4054 4.77095 5.4054 5.02175 5.1546Z" fill="white"/>
<path d="M6.30527 6.43888C6.50575 6.23841 6.50575 5.91338 6.30527 5.71291C6.1048 5.51244 5.77977 5.51244 5.5793 5.71291C5.37882 5.91338 5.37882 6.23841 5.5793 6.43888C5.77977 6.63935 6.1048 6.63935 6.30527 6.43888Z" fill="white"/>
<path d="M7.40789 7.54115C7.55804 7.391 7.55804 7.14757 7.40789 6.99742C7.25774 6.84728 7.0143 6.84728 6.86415 6.99742C6.714 7.14757 6.714 7.391 6.86415 7.54115C7.0143 7.6913 7.25774 7.6913 7.40789 7.54115Z" fill="white"/>
<path d="M8.33115 8.46352C8.4318 8.36287 8.4318 8.19969 8.33115 8.09904C8.2305 7.99839 8.06731 7.99839 7.96667 8.09904C7.86602 8.19969 7.86602 8.36287 7.96667 8.46352C8.06731 8.56417 8.2305 8.56417 8.33115 8.46352Z" fill="white"/>
<path d="M9.06975 9.20242C9.12007 9.15209 9.12007 9.0705 9.06975 9.02018C9.01942 8.96985 8.93783 8.96985 8.88751 9.02018C8.83718 9.0705 8.83718 9.15209 8.88751 9.20242C8.93783 9.25274 9.01942 9.25274 9.06975 9.20242Z" fill="white"/>
<path d="M10.7166 10.8498C10.9674 10.599 10.9674 10.1924 10.7166 9.94159C10.4658 9.69079 10.0592 9.69079 9.80836 9.94159C9.55756 10.1924 9.55756 10.599 9.80836 10.8498C10.0592 11.1006 10.4658 11.1006 10.7166 10.8498Z" fill="white"/>
<path d="M1.90906 25.1568C2.2605 24.8053 2.2605 24.2355 1.90905 23.8841C1.55761 23.5327 0.987799 23.5327 0.636352 23.8841C0.284904 24.2355 0.284904 24.8053 0.636351 25.1568C0.987798 25.5082 1.55761 25.5082 1.90906 25.1568Z" fill="white"/>
<path d="M3.55708 23.3272C3.8582 23.0261 3.8582 22.5379 3.55708 22.2368C3.25596 21.9357 2.76774 21.9357 2.46662 22.2368C2.1655 22.5379 2.16549 23.0261 2.46662 23.3272C2.76774 23.6283 3.25596 23.6283 3.55708 23.3272Z" fill="white"/>
<path d="M5.02126 21.68C5.27206 21.4292 5.27206 21.0226 5.02126 20.7718C4.77047 20.521 4.36384 20.521 4.11304 20.7718C3.86225 21.0226 3.86225 21.4292 4.11305 21.68C4.36384 21.9308 4.77047 21.9308 5.02126 21.68Z" fill="white"/>
<path d="M6.3065 20.216C6.50697 20.0155 6.50697 19.6905 6.3065 19.49C6.10603 19.2896 5.78099 19.2896 5.58052 19.49C5.38005 19.6905 5.38005 20.0155 5.58052 20.216C5.78099 20.4165 6.10602 20.4165 6.3065 20.216Z" fill="white"/>
<path d="M7.40911 18.9312C7.55926 18.781 7.55926 18.5376 7.40911 18.3874C7.25896 18.2373 7.01552 18.2373 6.86537 18.3874C6.71523 18.5376 6.71522 18.781 6.86537 18.9312C7.01552 19.0813 7.25896 19.0813 7.40911 18.9312Z" fill="white"/>
<path d="M8.33164 17.8289C8.43229 17.7283 8.43229 17.5651 8.33164 17.4644C8.23099 17.3638 8.0678 17.3638 7.96715 17.4644C7.8665 17.5651 7.8665 17.7283 7.96715 17.8289C8.0678 17.9296 8.23099 17.9296 8.33164 17.8289Z" fill="white"/>
<path d="M9.07048 16.9078C9.12081 16.8574 9.12081 16.7759 9.07048 16.7255C9.02016 16.6752 8.93857 16.6752 8.88824 16.7255C8.83792 16.7759 8.83792 16.8574 8.88824 16.9078C8.93857 16.9581 9.02016 16.9581 9.07048 16.9078Z" fill="white"/>
<path d="M10.718 15.987C10.9688 15.7362 10.9688 15.3296 10.718 15.0788C10.4672 14.828 10.0606 14.828 9.80982 15.0788C9.55902 15.3296 9.55902 15.7362 9.80982 15.987C10.0606 16.2378 10.4672 16.2378 10.718 15.987Z" fill="white"/>
<path d="M25.0267 2.04323C25.3782 1.69179 25.3782 1.12199 25.0267 0.770551C24.6753 0.41911 24.1055 0.419109 23.754 0.770551C23.4026 1.12199 23.4026 1.69179 23.754 2.04323C24.1055 2.39467 24.6753 2.39467 25.0267 2.04323Z" fill="white"/>
<path d="M23.1965 3.69024C23.4976 3.38912 23.4976 2.90092 23.1965 2.5998C22.8954 2.29868 22.4071 2.29868 22.106 2.5998C21.8049 2.90091 21.8049 3.38912 22.106 3.69024C22.4071 3.99136 22.8954 3.99136 23.1965 3.69024Z" fill="white"/>
<path d="M21.5471 5.15524C21.7979 4.90445 21.7979 4.49783 21.5471 4.24704C21.2963 3.99624 20.8897 3.99624 20.6389 4.24704C20.3881 4.49783 20.3881 4.90445 20.6389 5.15524C20.8897 5.40604 21.2963 5.40604 21.5471 5.15524Z" fill="white"/>
<path d="M20.0824 6.43699C20.2829 6.23652 20.2828 5.91149 20.0824 5.71102C19.8819 5.51055 19.5569 5.51055 19.3564 5.71102C19.1559 5.91149 19.1559 6.23652 19.3564 6.43699C19.5569 6.63746 19.8819 6.63746 20.0824 6.43699Z" fill="white"/>
<path d="M18.7983 7.53987C18.9484 7.38972 18.9484 7.14629 18.7983 6.99614C18.6481 6.84599 18.4047 6.846 18.2545 6.99614C18.1044 7.14629 18.1044 7.38972 18.2545 7.53987C18.4047 7.69002 18.6481 7.69002 18.7983 7.53987Z" fill="white"/>
<path d="M17.6961 8.46257C17.7968 8.36193 17.7968 8.19874 17.6961 8.0981C17.5955 7.99745 17.4323 7.99745 17.3317 8.0981C17.231 8.19874 17.231 8.36193 17.3317 8.46257C17.4323 8.56322 17.5955 8.56322 17.6961 8.46257Z" fill="white"/>
<path d="M16.7748 9.20147C16.8252 9.15115 16.8252 9.06956 16.7748 9.01923C16.7245 8.96891 16.6429 8.96891 16.5926 9.01923C16.5423 9.06956 16.5423 9.15115 16.5926 9.20147C16.6429 9.25179 16.7245 9.25179 16.7748 9.20147Z" fill="white"/>
<path d="M15.8535 10.8482C16.1043 10.5974 16.1043 10.1908 15.8535 9.94C15.6027 9.68921 15.1961 9.68921 14.9453 9.94C14.6945 10.1908 14.6945 10.5974 14.9453 10.8482C15.1961 11.099 15.6027 11.099 15.8535 10.8482Z" fill="white"/>
<path d="M10.2631 13.6056C10.6177 13.6056 10.9053 13.318 10.9053 12.9634C10.9053 12.6087 10.6177 12.3212 10.2631 12.3212C9.90838 12.3212 9.62085 12.6087 9.62085 12.9634C9.62085 13.318 9.90838 13.6056 10.2631 13.6056Z" fill="white"/>
<path d="M15.4005 13.6056C15.7552 13.6056 16.0427 13.318 16.0427 12.9634C16.0427 12.6087 15.7552 12.3212 15.4005 12.3212C15.0458 12.3212 14.7583 12.6087 14.7583 12.9634C14.7583 13.318 15.0458 13.6056 15.4005 13.6056Z" fill="white"/>
<path d="M1.27396 13.8631C1.77098 13.8631 2.1739 13.4602 2.1739 12.9632C2.1739 12.4662 1.77098 12.0633 1.27396 12.0633C0.776939 12.0633 0.374023 12.4662 0.374023 12.9632C0.374023 13.4602 0.776939 13.8631 1.27396 13.8631Z" fill="white"/>
<path d="M4.32221 13.5091C4.62334 13.2079 4.62334 12.7197 4.32221 12.4186C4.02109 12.1175 3.53288 12.1175 3.23175 12.4186C2.93063 12.7197 2.93063 13.2079 3.23175 13.5091C3.53288 13.8102 4.02109 13.8102 4.32221 13.5091Z" fill="white"/>
<path d="M6.47976 13.4173C6.73056 13.1665 6.73056 12.7599 6.47976 12.5091C6.22897 12.2583 5.82234 12.2583 5.57154 12.5091C5.32074 12.7599 5.32074 13.1665 5.57154 13.4173C5.82234 13.6681 6.22897 13.6681 6.47976 13.4173Z" fill="white"/>
<path d="M8.37901 13.3259C8.57948 13.1254 8.57948 12.8004 8.37901 12.5999C8.17853 12.3994 7.8535 12.3994 7.65303 12.5999C7.45256 12.8004 7.45256 13.1254 7.65303 13.3259C7.8535 13.5263 8.17854 13.5263 8.37901 13.3259Z" fill="white"/>
<path d="M24.3897 13.8631C24.8867 13.8631 25.2896 13.4602 25.2896 12.9632C25.2896 12.4662 24.8867 12.0633 24.3897 12.0633C23.8927 12.0633 23.4897 12.4662 23.4897 12.9632C23.4897 13.4602 23.8927 13.8631 24.3897 13.8631Z" fill="white"/>
<path d="M22.4313 13.5084C22.7325 13.2073 22.7325 12.7191 22.4313 12.418C22.1302 12.1169 21.642 12.1169 21.3409 12.418C21.0398 12.7191 21.0398 13.2073 21.3409 13.5084C21.642 13.8095 22.1302 13.8095 22.4313 13.5084Z" fill="white"/>
<path d="M20.0918 13.4179C20.3426 13.1671 20.3426 12.7605 20.0918 12.5097C19.841 12.2589 19.4344 12.2589 19.1836 12.5097C18.9328 12.7605 18.9328 13.1671 19.1836 13.4179C19.4344 13.6687 19.841 13.6687 20.0918 13.4179Z" fill="white"/>
<path d="M18.0104 13.3249C18.2108 13.1245 18.2108 12.7994 18.0104 12.599C17.8099 12.3985 17.4848 12.3985 17.2844 12.599C17.0839 12.7994 17.0839 13.1245 17.2844 13.3249C17.4848 13.5254 17.8099 13.5254 18.0104 13.3249Z" fill="white"/>
<path d="M12.8317 16.1743C13.1863 16.1743 13.4739 15.8868 13.4739 15.5321C13.4739 15.1774 13.1863 14.8899 12.8317 14.8899C12.477 14.8899 12.1895 15.1774 12.1895 15.5321C12.1895 15.8868 12.477 16.1743 12.8317 16.1743Z" fill="white"/>
<path d="M12.8317 11.0365C13.1863 11.0365 13.4739 10.7489 13.4739 10.3943C13.4739 10.0396 13.1863 9.75208 12.8317 9.75208C12.477 9.75208 12.1895 10.0396 12.1895 10.3943C12.1895 10.7489 12.477 11.0365 12.8317 11.0365Z" fill="white"/>
<path d="M12.8318 25.4207C13.3288 25.4207 13.7318 25.0178 13.7318 24.5207C13.7318 24.0237 13.3288 23.6208 12.8318 23.6208C12.3348 23.6208 11.9319 24.0237 11.9319 24.5207C11.9319 25.0178 12.3348 25.4207 12.8318 25.4207Z" fill="white"/>
<path d="M13.3769 22.563C13.678 22.2619 13.678 21.7737 13.3769 21.4726C13.0758 21.1715 12.5876 21.1715 12.2864 21.4726C11.9853 21.7737 11.9853 22.2619 12.2864 22.563C12.5876 22.8641 13.0758 22.8641 13.3769 22.563Z" fill="white"/>
<path d="M13.2854 20.2237C13.5362 19.9729 13.5362 19.5663 13.2854 19.3155C13.0346 19.0647 12.628 19.0647 12.3772 19.3155C12.1264 19.5663 12.1264 19.9729 12.3772 20.2237C12.628 20.4745 13.0346 20.4745 13.2854 20.2237Z" fill="white"/>
<path d="M13.1959 18.1425C13.3964 17.9421 13.3964 17.617 13.1959 17.4166C12.9954 17.2161 12.6704 17.2161 12.4699 17.4166C12.2694 17.617 12.2694 17.9421 12.4699 18.1425C12.6704 18.343 12.9954 18.343 13.1959 18.1425Z" fill="white"/>
<path d="M12.8318 2.30555C13.3288 2.30555 13.7318 1.90264 13.7318 1.40563C13.7318 0.908615 13.3288 0.505707 12.8318 0.505707C12.3348 0.505707 11.9319 0.908615 11.9319 1.40563C11.9319 1.90264 12.3348 2.30555 12.8318 2.30555Z" fill="white"/>
<path d="M13.3769 4.45443C13.678 4.15331 13.678 3.66511 13.3769 3.36399C13.0758 3.06287 12.5876 3.06287 12.2864 3.36399C11.9853 3.66511 11.9853 4.15331 12.2864 4.45443C12.5876 4.75555 13.0758 4.75555 13.3769 4.45443Z" fill="white"/>
<path d="M13.2862 6.61154C13.537 6.36075 13.537 5.95413 13.2862 5.70334C13.0354 5.45254 12.6287 5.45254 12.3779 5.70334C12.1271 5.95413 12.1271 6.36075 12.3779 6.61154C12.6287 6.86234 13.0354 6.86234 13.2862 6.61154Z" fill="white"/>
<path d="M13.1954 8.51044C13.3959 8.30997 13.3959 7.98495 13.1954 7.78448C12.9949 7.58401 12.6699 7.58401 12.4694 7.78448C12.269 7.98495 12.269 8.30997 12.4694 8.51044C12.6699 8.71091 12.9949 8.71091 13.1954 8.51044Z" fill="white"/>
<path d="M7.45459 2.21182C7.899 1.98928 8.07886 1.44861 7.85631 1.0042C7.63377 0.559797 7.09309 0.379941 6.64868 0.602484C6.20426 0.825026 6.0244 1.36569 6.24695 1.8101C6.46949 2.25451 7.01017 2.43436 7.45459 2.21182Z" fill="white"/>
<path d="M8.85806 3.79062C8.99248 3.38655 8.77388 2.95001 8.3698 2.8156C7.96572 2.68118 7.52918 2.89978 7.39476 3.30385C7.26034 3.70793 7.47894 4.14446 7.88302 4.27888C8.2871 4.41329 8.72364 4.19469 8.85806 3.79062Z" fill="white"/>
<path d="M9.6927 5.66348C9.80466 5.32694 9.62259 4.96336 9.28604 4.85141C8.94949 4.73946 8.58591 4.92152 8.47395 5.25807C8.362 5.59461 8.54407 5.95819 8.88062 6.07014C9.21717 6.18209 9.58075 6.00003 9.6927 5.66348Z" fill="white"/>
<path d="M10.4111 7.30368C10.5006 7.03467 10.3551 6.74404 10.0861 6.65456C9.81706 6.56507 9.52643 6.7106 9.43694 6.97961C9.34745 7.24863 9.49298 7.53925 9.762 7.62874C10.031 7.71823 10.3216 7.57269 10.4111 7.30368Z" fill="white"/>
<path d="M11.017 8.71588C11.0841 8.5144 10.975 8.29673 10.7736 8.2297C10.5721 8.16268 10.3544 8.27168 10.2874 8.47316C10.2204 8.67465 10.3294 8.89232 10.5308 8.95934C10.7323 9.02637 10.95 8.91737 11.017 8.71588Z" fill="white"/>
<path d="M19.42 1.80802C19.6426 1.36361 19.4627 0.822944 19.0183 0.600401C18.5739 0.377859 18.0332 0.557718 17.8107 1.00212C17.5881 1.44653 17.768 1.9872 18.2124 2.20974C18.6568 2.43228 19.1975 2.25243 19.42 1.80802Z" fill="white"/>
<path d="M17.7853 4.27925C18.1894 4.14484 18.408 3.7083 18.2736 3.30423C18.1392 2.90015 17.7026 2.68156 17.2985 2.81597C16.8945 2.95039 16.6759 3.38692 16.8103 3.791C16.9447 4.19507 17.3812 4.41367 17.7853 4.27925Z" fill="white"/>
<path d="M16.891 5.96865C17.2279 5.85516 17.4091 5.49 17.2956 5.15306C17.1821 4.81612 16.8169 4.63498 16.48 4.74848C16.143 4.86197 15.9619 5.22713 16.0754 5.56407C16.1889 5.90101 16.554 6.08215 16.891 5.96865Z" fill="white"/>
<path d="M15.9052 7.62831C16.1742 7.53882 16.3197 7.2482 16.2302 6.97919C16.1407 6.71017 15.8501 6.56464 15.5811 6.65413C15.3121 6.74362 15.1665 7.03424 15.256 7.30325C15.3455 7.57227 15.6361 7.7178 15.9052 7.62831Z" fill="white"/>
<path d="M15.1354 8.96073C15.3369 8.8937 15.4459 8.67603 15.3788 8.47455C15.3118 8.27306 15.0941 8.16406 14.8927 8.23109C14.6912 8.29811 14.5822 8.51578 14.6492 8.71727C14.7162 8.91875 14.9339 9.02775 15.1354 8.96073Z" fill="white"/>
<path d="M7.85631 24.9219C8.07886 24.4775 7.899 23.9368 7.45459 23.7143C7.01017 23.4917 6.4695 23.6716 6.24695 24.116C6.0244 24.5604 6.20426 25.1011 6.64868 25.3236C7.09309 25.5461 7.63377 25.3663 7.85631 24.9219Z" fill="white"/>
<path d="M8.36857 23.1092C8.77265 22.9748 8.99126 22.5383 8.85684 22.1342C8.72242 21.7301 8.28588 21.5115 7.8818 21.6459C7.47772 21.7803 7.25912 22.2169 7.39354 22.621C7.52795 23.025 7.96449 23.2436 8.36857 23.1092Z" fill="white"/>
<path d="M9.28482 21.0737C9.62137 20.9617 9.80344 20.5982 9.69149 20.2616C9.57953 19.9251 9.21595 19.743 8.8794 19.855C8.54285 19.9669 8.36078 20.3305 8.47273 20.667C8.58469 21.0036 8.94827 21.1856 9.28482 21.0737Z" fill="white"/>
<path d="M10.088 19.2712C10.357 19.1817 10.5026 18.8911 10.4131 18.6221C10.3236 18.3531 10.033 18.2075 9.76395 18.297C9.49494 18.3865 9.3494 18.6771 9.43889 18.9461C9.52838 19.2152 9.81901 19.3607 10.088 19.2712Z" fill="white"/>
<path d="M10.7743 17.6938C10.9758 17.6268 11.0848 17.4092 11.0178 17.2077C10.9507 17.0062 10.7331 16.8972 10.5316 16.9642C10.3301 17.0312 10.2211 17.2489 10.2881 17.4504C10.3551 17.6519 10.5728 17.7609 10.7743 17.6938Z" fill="white"/>
<path d="M19.0195 25.3222C19.4639 25.0997 19.6438 24.559 19.4213 24.1146C19.1987 23.6702 18.658 23.4903 18.2136 23.7129C17.7692 23.9354 17.5893 24.4761 17.8119 24.9205C18.0344 25.3649 18.5751 25.5447 19.0195 25.3222Z" fill="white"/>
<path d="M18.2748 22.6199C18.4092 22.2159 18.1906 21.7793 17.7865 21.6449C17.3825 21.5105 16.9459 21.7291 16.8115 22.1332C16.6771 22.5372 16.8957 22.9738 17.2998 23.1082C17.7039 23.2426 18.1404 23.024 18.2748 22.6199Z" fill="white"/>
<path d="M17.1942 20.6677C17.3061 20.3312 17.1241 19.9676 16.7875 19.8556C16.451 19.7437 16.0874 19.9257 15.9754 20.2623C15.8635 20.5988 16.0455 20.9624 16.3821 21.0744C16.7186 21.1863 17.0822 21.0042 17.1942 20.6677Z" fill="white"/>
<path d="M16.2307 18.944C16.3202 18.675 16.1747 18.3844 15.9057 18.2949C15.6366 18.2054 15.346 18.351 15.2565 18.62C15.167 18.889 15.3126 19.1796 15.5816 19.2691C15.8506 19.3586 16.1412 19.213 16.2307 18.944Z" fill="white"/>
<path d="M15.3801 17.4528C15.4471 17.2513 15.3381 17.0336 15.1366 16.9666C14.9351 16.8996 14.7174 17.0086 14.6504 17.2101C14.5834 17.4116 14.6924 17.6292 14.8939 17.6963C15.0954 17.7633 15.313 17.6543 15.3801 17.4528Z" fill="white"/>
<path d="M1.6792 19.548C2.12361 19.3255 2.30347 18.7848 2.08092 18.3404C1.85838 17.896 1.3177 17.7161 0.873286 17.9387C0.428872 18.1612 0.249014 18.7019 0.471559 19.1463C0.694105 19.5907 1.23478 19.7705 1.6792 19.548Z" fill="white"/>
<path d="M4.14957 17.915C4.28399 17.511 4.06538 17.0744 3.6613 16.94C3.25722 16.8056 2.82068 17.0242 2.68626 17.4283C2.55184 17.8323 2.77045 18.2689 3.17453 18.4033C3.57861 18.5377 4.01515 18.3191 4.14957 17.915Z" fill="white"/>
<path d="M5.94051 16.9159C6.05247 16.5794 5.8704 16.2158 5.53385 16.1039C5.1973 15.9919 4.83371 16.174 4.72176 16.5105C4.6098 16.8471 4.79187 17.2106 5.12842 17.3226C5.46497 17.4345 5.82856 17.2525 5.94051 16.9159Z" fill="white"/>
<path d="M7.50001 16.0321C7.5895 15.7631 7.44396 15.4724 7.17494 15.3829C6.90592 15.2935 6.6153 15.439 6.52581 15.708C6.43632 15.977 6.58185 16.2676 6.85087 16.3571C7.11989 16.4466 7.41052 16.3011 7.50001 16.0321Z" fill="white"/>
<path d="M8.83246 15.2638C8.89948 15.0623 8.79048 14.8446 8.58899 14.7776C8.38751 14.7106 8.16983 14.8196 8.10281 15.021C8.03578 15.2225 8.14478 15.4402 8.34627 15.5072C8.54776 15.5742 8.76543 15.4652 8.83246 15.2638Z" fill="white"/>
<path d="M2.08166 7.58475C2.3042 7.14035 2.12434 6.59968 1.67993 6.37714C1.23552 6.1546 0.694837 6.33445 0.472291 6.77886C0.249745 7.22326 0.429605 7.76393 0.87402 7.98647C1.31843 8.20902 1.85911 8.02916 2.08166 7.58475Z" fill="white"/>
<path d="M3.6613 8.98729C4.06538 8.85287 4.28398 8.41634 4.14956 8.01227C4.01514 7.60819 3.5786 7.38959 3.17452 7.52401C2.77044 7.65843 2.55184 8.09496 2.68626 8.49904C2.82068 8.90311 3.25722 9.12171 3.6613 8.98729Z" fill="white"/>
<path d="M5.53384 9.82221C5.87039 9.71026 6.05246 9.34668 5.94051 9.01013C5.82855 8.67359 5.46497 8.49152 5.12842 8.60347C4.79187 8.71543 4.6098 9.07901 4.72176 9.41555C4.83371 9.75209 5.19729 9.93416 5.53384 9.82221Z" fill="white"/>
<path d="M7.17543 10.5409C7.44445 10.4515 7.58998 10.1608 7.50049 9.89181C7.411 9.6228 7.12038 9.47727 6.85136 9.56676C6.58234 9.65625 6.4368 9.94687 6.52629 10.2159C6.61578 10.4849 6.90641 10.6304 7.17543 10.5409Z" fill="white"/>
<path d="M8.5885 11.1457C8.78999 11.0786 8.89899 10.861 8.83197 10.6595C8.76494 10.458 8.54727 10.349 8.34578 10.416C8.14429 10.4831 8.03529 10.7007 8.10232 10.9022C8.16934 11.1037 8.38702 11.2127 8.5885 11.1457Z" fill="white"/>
<path d="M25.1949 19.1458C25.4175 18.7014 25.2376 18.1607 24.7932 17.9381C24.3488 17.7156 23.8081 17.8955 23.5856 18.3399C23.363 18.7843 23.5429 19.3249 23.9873 19.5475C24.4317 19.77 24.9724 19.5902 25.1949 19.1458Z" fill="white"/>
<path d="M22.4928 18.4015C22.8969 18.2671 23.1155 17.8306 22.9811 17.4265C22.8467 17.0224 22.4101 16.8038 22.0061 16.9382C21.602 17.0726 21.3834 17.5092 21.5178 17.9133C21.6522 18.3173 22.0888 18.5359 22.4928 18.4015Z" fill="white"/>
<path d="M20.5404 17.322C20.877 17.21 21.0591 16.8464 20.9471 16.5099C20.8351 16.1733 20.4716 15.9913 20.135 16.1032C19.7985 16.2152 19.6164 16.5788 19.7283 16.9153C19.8403 17.2519 20.2039 17.4339 20.5404 17.322Z" fill="white"/>
<path d="M18.8158 16.3567C19.0848 16.2672 19.2304 15.9766 19.1409 15.7076C19.0514 15.4386 18.7608 15.293 18.4917 15.3825C18.2227 15.472 18.0772 15.7626 18.1667 16.0316C18.2562 16.3007 18.5468 16.4462 18.8158 16.3567Z" fill="white"/>
<path d="M17.3231 15.5089C17.5246 15.4419 17.6336 15.2242 17.5666 15.0227C17.4996 14.8213 17.2819 14.7123 17.0804 14.7793C16.8789 14.8463 16.7699 15.064 16.8369 15.2655C16.904 15.4669 17.1216 15.5759 17.3231 15.5089Z" fill="white"/>
<path d="M24.7949 7.98602C25.2393 7.76348 25.4192 7.22281 25.1966 6.77841C24.9741 6.334 24.4334 6.15414 23.989 6.37669C23.5446 6.59923 23.3647 7.1399 23.5873 7.5843C23.8098 8.02871 24.3505 8.20856 24.7949 7.98602Z" fill="white"/>
<path d="M22.9816 8.49741C23.116 8.09333 22.8974 7.6568 22.4933 7.52238C22.0892 7.38796 21.6527 7.60657 21.5183 8.01064C21.3839 8.41471 21.6025 8.85125 22.0066 8.98566C22.4106 9.12008 22.8472 8.90148 22.9816 8.49741Z" fill="white"/>
<path d="M20.9483 9.41306C21.0603 9.07651 20.8782 8.71294 20.5417 8.60098C20.2051 8.48903 19.8415 8.67109 19.7296 9.00764C19.6176 9.34418 19.7997 9.70776 20.1362 9.81971C20.4728 9.93167 20.8364 9.7496 20.9483 9.41306Z" fill="white"/>
<path d="M19.1421 10.2157C19.2316 9.94665 19.0861 9.65603 18.817 9.56654C18.548 9.47705 18.2574 9.62259 18.1679 9.8916C18.0784 10.1606 18.2239 10.4512 18.493 10.5407C18.762 10.6302 19.0526 10.4847 19.1421 10.2157Z" fill="white"/>
<path d="M17.5666 10.9027C17.6336 10.7012 17.5246 10.4836 17.3231 10.4165C17.1216 10.3495 16.904 10.4585 16.8369 10.66C16.7699 10.8615 16.8789 11.0791 17.0804 11.1462C17.2819 11.2132 17.4996 11.1042 17.5666 10.9027Z" fill="white"/>
<path d="M38.9283 13.0838L35.1891 16.8863V23.604H32.6541V2.69034H35.1891V13.4641L45.7095 2.69034H49.0367L40.7028 11.2142L49.1318 23.604H46.0898L38.9283 13.0838Z" fill="white"/>
<path d="M64.1514 16.6327H52.2051C52.3459 18.2382 52.879 19.4845 53.8043 20.3718C54.7296 21.259 55.9182 21.7027 57.3702 21.7027C58.5321 21.7027 59.4989 21.502 60.2707 21.1006C60.9997 20.7453 61.5619 20.1203 61.8382 19.3578L63.9613 20.4669C63.3719 21.5419 62.4939 22.4308 61.4263 23.0335C60.37 23.625 59.018 23.9208 57.3702 23.9208C54.976 23.9208 53.1015 23.192 51.7467 21.7343C50.3918 20.2767 49.7109 18.2593 49.7039 15.6821C49.7039 13.1048 50.3531 11.0874 51.6516 9.62977C52.9501 8.17215 54.7929 7.44334 57.1801 7.44334C58.5246 7.40837 59.8523 7.74852 61.0143 8.42565C62.0694 9.05647 62.9174 9.98155 63.4543 11.0874C64.0162 12.2639 64.2982 13.5545 64.2782 14.8582C64.2779 15.4519 64.2355 16.0449 64.1514 16.6327V16.6327ZM53.8001 10.8973C52.9452 11.7211 52.4227 12.883 52.2326 14.3829H61.834C61.665 12.9041 61.1791 11.7479 60.3763 10.9142C59.5736 10.0804 58.5082 9.66286 57.1801 9.66145C55.7858 9.66145 54.6606 10.0734 53.8043 10.8973H53.8001Z" fill="white"/>
<path d="M80.2827 8.99604C81.4446 10.0312 82.0256 11.5205 82.0256 13.464V23.6039H79.4905V14.3512C79.4905 12.7035 79.1384 11.5064 78.4343 10.76C77.7301 10.0136 76.7823 9.6474 75.5908 9.66148C74.766 9.65731 73.9517 9.84766 73.2142 10.2171C72.4391 10.622 71.8044 11.2515 71.3932 12.0232C70.9186 12.8584 70.6813 13.909 70.6813 15.1751V23.6039H68.1462V7.76024H70.3538L70.5123 10.2319C71.0015 9.31583 71.7664 8.57683 72.6988 8.11936C73.6819 7.65447 74.7591 7.42312 75.8464 7.44336C77.6407 7.44336 79.1194 7.96092 80.2827 8.99604Z" fill="white"/>
<path d="M100.273 16.6327H88.3291C88.4699 18.2382 89.003 19.4845 89.9283 20.3718C90.8536 21.259 92.0422 21.7026 93.4942 21.7026C94.6561 21.7026 95.6222 21.502 96.3926 21.1006C97.1226 20.7459 97.6856 20.1207 97.9622 19.3578L100.075 20.4668C99.4854 21.5419 98.6074 22.4309 97.5397 23.0335C96.4834 23.625 95.1314 23.9208 93.4837 23.9208C91.0895 23.9208 89.2149 23.192 87.8601 21.7343C86.5053 20.2767 85.8236 18.2593 85.8152 15.682C85.8152 13.1048 86.4651 11.0874 87.7651 9.62975C89.065 8.17213 90.9106 7.44332 93.302 7.44332C94.6465 7.40847 95.9741 7.7486 97.1362 8.42563C98.1912 9.05655 99.0392 9.9816 99.5762 11.0874C100.138 12.2639 100.42 13.5545 100.4 14.8582C100.4 15.4519 100.357 16.0449 100.273 16.6327ZM89.9219 10.8972C89.0657 11.7211 88.5425 12.883 88.3523 14.3829H97.9538C97.7848 12.9041 97.2989 11.7479 96.4961 10.9141C95.6934 10.0804 94.6287 9.66285 93.302 9.66144C91.9091 9.66144 90.7846 10.0734 89.9283 10.8972H89.9219Z" fill="white"/>
<path d="M113.487 22.4948C112.431 23.4455 111.069 23.9208 109.4 23.9208C108.111 23.9208 107.06 23.5687 106.248 22.8645C105.435 22.1604 105.019 21.0971 104.999 19.6747V9.94663H101.831V7.7602H104.999V3.95771L107.534 3.26059V7.7602H113.397V9.94663H107.534V19.2416C107.534 20.0021 107.751 20.5774 108.183 20.9675C108.663 21.376 109.281 21.586 109.911 21.5548C110.417 21.5521 110.917 21.4457 111.38 21.2422C111.843 21.0387 112.26 20.7425 112.604 20.3718L113.487 22.4948Z" fill="white"/>
<path d="M116.008 4.19638C115.832 4.01399 115.695 3.79759 115.605 3.56041C115.515 3.32323 115.475 3.07025 115.486 2.81692C115.486 2.31268 115.687 1.82909 116.043 1.47254C116.4 1.11599 116.883 0.91568 117.388 0.91568C117.892 0.91568 118.375 1.11599 118.732 1.47254C119.089 1.82909 119.289 2.31268 119.289 2.81692C119.28 3.19302 119.163 3.55857 118.951 3.8695C118.739 4.18043 118.442 4.42346 118.095 4.56927C117.748 4.71509 117.367 4.75747 116.997 4.69131C116.626 4.62514 116.283 4.45326 116.008 4.19638V4.19638ZM118.653 23.6039H116.118V7.76016H118.653V23.6039Z" fill="white"/>
<path d="M134.292 8.53557C135.421 9.31389 136.306 10.3966 136.844 11.6578L134.435 12.7986C133.758 10.7072 132.353 9.66153 130.219 9.66153C128.634 9.66153 127.394 10.1953 126.497 11.2628C125.599 12.3303 125.151 13.8034 125.151 15.6821C125.151 17.5623 125.6 19.0354 126.499 20.1015C127.397 21.1676 128.637 21.7013 130.219 21.7027C131.444 21.7027 132.43 21.4211 133.176 20.8577C133.953 20.2603 134.479 19.3961 134.655 18.4326L137 19.2565C136.526 20.6339 135.641 21.8333 134.465 22.6935C133.324 23.5075 131.93 23.9145 130.282 23.9145C127.888 23.9145 126.014 23.1857 124.659 21.7281C123.304 20.2705 122.622 18.253 122.614 15.6758C122.614 13.0986 123.295 11.0811 124.659 9.6235C126.022 8.16588 127.896 7.43918 130.282 7.44341C131.867 7.44341 133.203 7.80746 134.292 8.53557Z" fill="white"/>
</g>
</svg>
