<svg width="492" height="280" viewBox="0 0 492 280" fill="none" xmlns="http://www.w3.org/2000/svg">
<path d="M484 24.6102H492L488 20.6102L484 24.6102Z" fill="#7D7D7D"/>
<path d="M469.999 6.61023L485.999 22.6102" stroke="#7D7D7D" stroke-width="5.66"/>
<path d="M468 8.61023L468 0.610229L472 4.61023L468 8.61023Z" fill="#7D7D7D"/>
<rect width="30" height="3.9999" transform="matrix(-1 0 0 1 468 0.610229)" fill="#7D7D7D"/>
<path d="M468 8.61023V4.61023H464L468 8.61023Z" fill="#7D7D7D"/>
<path d="M438 8.61023V4.61023H442L438 8.61023Z" fill="#7D7D7D"/>
<rect width="2" height="32" transform="matrix(-1 0 0 1 492 54.6102)" fill="#7D7D7D"/>
<path d="M490 56.6102V54.6102H488L490 56.6102Z" fill="#7D7D7D"/>
<path d="M490 86.6102V84.6102L488 86.6102H490Z" fill="#7D7D7D"/>
<rect width="30" height="1.9999" transform="matrix(-1 0 0 1 438 0.610229)" fill="#7D7D7D"/>
<path d="M438 4.61023V2.61023H436L438 4.61023Z" fill="#7D7D7D"/>
<path d="M408 4.61023V2.61023H410L408 4.61023Z" fill="#7D7D7D"/>
<rect width="4" height="30" transform="matrix(-1 0 0 1 492 24.6102)" fill="#7D7D7D"/>
<path d="M488 28.6102V24.6102H484L488 28.6102Z" fill="#7D7D7D"/>
<path d="M488 54.6102V50.6102L484 54.6102H488Z" fill="#7D7D7D"/>
<path d="M408 0.610229L408 4.61023L406 2.61023L408 0.610229Z" fill="#7D7D7D"/>
<path d="M407 3.61023L405 5.61023" stroke="#7D7D7D" stroke-width="2.83"/>
<path d="M404.001 4.61023L404.001 8.61023L406.001 6.61023L404.001 4.61023Z" fill="#7D7D7D"/>
<path d="M488 86.6102H492L490 88.6102L488 86.6102Z" fill="#7D7D7D"/>
<path d="M489 87.6102L479 97.6102" stroke="#7D7D7D" stroke-width="2.83"/>
<path d="M476.001 98.6102H480.001L478.001 96.6102L476.001 98.6102Z" fill="#7D7D7D"/>
<rect width="2" height="27" transform="matrix(-1 0 0 1 478 98.6102)" fill="#7D7D7D"/>
<path d="M478 100.61V98.6102H480L478 100.61Z" fill="#7D7D7D"/>
<path d="M478 125.61V123.61L480 125.61H478Z" fill="#7D7D7D"/>
<path d="M476 128.022V125.61H478L476 128.022Z" fill="#7D7D7D"/>
<path d="M21 2.61023L21 4.61023L20 3.61023L21 2.61023Z" fill="#7D7D7D"/>
<path d="M20.499 4.11023L16.499 8.11023" stroke="#7D7D7D" stroke-width="1.41"/>
<path d="M16 7.61023L16 9.61023L17 8.61023L16 7.61023Z" fill="#7D7D7D"/>
<path d="M16 7.61023L16 13.6102L13 10.6102L16 7.61023Z" fill="#7D7D7D"/>
<path d="M14.499 12.1102L5.49902 21.1102" stroke="#7D7D7D" stroke-width="4.24"/>
<path d="M4 19.6102L4 25.6102L7 22.6102L4 19.6102Z" fill="#7D7D7D"/>
<rect width="379" height="0.9999" transform="matrix(-1 0 0 1 400 2.61023)" fill="#7D7D7D"/>
<path d="M400 4.61023V3.61023H399L400 4.61023Z" fill="#7D7D7D"/>
<path d="M21 4.61023V3.61023H22L21 4.61023Z" fill="#7D7D7D"/>
<path d="M400 3.61023V2.61023H401L400 3.61023Z" fill="#7D7D7D"/>
<rect width="381" height="1.9999" transform="matrix(-1 0 0 1 404 6.61023)" fill="#7D7D7D"/>
<path d="M404 6.61011V4.61011L402 6.61011H404Z" fill="#7D7D7D"/>
<path d="M23 6.61011V4.61011L25 6.61011H23Z" fill="#7D7D7D"/>
<path d="M23 8.61023V6.61023L21 8.61023H23Z" fill="#7D7D7D"/>
<g opacity="0.4">
<path d="M484 104.61V100.61L488 104.61H484Z" fill="#7D7D7D"/>
<rect width="4" height="13" transform="matrix(-1 0 0 1 488 104.61)" fill="#7D7D7D"/>
<path d="M488 121.61V117.61H484L488 121.61Z" fill="#7D7D7D"/>
</g>
<path d="M484 255.61H492L488 259.61L484 255.61Z" fill="#7D7D7D"/>
<path d="M469.999 273.61L485.999 257.61" stroke="#7D7D7D" stroke-width="5.66"/>
<path d="M468 271.61L468 279.61L472 275.61L468 271.61Z" fill="#7D7D7D"/>
<rect x="468" y="279.61" width="30" height="3.9999" transform="rotate(-180 468 279.61)" fill="#7D7D7D"/>
<path d="M468 271.61V275.61H464L468 271.61Z" fill="#7D7D7D"/>
<path d="M438 271.61V275.61H442L438 271.61Z" fill="#7D7D7D"/>
<rect x="492" y="225.61" width="2" height="32" transform="rotate(-180 492 225.61)" fill="#7D7D7D"/>
<path d="M490 223.61V225.61H488L490 223.61Z" fill="#7D7D7D"/>
<path d="M490 193.61V195.61L488 193.61H490Z" fill="#7D7D7D"/>
<rect x="438" y="279.61" width="30" height="1.9999" transform="rotate(-180 438 279.61)" fill="#7D7D7D"/>
<path d="M438 275.61V277.61H436L438 275.61Z" fill="#7D7D7D"/>
<path d="M408 275.61V277.61H410L408 275.61Z" fill="#7D7D7D"/>
<rect x="492" y="255.61" width="4" height="30" transform="rotate(-180 492 255.61)" fill="#7D7D7D"/>
<path d="M488 251.61V255.61H484L488 251.61Z" fill="#7D7D7D"/>
<path d="M488 225.61V229.61L484 225.61H488Z" fill="#7D7D7D"/>
<path d="M408 279.61L408 275.61L406 277.61L408 279.61Z" fill="#7D7D7D"/>
<path d="M407 276.61L405 274.61" stroke="#7D7D7D" stroke-width="2.83"/>
<path d="M404.001 275.61L404.001 271.61L406.001 273.61L404.001 275.61Z" fill="#7D7D7D"/>
<path d="M488 193.61H492L490 191.61L488 193.61Z" fill="#7D7D7D"/>
<path d="M489 192.61L479 182.61" stroke="#7D7D7D" stroke-width="2.83"/>
<path d="M476.001 181.61H480.001L478.001 183.61L476.001 181.61Z" fill="#7D7D7D"/>
<rect x="478" y="181.61" width="2" height="27" transform="rotate(-180 478 181.61)" fill="#7D7D7D"/>
<path d="M478 179.61V181.61H480L478 179.61Z" fill="#7D7D7D"/>
<path d="M478 154.61V156.61L480 154.61H478Z" fill="#7D7D7D"/>
<path d="M476 152.198V154.61H478L476 152.198Z" fill="#7D7D7D"/>
<path d="M21 277.61L21 275.61L20 276.61L21 277.61Z" fill="#7D7D7D"/>
<path d="M20.499 276.11L16.499 272.11" stroke="#7D7D7D" stroke-width="1.41"/>
<path d="M16 272.61L16 270.61L17 271.61L16 272.61Z" fill="#7D7D7D"/>
<path d="M16 272.61L16 266.61L13 269.61L16 272.61Z" fill="#7D7D7D"/>
<path d="M14.499 268.11L5.49902 259.11" stroke="#7D7D7D" stroke-width="4.24"/>
<path d="M4 260.61L4 254.61L7 257.61L4 260.61Z" fill="#7D7D7D"/>
<rect x="400" y="277.61" width="379" height="0.9999" transform="rotate(-180 400 277.61)" fill="#7D7D7D"/>
<path d="M400 275.61V276.61H399L400 275.61Z" fill="#7D7D7D"/>
<path d="M21 275.61V276.61H22L21 275.61Z" fill="#7D7D7D"/>
<path d="M400 276.61V277.61H401L400 276.61Z" fill="#7D7D7D"/>
<rect x="404" y="273.61" width="381" height="1.9999" transform="rotate(-180 404 273.61)" fill="#7D7D7D"/>
<path d="M404 273.61V275.61L402 273.61H404Z" fill="#7D7D7D"/>
<path d="M23 273.61V275.61L25 273.61H23Z" fill="#7D7D7D"/>
<path d="M23 271.61V273.61L21 271.61H23Z" fill="#7D7D7D"/>
<g opacity="0.4">
<path d="M484 175.61V179.61L488 175.61H484Z" fill="#7D7D7D"/>
<rect x="488" y="175.61" width="4" height="13" transform="rotate(-180 488 175.61)" fill="#7D7D7D"/>
<path d="M488 158.61V162.61H484L488 158.61Z" fill="#7D7D7D"/>
</g>
</svg>
