<svg width="53" height="69" viewBox="0 0 53 69" fill="none" xmlns="http://www.w3.org/2000/svg">
<path fill-rule="evenodd" clip-rule="evenodd" d="M48.6805 35.2787L29.286 68.871C20.519 68.654 11.0444 68.044 0.862305 67.0408V54.0808C15.0063 55.0408 25.5663 55.5208 32.5423 55.5208C34.0143 55.5208 35.1663 55.1048 35.9983 54.2728C36.8943 53.3768 37.3423 52.1928 37.3423 50.7208V46.8808C37.3423 43.0408 35.4223 41.1208 31.5823 41.1208H11.4223V27.6808H29.6623C33.5023 27.6808 35.4223 25.7608 35.4223 21.9208V20.0008C35.4223 16.1608 33.5023 14.2408 29.6623 14.2408H1.8223V0.800781H34.4623C40.7343 0.800781 45.3423 2.24078 48.2863 5.12078C51.2303 7.93678 52.7023 12.2568 52.7023 18.0808C52.7023 21.9208 51.8063 25.0568 50.0143 27.4888C48.2863 29.8568 45.9823 31.5208 43.1023 32.4808C45.2463 33.0631 47.1057 33.9958 48.6805 35.2787Z" fill="url(#paint0_linear_586_3198)"/>
<defs>
<linearGradient id="paint0_linear_586_3198" x1="0.862305" y1="0.800781" x2="55.8479" y2="4.73809" gradientUnits="userSpaceOnUse">
<stop stop-color="#6415FF"/>
<stop offset="0.503125" stop-color="#9035DC"/>
<stop offset="1" stop-color="#F78297"/>
</linearGradient>
</defs>
</svg>
