<svg width="19" height="19" viewBox="0 0 19 19" fill="none" xmlns="http://www.w3.org/2000/svg">
<path d="M17.7292 18.8486L10.8802 11.9997C10.3594 12.4511 9.75174 12.8026 9.05729 13.0544C8.36285 13.3061 7.625 13.432 6.84375 13.432C4.96875 13.432 3.38021 12.7809 2.07812 11.4788C0.776042 10.1768 0.125 8.60558 0.125 6.7653C0.125 4.92502 0.776042 3.35384 2.07812 2.05176C3.38021 0.749674 4.96007 0.0986328 6.81771 0.0986328C8.65799 0.0986328 10.2248 0.749674 11.5182 2.05176C12.8116 3.35384 13.4583 4.92502 13.4583 6.7653C13.4583 7.51183 13.3368 8.23231 13.0937 8.92676C12.8507 9.6212 12.4861 10.2722 12 10.8799L18.875 17.7028L17.7292 18.8486ZM6.81771 11.8695C8.22396 11.8695 9.42188 11.3703 10.4115 10.3721C11.401 9.37381 11.8958 8.17155 11.8958 6.7653C11.8958 5.35905 11.401 4.15679 10.4115 3.15853C9.42188 2.16026 8.22396 1.66113 6.81771 1.66113C5.3941 1.66113 4.18316 2.16026 3.1849 3.15853C2.18663 4.15679 1.6875 5.35905 1.6875 6.7653C1.6875 8.17155 2.18663 9.37381 3.1849 10.3721C4.18316 11.3703 5.3941 11.8695 6.81771 11.8695Z" fill="white" fill-opacity="0.11"/>
</svg>
