<svg width="958" height="456" viewBox="0 0 958 456" fill="none" xmlns="http://www.w3.org/2000/svg">
<path d="M31.2937 261.572L16.8069 276.067V160.105L31.2937 169.714V261.572Z" fill="#48FFFF" fill-opacity="0.5"/>
<path d="M933.427 267.459L938.197 272.406V163.595L933.427 167.537V267.459Z" fill="#48FFFF" fill-opacity="0.5"/>
<path d="M943.192 276.62L947.958 282.482V153.519L943.192 158.189V276.62Z" fill="#48FFFF" fill-opacity="0.5"/>
<path d="M571.965 15.7559H387.508V22.2608H571.965V15.7559Z" fill="#48FFFF" fill-opacity="0.5"/>
<path d="M812.611 448.661H145.751L150.473 442.156H807.352L812.611 448.661Z" fill="#48FFFF" fill-opacity="0.5"/>
<path d="M142.629 456H29.0753L10.0418 436.982V281.514L28.7416 260.588V170.906L10.0418 155.801V26.1866L29.0753 7.16809H363.309L397.92 31.3938H479.024V34.8557H396.825L362.218 10.6301H30.5081L13.5058 27.6226V154.145L32.2055 169.254V261.906L13.5058 282.836V435.546L30.5081 452.538H140.932L151.69 438.694H479.024V442.156H153.383L142.629 456Z" fill="#00FFFF" fill-opacity="0.8"/>
<path d="M0 139.5L10.0418 149.028V26.1865L18.9806 17.257L10.2983 16.0447L0 26.1865V139.5Z" fill="#00FFFF" fill-opacity="0.8"/>
<path d="M397.371 22.8019H479.024V31.3938H397.371L373.665 14.4175L383.845 13.132L397.371 22.8019Z" fill="#00FFFF" fill-opacity="0.8"/>
<path d="M18.9032 420.375L13.5058 426.888V325.417L18.9032 331.934V420.375Z" fill="#00FFFF" fill-opacity="0.8"/>
<path d="M146.081 446.7H34.314L18.4473 430.843V294.426L26.6208 286.258V267.093L31.2937 261.572V169.681L22.7946 163.648V34.1031L30.5773 24.1809H149.557L156.774 31.1049H205.212L211.444 24.1809H388.489V25.9139H211.627L205.212 32.8338H156.371L149.557 25.9139H31.4199L24.5286 34.7011V162.753L33.0277 168.786V262.203L28.3508 267.727V286.974L20.1773 295.142V430.127L35.0304 444.971H147.241L146.081 446.7Z" fill="#00FFFF" fill-opacity="0.8"/>
<path d="M27.5815 141.331L24.5734 143.979V85.6707L27.5815 88.319V141.331Z" fill="#00FFFF" fill-opacity="0.8"/>
<path d="M23.0592 164.312H21.1501V145.395L23.0592 144.113V164.312Z" fill="#00FFFF" fill-opacity="0.8"/>
<path d="M273.515 434.211H165.192L161.988 438.694H276.718L273.515 434.211Z" fill="#00FFFF" fill-opacity="0.8"/>
<path d="M288.262 434.211H279.73L282.637 438.694H291.466L288.262 434.211Z" fill="#00FFFF" fill-opacity="0.8"/>
<path d="M305.602 434.211H297.075L299.977 438.694H308.806L305.602 434.211Z" fill="#00FFFF" fill-opacity="0.8"/>
<path d="M322.947 434.211H314.415L317.321 438.694H326.15L322.947 434.211Z" fill="#00FFFF" fill-opacity="0.8"/>
<path d="M340.287 434.211H331.759L334.661 438.694H343.49L340.287 434.211Z" fill="#00FFFF" fill-opacity="0.8"/>
<path d="M357.631 434.211H349.099L352.006 438.694H360.834L357.631 434.211Z" fill="#00FFFF" fill-opacity="0.8"/>
<path d="M374.971 434.211H366.444L369.346 438.694H378.175L374.971 434.211Z" fill="#00FFFF" fill-opacity="0.8"/>
<path d="M434.876 434.211H381.109L384.012 438.694H438.08L434.876 434.211Z" fill="#00FFFF" fill-opacity="0.8"/>
<path d="M278.522 25.9302H390.012V30.0837H285.026L278.522 25.9302Z" fill="#00FFFF" fill-opacity="0.8"/>
<path d="M252.352 0H126.217L135.913 7.16803H262.048L252.352 0Z" fill="#00FFFF" fill-opacity="0.8"/>
<path d="M120.677 0H114.934L124.629 7.16803H130.373L120.677 0Z" fill="#00FFFF" fill-opacity="0.8"/>
<path d="M108.453 0H102.71L112.406 7.16803H118.149L108.453 0Z" fill="#00FFFF" fill-opacity="0.8"/>
<path d="M96.2298 0H90.4864L100.182 7.16803H105.93L96.2298 0Z" fill="#00FFFF" fill-opacity="0.8"/>
<path d="M84.0103 0H78.2628L87.9587 7.16803H93.7062L84.0103 0Z" fill="#00FFFF" fill-opacity="0.8"/>
<path d="M71.7867 0H66.0433L75.7391 7.16803H81.4826L71.7867 0Z" fill="#00FFFF" fill-opacity="0.8"/>
<path d="M59.5631 0H46.8103L42.5323 7.16803H69.259L59.5631 0Z" fill="#00FFFF" fill-opacity="0.8"/>
<path d="M48.064 446.192L29.0346 427.173V390.906L16.8069 378.685L17.7879 377.709L30.4226 390.336V426.6L49.045 445.215L48.064 446.192Z" fill="#00FFFF" fill-opacity="0.8"/>
<path d="M28.0658 385.902H25.9736L30.4226 390.336V405.209L32.5108 403.415V390.129L28.0658 385.902Z" fill="#00FFFF" fill-opacity="0.8"/>
<path d="M29.0346 427.019L34.314 432.425L31.8717 432.519L27.3169 428.516V419.753L29.0346 418.256V427.019Z" fill="#00FFFF" fill-opacity="0.8"/>
<path d="M152.516 28.8267H122.326L119.904 25.9302H150.09L152.516 28.8267Z" fill="#00FFFF" fill-opacity="0.8"/>
<path d="M815.371 456H928.925L947.958 436.982V281.514L929.258 260.588V170.906L947.958 155.801V26.1866L928.925 7.16809H594.691L560.084 31.3938H478.976V34.8557H561.175L595.786 10.6301H927.492L944.494 27.6226V154.145L925.794 169.254V261.906L944.494 282.836V435.546L927.492 452.538H817.068L806.314 438.694H478.976V442.156H804.617L815.371 456Z" fill="#00FFFF" fill-opacity="0.8"/>
<path d="M958 139.5L947.958 149.028V26.1865L939.023 17.257L947.706 16.0447L958 26.1865V139.5Z" fill="#00FFFF" fill-opacity="0.8"/>
<path d="M560.629 22.8019H478.976V31.3938H560.629L584.34 14.4175L574.155 13.132L560.629 22.8019Z" fill="#00FFFF" fill-opacity="0.8"/>
<path d="M939.097 420.375L944.494 426.888V325.417L939.097 331.934V420.375Z" fill="#00FFFF" fill-opacity="0.8"/>
<path d="M811.879 446.721H923.641L939.508 430.863V294.447L931.334 286.278V267.113L926.662 261.588V169.702L935.161 163.669V34.1234L927.378 24.2013H808.398L801.181 31.1252H752.743L746.511 24.2013H569.466V25.9302H746.328L752.743 32.8542H801.584L808.398 25.9302H926.535L933.427 34.7215V162.774L924.928 168.807V262.223L929.604 267.748V286.994L937.778 295.163V430.147L922.925 444.992H809.953L811.879 446.721Z" fill="#00FFFF" fill-opacity="0.8"/>
<path d="M930.419 141.331L933.427 143.979V85.6707L930.419 88.319V141.331Z" fill="#00FFFF" fill-opacity="0.8"/>
<path d="M934.941 164.312H936.85V145.395L934.941 144.113V164.312Z" fill="#00FFFF" fill-opacity="0.8"/>
<path d="M684.489 434.211H792.808L796.012 438.694H681.286L684.489 434.211Z" fill="#00FFFF" fill-opacity="0.8"/>
<path d="M669.742 434.211H678.27L675.363 438.694H666.534L669.742 434.211Z" fill="#00FFFF" fill-opacity="0.8"/>
<path d="M652.398 434.211H660.929L658.023 438.694H649.194L652.398 434.211Z" fill="#00FFFF" fill-opacity="0.8"/>
<path d="M635.053 434.211H643.585L640.679 438.694H631.854L635.053 434.211Z" fill="#00FFFF" fill-opacity="0.8"/>
<path d="M617.713 434.211H626.245L623.339 438.694H614.51L617.713 434.211Z" fill="#00FFFF" fill-opacity="0.8"/>
<path d="M600.369 434.211H608.901L605.998 438.694H597.17L600.369 434.211Z" fill="#00FFFF" fill-opacity="0.8"/>
<path d="M583.029 434.211H591.561L588.654 438.694H579.825L583.029 434.211Z" fill="#00FFFF" fill-opacity="0.8"/>
<path d="M523.128 434.211H576.891L573.988 438.694H519.924L523.128 434.211Z" fill="#00FFFF" fill-opacity="0.8"/>
<path d="M679.482 25.9302H567.993V30.0837H672.974L679.482 25.9302Z" fill="#00FFFF" fill-opacity="0.8"/>
<path d="M705.647 0H831.783L822.087 7.16803H695.952L705.647 0Z" fill="#00FFFF" fill-opacity="0.8"/>
<path d="M837.323 0H843.07L833.375 7.16803H827.627L837.323 0Z" fill="#00FFFF" fill-opacity="0.8"/>
<path d="M849.547 0H855.29L845.594 7.16803H839.851L849.547 0Z" fill="#00FFFF" fill-opacity="0.8"/>
<path d="M861.77 0H867.514L857.818 7.16803H852.074L861.77 0Z" fill="#00FFFF" fill-opacity="0.8"/>
<path d="M873.994 0H879.737L870.041 7.16803H864.294L873.994 0Z" fill="#00FFFF" fill-opacity="0.8"/>
<path d="M886.213 0H891.961L882.261 7.16803H876.518L886.213 0Z" fill="#00FFFF" fill-opacity="0.8"/>
<path d="M898.437 0H911.19L915.468 7.16803H888.741L898.437 0Z" fill="#00FFFF" fill-opacity="0.8"/>
<path d="M909.936 446.192L928.965 427.173V390.906L941.193 378.685L940.212 377.709L927.577 390.336V426.6L908.955 445.215L909.936 446.192Z" fill="#00FFFF" fill-opacity="0.8"/>
<path d="M929.934 385.902H932.026L927.577 390.336V405.209L925.489 403.415V390.129L929.934 385.902Z" fill="#00FFFF" fill-opacity="0.8"/>
<path d="M928.965 427.019L923.686 432.425L926.132 432.519L930.683 428.516V419.753L928.965 418.256V427.019Z" fill="#00FFFF" fill-opacity="0.8"/>
<path d="M805.484 28.8267H835.674L838.1 25.9302H807.91L805.484 28.8267Z" fill="#00FFFF" fill-opacity="0.8"/>
<g style="mix-blend-mode:screen" opacity="0.5">
<path d="M911.076 48.6995H46.7778V420.371H911.076V48.6995Z" fill="#05161E"/>
</g>
<g style="mix-blend-mode:screen" opacity="0.5">
<path d="M911.08 54.9563V420.367H48.6583C229.749 316.268 571.697 137.368 911.08 54.9563Z" fill="#05161E"/>
</g>
<g style="mix-blend-mode:screen" opacity="0.5">
<path d="M919.86 428.272H905.683L901.771 434.211H46.7778H43.0248L36.4225 427.291V389.267L32.926 387.106V290.403L39.8539 282.747V153.116L32.926 146.709V34.8557H740.458L747.411 41.7797H806.192L812.876 34.8557H915.952H918.639L924.928 41.8976V44.0985V376.155L919.86 381.366V428.272Z" stroke="#204756" stroke-width="5.10462" stroke-miterlimit="10"/>
</g>
</svg>
