<svg width="179" height="50" viewBox="0 0 179 50" fill="none" xmlns="http://www.w3.org/2000/svg">
<path fill-rule="evenodd" clip-rule="evenodd" d="M13.9807 22.2333L10.8499 32.8421H17.2247L13.9807 22.2333ZM28.4239 42.5996H20.2025L19.028 38.71H9.13306L7.98518 42.5996H0L10.4007 14H17.6838L28.4239 42.5996ZM108.486 33.5966C108.249 32.9896 108.137 32.3403 108.156 31.688C108.137 31.0358 108.249 30.3865 108.486 29.7795C108.723 29.1725 109.079 28.6206 109.534 28.1573C109.988 27.6941 110.531 27.3291 111.129 27.0846C111.727 26.8401 112.369 26.7213 113.014 26.7353C113.659 26.7218 114.3 26.841 114.898 27.0856C115.496 27.3302 116.038 27.6952 116.493 28.1584C116.947 28.6216 117.303 29.1733 117.54 29.7801C117.777 30.3868 117.89 31.0359 117.871 31.688C117.89 32.3401 117.777 32.9893 117.54 33.596C117.303 34.2027 116.947 34.7545 116.493 35.2176C116.038 35.6808 115.496 36.0458 114.898 36.2905C114.3 36.5351 113.659 36.6543 113.014 36.6408C112.369 36.6548 111.727 36.5359 111.129 36.2914C110.531 36.047 109.988 35.682 109.534 35.2187C109.079 34.7554 108.723 34.2035 108.486 33.5966ZM117.825 42.5996H124V20.8572H117.825L117.752 22.5698C116.071 21.1727 113.968 20.3976 111.793 20.3727C106.02 20.3727 101.728 25.6922 101.728 31.688C101.728 37.6838 106.02 43 111.793 43C113.967 42.9753 116.068 42.2041 117.752 40.813L117.825 42.5996ZM75.5865 36.5634C78.4611 36.5634 80.3609 34.3057 80.3609 31.688C80.3609 29.0703 78.4611 26.8193 75.5865 26.8193C72.7118 26.8193 70.8087 29.0703 70.8087 31.688C70.8087 34.3057 72.7118 36.5634 75.5865 36.5634ZM75.5865 43C69.6209 43 64.364 38.2894 64.364 31.688C64.3555 30.1968 64.6403 28.7188 65.2017 27.3399C65.7631 25.961 66.59 24.7088 67.6342 23.6559C68.6784 22.603 69.9192 21.7706 71.2844 21.2069C72.6496 20.6433 74.1119 20.3597 75.5865 20.3727C77.0609 20.3601 78.523 20.644 79.888 21.2078C81.253 21.7717 82.4936 22.6041 83.5377 23.6569C84.5819 24.7097 85.4088 25.9618 85.9703 27.3405C86.5319 28.7192 86.817 30.1969 86.809 31.688C86.809 38.2995 81.5487 43 75.5865 43ZM35.3078 33.3636V20.8571L28.8598 20.8538V33.6395C28.8598 37.0344 29.7581 39.181 31.2187 40.7052C31.9393 41.4386 32.8001 42.0158 33.7485 42.4016C34.6969 42.7875 35.7132 42.9739 36.7352 42.9495C37.7277 42.9412 38.7083 42.7311 39.6189 42.3317C40.5294 41.9323 41.3512 41.3517 42.0353 40.6245L42.1784 42.5995H48.4468V20.8571H41.9921V32.4921C41.9921 34.3191 41.7059 35.3386 41.0405 36.0957C40.7104 36.4609 40.3052 36.7486 39.8534 36.9387C39.4017 37.1287 38.9142 37.2165 38.4254 37.1959C37.6426 37.2154 36.8829 36.9271 36.306 36.3917C35.6405 35.7626 35.3078 34.8272 35.3078 33.3636ZM57.58 20.8571V24.4876C58.1173 23.3257 58.9669 22.3401 60.0318 21.6434C61.0967 20.9467 62.334 20.567 63.6022 20.5476V26.8765C61.7855 27.001 60.4214 27.499 59.4965 28.4579C58.4983 29.4673 58.0159 30.9511 58.0159 33.3535V42.5894H51.5678V20.8571H57.58ZM94.9473 24.4876V20.8571H88.9418V42.5894H95.3865V33.3535C95.3865 30.9511 95.8689 29.4673 96.8671 28.4579C97.792 27.499 99.1529 27.001 100.979 26.8765V20.5476C99.7098 20.5663 98.471 20.9456 97.4043 21.6423C96.3377 22.339 95.4863 23.3249 94.9473 24.4876Z" fill="white"/>
<path d="M164.487 18.08C167.478 18.6195 170.231 20.0628 172.377 22.2156C175.176 25.0285 176.748 28.8367 176.748 32.8066C176.748 36.7765 175.176 40.5847 172.377 43.3976C169.566 46.199 165.76 47.7719 161.792 47.7719C157.825 47.7719 154.019 46.199 151.208 43.3976C148.409 40.5847 146.837 36.7765 146.837 32.8066C146.837 28.8367 148.409 25.0285 151.208 22.2156C151.869 21.5553 152.392 20.7712 152.75 19.9083C153.107 19.0453 153.291 18.1203 153.291 17.1861C153.291 16.252 153.107 15.327 152.75 14.464C152.392 13.601 151.869 12.817 151.208 12.1566C149.875 10.8241 148.068 10.0755 146.184 10.0755C144.299 10.0755 142.492 10.8241 141.159 12.1566C140.499 12.817 139.975 13.601 139.617 14.464C139.26 15.327 139.076 16.252 139.076 17.1861C139.076 18.1203 139.26 19.0453 139.617 19.9083C139.975 20.7712 140.499 21.5553 141.159 22.2156C142.343 23.3984 143.908 24.1218 145.575 24.2568C145.99 23.459 146.464 22.6941 146.995 21.9688C146.231 22.0982 145.447 22.0428 144.708 21.8072C143.969 21.5717 143.298 21.1628 142.749 20.6147C141.838 19.7007 141.326 18.4622 141.326 17.1711C141.326 15.88 141.838 14.6416 142.749 13.7275C143.662 12.8177 144.898 12.307 146.187 12.307C147.476 12.307 148.712 12.8177 149.625 13.7275C150.537 14.6412 151.049 15.8798 151.049 17.1711C151.049 18.4625 150.537 19.7011 149.625 20.6147C146.406 23.8473 144.598 28.2248 144.598 32.7883C144.598 37.3518 146.406 41.7292 149.625 44.9618C152.856 48.1881 157.234 50 161.799 50C166.364 50 170.742 48.1881 173.973 44.9618C177.192 41.7292 179 37.3518 179 32.7883C179 28.2248 177.192 23.8473 173.973 20.6147C171.398 18.0321 168.065 16.3401 164.461 15.7854C164.52 16.5443 164.531 17.3063 164.494 18.0666L164.487 18.08ZM137.989 8.96484C140.166 6.79112 143.115 5.57028 146.19 5.57028C149.265 5.57028 152.215 6.79112 154.391 8.96484C156.564 11.1433 157.784 14.0952 157.784 17.1728C157.784 20.2504 156.564 23.2023 154.391 25.3808C152.429 27.3479 151.327 30.0138 151.327 32.7933C151.327 35.5727 152.429 38.2386 154.391 40.2058C156.359 42.1679 159.023 43.2697 161.801 43.2697C164.579 43.2697 167.243 42.1679 169.21 40.2058C171.17 38.2373 172.271 35.5719 172.271 32.7933C172.271 30.0146 171.17 27.3492 169.21 25.3808C167.718 23.885 165.807 22.8778 163.731 22.4925C163.514 23.2245 163.248 23.9409 162.934 24.637C164.709 24.8836 166.354 25.7034 167.62 26.9717C169.167 28.5197 170.036 30.6192 170.036 32.8083C170.036 34.9974 169.167 37.0969 167.62 38.6449C166.075 40.1863 163.983 41.0518 161.801 41.0518C159.619 41.0518 157.526 40.1863 155.981 38.6449C155.215 37.8789 154.606 36.9691 154.191 35.9675C153.776 34.966 153.563 33.8925 153.563 32.8083C153.563 31.7241 153.776 30.6505 154.191 29.649C154.606 28.6475 155.215 27.7377 155.981 26.9717C158.573 24.3719 160.028 20.8498 160.028 17.1778C160.028 13.5058 158.573 9.98368 155.981 7.38395C153.383 4.78884 149.863 3.33128 146.192 3.33128C142.521 3.33128 139 4.78884 136.403 7.38395C133.808 9.98195 132.35 13.5047 132.35 17.1778C132.35 20.8509 133.808 24.3737 136.403 26.9717C138.353 28.9396 140.854 30.2698 143.575 30.7871C143.654 30.0418 143.78 29.3021 143.952 28.5726C141.687 28.1362 139.605 27.0288 137.976 25.3941C135.803 23.2157 134.583 20.2638 134.583 17.1861C134.583 14.1085 135.803 11.1566 137.976 8.97818L137.989 8.96484ZM143.492 31.9278C140.5 31.3877 137.745 29.9446 135.596 27.7921C132.796 24.9793 131.224 21.1711 131.224 17.2012C131.224 13.2312 132.796 9.42304 135.596 6.61018C138.407 3.80875 142.213 2.23588 146.18 2.23588C150.148 2.23588 153.953 3.80875 156.765 6.61018C159.569 9.42045 161.144 13.2296 161.144 17.2012C161.144 21.1727 159.569 24.9819 156.765 27.7921C155.434 29.1275 154.687 30.9361 154.687 32.8216C154.687 34.7071 155.434 36.5158 156.765 37.8511C158.099 39.1841 159.907 39.9328 161.792 39.9328C163.678 39.9328 165.486 39.1841 166.82 37.8511C168.152 36.5166 168.901 34.7077 168.901 32.8216C168.901 30.9356 168.152 29.1266 166.82 27.7921C165.64 26.6067 164.077 25.8797 162.411 25.741C161.993 26.5359 161.519 27.2994 160.991 28.0256C161.755 27.8929 162.539 27.9454 163.279 28.1787C164.018 28.4119 164.691 28.8192 165.241 29.3663C165.694 29.8189 166.053 30.3565 166.298 30.9482C166.544 31.54 166.67 32.1743 166.67 32.815C166.67 33.4556 166.544 34.0899 166.298 34.6817C166.053 35.2734 165.694 35.811 165.241 36.2636C164.328 37.1752 163.091 37.6872 161.801 37.6872C160.511 37.6872 159.274 37.1752 158.361 36.2636C157.45 35.35 156.938 34.1122 156.938 32.8216C156.938 31.5311 157.45 30.2932 158.361 29.3797C161.58 26.1471 163.388 21.7697 163.388 17.2062C163.388 12.6427 161.58 8.26519 158.361 5.03263C155.131 1.80981 150.756 0 146.195 0C141.634 0 137.259 1.80981 134.029 5.03263C130.809 8.26433 129 12.6421 129 17.2062C129 21.7702 130.809 26.148 134.029 29.3797C136.605 31.961 139.936 33.6528 143.539 34.2091C143.482 33.4489 143.472 32.6859 143.509 31.9245L143.492 31.9278ZM145.065 25.3541C143.29 25.1056 141.644 24.2862 140.376 23.0194C138.837 21.4719 137.973 19.3776 137.973 17.1945C137.973 15.0113 138.837 12.917 140.376 11.3695C141.921 9.82697 144.015 8.96071 146.199 8.96071C148.382 8.96071 150.476 9.82697 152.022 11.3695C153.561 12.9166 154.426 15.0111 154.426 17.1945C154.426 19.3779 153.561 21.4724 152.022 23.0194C149.43 25.6192 147.974 29.1413 147.974 32.8133C147.974 36.4853 149.43 40.0074 152.022 42.6071C154.619 45.1932 158.135 46.6444 161.799 46.6432C165.463 46.6419 168.978 45.1883 171.573 42.6005C174.165 40.0008 175.621 36.4786 175.621 32.8066C175.621 29.1346 174.165 25.6125 171.573 23.0128C169.615 21.0498 167.111 19.7226 164.387 19.2039C164.304 19.9479 164.177 20.6862 164.007 21.4152C166.276 21.8507 168.362 22.9567 169.997 24.5903C172.169 26.7682 173.389 29.7196 173.389 32.7966C173.389 35.8737 172.169 38.825 169.997 41.0029C167.82 43.1777 164.87 44.3991 161.794 44.3991C158.718 44.3991 155.768 43.1777 153.591 41.0029C151.419 38.825 150.199 35.8737 150.199 32.7966C150.199 29.7196 151.419 26.7682 153.591 24.5903C155.552 22.6223 156.653 19.9567 156.653 17.1778C156.653 14.3989 155.552 11.7333 153.591 9.7653C151.625 7.80155 148.96 6.69866 146.182 6.69866C143.404 6.69866 140.739 7.80155 138.772 9.7653C136.812 11.7333 135.711 14.3989 135.711 17.1778C135.711 19.9567 136.812 22.6223 138.772 24.5903C140.261 26.0869 142.168 27.0964 144.242 27.4853C144.463 26.7542 144.73 26.0379 145.042 25.3407" fill="white"/>
</svg>
