<svg width="190" height="38" viewBox="0 0 190 38" fill="none" xmlns="http://www.w3.org/2000/svg">
<path d="M9.86387 6.56863C10.7316 6.81699 11.396 7.22222 11.857 7.78431C12.318 8.34641 12.5485 9.03922 12.5485 9.86275C12.5485 11.0784 12.0671 12.0261 11.1045 12.7059C10.1554 13.3856 8.79274 13.7255 7.01657 13.7255H0V0H6.63015C8.2843 0 9.57236 0.30719 10.4943 0.921568C11.4163 1.53595 11.8773 2.41177 11.8773 3.54902C11.8773 4.22876 11.7011 4.83007 11.3485 5.35294C10.996 5.86275 10.5011 6.26797 9.86387 6.56863ZM3.2744 5.68627H6.34542C7.06403 5.68627 7.60637 5.54902 7.97245 5.27451C8.33853 4.98693 8.52157 4.56863 8.52157 4.01961C8.52157 3.48366 8.33175 3.0719 7.95211 2.78431C7.58603 2.49673 7.05047 2.35294 6.34542 2.35294H3.2744V5.68627ZM6.89454 11.3726C8.44022 11.3726 9.21306 10.7843 9.21306 9.60784C9.21306 8.47059 8.44022 7.90196 6.89454 7.90196H3.2744V11.3726H6.89454Z" fill="white"/>
<path d="M20.0352 13.8824C18.8827 13.8824 17.8455 13.6536 16.9235 13.1961C16.0151 12.7255 15.3033 12.0784 14.788 11.2549C14.2728 10.4314 14.0152 9.49673 14.0152 8.45098C14.0152 7.40523 14.2728 6.47059 14.788 5.64706C15.3033 4.82353 16.0151 4.18301 16.9235 3.72549C17.8455 3.2549 18.8827 3.01961 20.0352 3.01961C21.1877 3.01961 22.2181 3.2549 23.1266 3.72549C24.035 4.18301 24.7468 4.82353 25.262 5.64706C25.7773 6.47059 26.0349 7.40523 26.0349 8.45098C26.0349 9.49673 25.7773 10.4314 25.262 11.2549C24.7468 12.0784 24.035 12.7255 23.1266 13.1961C22.2181 13.6536 21.1877 13.8824 20.0352 13.8824ZM20.0352 11.3726C20.8487 11.3726 21.5131 11.1111 22.0283 10.5882C22.5571 10.0523 22.8215 9.33987 22.8215 8.45098C22.8215 7.56209 22.5571 6.85621 22.0283 6.33333C21.5131 5.79739 20.8487 5.52941 20.0352 5.52941C19.2217 5.52941 18.5505 5.79739 18.0217 6.33333C17.493 6.85621 17.2286 7.56209 17.2286 8.45098C17.2286 9.33987 17.493 10.0523 18.0217 10.5882C18.5505 11.1111 19.2217 11.3726 20.0352 11.3726Z" fill="white"/>
<path d="M38.5525 3.17647V13.7255H35.3798V5.68627H31.9224L31.8207 7.54902C31.7665 8.93464 31.6309 10.085 31.4139 11C31.197 11.915 30.8445 12.634 30.3564 13.1569C29.8682 13.6797 29.1903 13.9412 28.3226 13.9412C27.8616 13.9412 27.3125 13.8627 26.6752 13.7059L26.8379 11.1961C27.0548 11.2222 27.2108 11.2353 27.3057 11.2353C27.7802 11.2353 28.1327 11.0719 28.3632 10.7451C28.6073 10.4052 28.77 9.98039 28.8514 9.47059C28.9327 8.94771 28.9937 8.26144 29.0344 7.41176L29.1971 3.17647H38.5525Z" fill="white"/>
<path d="M46.7287 13.8824C45.5762 13.8824 44.539 13.6536 43.617 13.1961C42.7085 12.7255 41.9967 12.0784 41.4815 11.2549C40.9663 10.4314 40.7087 9.49673 40.7087 8.45098C40.7087 7.40523 40.9663 6.47059 41.4815 5.64706C41.9967 4.82353 42.7085 4.18301 43.617 3.72549C44.539 3.2549 45.5762 3.01961 46.7287 3.01961C47.8812 3.01961 48.9116 3.2549 49.82 3.72549C50.7285 4.18301 51.4403 4.82353 51.9555 5.64706C52.4707 6.47059 52.7283 7.40523 52.7283 8.45098C52.7283 9.49673 52.4707 10.4314 51.9555 11.2549C51.4403 12.0784 50.7285 12.7255 49.82 13.1961C48.9116 13.6536 47.8812 13.8824 46.7287 13.8824ZM46.7287 11.3726C47.5422 11.3726 48.2066 11.1111 48.7218 10.5882C49.2506 10.0523 49.515 9.33987 49.515 8.45098C49.515 7.56209 49.2506 6.85621 48.7218 6.33333C48.2066 5.79739 47.5422 5.52941 46.7287 5.52941C45.9152 5.52941 45.244 5.79739 44.7152 6.33333C44.1864 6.85621 43.922 7.56209 43.922 8.45098C43.922 9.33987 44.1864 10.0523 44.7152 10.5882C45.244 11.1111 45.9152 11.3726 46.7287 11.3726Z" fill="white"/>
<path d="M63.6762 5.68627H58.0629V13.7255H54.9105V3.17647H63.6762V5.68627Z" fill="white"/>
<path d="M70.0259 13.8824C68.8734 13.8824 67.8362 13.6536 66.9142 13.1961C66.0058 12.7255 65.2939 12.0784 64.7787 11.2549C64.2635 10.4314 64.0059 9.49673 64.0059 8.45098C64.0059 7.40523 64.2635 6.47059 64.7787 5.64706C65.2939 4.82353 66.0058 4.18301 66.9142 3.72549C67.8362 3.2549 68.8734 3.01961 70.0259 3.01961C71.1784 3.01961 72.2088 3.2549 73.1172 3.72549C74.0257 4.18301 74.7375 4.82353 75.2527 5.64706C75.7679 6.47059 76.0256 7.40523 76.0256 8.45098C76.0256 9.49673 75.7679 10.4314 75.2527 11.2549C74.7375 12.0784 74.0257 12.7255 73.1172 13.1961C72.2088 13.6536 71.1784 13.8824 70.0259 13.8824ZM70.0259 11.3726C70.8394 11.3726 71.5038 11.1111 72.019 10.5882C72.5478 10.0523 72.8122 9.33987 72.8122 8.45098C72.8122 7.56209 72.5478 6.85621 72.019 6.33333C71.5038 5.79739 70.8394 5.52941 70.0259 5.52941C69.2124 5.52941 68.5412 5.79739 68.0124 6.33333C67.4836 6.85621 67.2192 7.56209 67.2192 8.45098C67.2192 9.33987 67.4836 10.0523 68.0124 10.5882C68.5412 11.1111 69.2124 11.3726 70.0259 11.3726Z" fill="white"/>
<path d="M90.3126 11.2157V16H87.3636V13.7255H79.6759V16H76.7269V11.2157H77.1743C77.8522 11.2026 78.32 10.817 78.5776 10.0588C78.8353 9.30065 78.998 8.22222 79.0657 6.82353L79.2081 3.17647H88.7466V11.2157H90.3126ZM81.9334 7.03922C81.8927 8.11111 81.8046 8.98693 81.669 9.66667C81.547 10.3464 81.3097 10.8627 80.9572 11.2157H85.5739V5.68627H81.9944L81.9334 7.03922Z" fill="white"/>
<path d="M97.5157 13.8824C96.3497 13.8824 95.2989 13.6536 94.3633 13.1961C93.4413 12.7255 92.716 12.0784 92.1872 11.2549C91.672 10.4314 91.4143 9.49673 91.4143 8.45098C91.4143 7.40523 91.672 6.47059 92.1872 5.64706C92.716 4.82353 93.4413 4.18301 94.3633 3.72549C95.2989 3.2549 96.3497 3.01961 97.5157 3.01961C98.6682 3.01961 99.6715 3.2549 100.526 3.72549C101.393 4.18301 102.024 4.84314 102.417 5.70588L99.9562 6.98039C99.3868 6.01307 98.5665 5.52941 97.4954 5.52941C96.6683 5.52941 95.9836 5.79085 95.4412 6.31373C94.8989 6.8366 94.6277 7.54902 94.6277 8.45098C94.6277 9.35294 94.8989 10.0654 95.4412 10.5882C95.9836 11.1111 96.6683 11.3726 97.4954 11.3726C98.5801 11.3726 99.4003 10.8889 99.9562 9.92157L102.417 11.2157C102.024 12.0523 101.393 12.7059 100.526 13.1765C99.6715 13.6471 98.6682 13.8824 97.5157 13.8824Z" fill="white"/>
<path d="M109.165 9.72549H107.518V13.7255H104.345V3.17647H107.518V7.27451H109.226L112.196 3.17647H115.572L111.748 8.23529L115.836 13.7255H112.094L109.165 9.72549Z" fill="white"/>
<path d="M122.181 13.8824C121.029 13.8824 119.992 13.6536 119.07 13.1961C118.161 12.7255 117.449 12.0784 116.934 11.2549C116.419 10.4314 116.161 9.49673 116.161 8.45098C116.161 7.40523 116.419 6.47059 116.934 5.64706C117.449 4.82353 118.161 4.18301 119.07 3.72549C119.992 3.2549 121.029 3.01961 122.181 3.01961C123.334 3.01961 124.364 3.2549 125.273 3.72549C126.181 4.18301 126.893 4.82353 127.408 5.64706C127.923 6.47059 128.181 7.40523 128.181 8.45098C128.181 9.49673 127.923 10.4314 127.408 11.2549C126.893 12.0784 126.181 12.7255 125.273 13.1961C124.364 13.6536 123.334 13.8824 122.181 13.8824ZM122.181 11.3726C122.995 11.3726 123.659 11.1111 124.175 10.5882C124.703 10.0523 124.968 9.33987 124.968 8.45098C124.968 7.56209 124.703 6.85621 124.175 6.33333C123.659 5.79739 122.995 5.52941 122.181 5.52941C121.368 5.52941 120.697 5.79739 120.168 6.33333C119.639 6.85621 119.375 7.56209 119.375 8.45098C119.375 9.33987 119.639 10.0523 120.168 10.5882C120.697 11.1111 121.368 11.3726 122.181 11.3726Z" fill="white"/>
<path d="M141 8.4902C141 8.52941 140.98 8.80392 140.939 9.31373H132.661C132.811 9.96732 133.163 10.4837 133.719 10.8627C134.275 11.2418 134.966 11.4314 135.794 11.4314C136.363 11.4314 136.865 11.3529 137.299 11.1961C137.746 11.0261 138.159 10.7647 138.539 10.4118L140.227 12.1765C139.197 13.3137 137.692 13.8824 135.712 13.8824C134.478 13.8824 133.387 13.6536 132.438 13.1961C131.489 12.7255 130.756 12.0784 130.241 11.2549C129.726 10.4314 129.468 9.49673 129.468 8.45098C129.468 7.4183 129.719 6.4902 130.221 5.66667C130.736 4.83007 131.434 4.18301 132.316 3.72549C133.211 3.2549 134.207 3.01961 135.305 3.01961C136.377 3.01961 137.346 3.24183 138.214 3.68628C139.081 4.13072 139.759 4.77124 140.248 5.60784C140.749 6.43137 141 7.39216 141 8.4902ZM135.326 5.33333C134.607 5.33333 134.004 5.52941 133.516 5.92157C133.028 6.31373 132.729 6.84967 132.621 7.52941H138.01C137.902 6.86275 137.604 6.33333 137.115 5.94118C136.627 5.53595 136.031 5.33333 135.326 5.33333Z" fill="white"/>
<path d="M3.32139 28C4.3217 28 5.08892 28.2394 5.62306 28.7182C6.15721 29.1878 6.42428 29.8877 6.42428 30.8177V35.3204H5.43368V34.1878C5.2006 34.5654 4.85584 34.86 4.39939 35.0718C3.95265 35.2836 3.41851 35.3895 2.79696 35.3895C1.94234 35.3895 1.26252 35.1961 0.757511 34.8094C0.252504 34.4227 0 33.9116 0 33.2762C0 32.6593 0.23308 32.1621 0.699241 31.7845C1.17511 31.407 1.92777 31.2182 2.95721 31.2182H5.38998V30.7762C5.38998 30.1501 5.20546 29.6759 4.83642 29.3536C4.46737 29.0221 3.92837 28.8564 3.21942 28.8564C2.73384 28.8564 2.26768 28.9346 1.82094 29.0912C1.3742 29.2385 0.990591 29.4457 0.670106 29.7127L0.203945 28.9807C0.592412 28.6676 1.05857 28.4282 1.60243 28.2624C2.14628 28.0875 2.71927 28 3.32139 28ZM2.95721 34.616C3.53991 34.616 4.04006 34.4917 4.45766 34.2431C4.87526 33.9853 5.18604 33.6169 5.38998 33.1381V31.9503H2.98634C1.67526 31.9503 1.01973 32.3831 1.01973 33.2486C1.01973 33.6722 1.18968 34.0083 1.52959 34.2569C1.8695 34.4963 2.34537 34.616 2.95721 34.616Z" fill="white"/>
<path d="M14.0578 31.5635C15.0969 31.7937 15.6165 32.3877 15.6165 33.3453C15.6165 33.9807 15.3688 34.4687 14.8735 34.8094C14.3783 35.1501 13.6402 35.3204 12.6593 35.3204H9.17765V28.0552H12.5573C13.4314 28.0552 14.116 28.2164 14.6113 28.5387C15.1066 28.861 15.3543 29.3214 15.3543 29.9199C15.3543 30.3158 15.2377 30.6565 15.0047 30.942C14.7813 31.2182 14.4657 31.4254 14.0578 31.5635ZM10.1828 31.2873H12.4845C13.0769 31.2873 13.5285 31.1814 13.8393 30.9696C14.1597 30.7578 14.32 30.4494 14.32 30.0442C14.32 29.639 14.1597 29.3352 13.8393 29.1326C13.5285 28.93 13.0769 28.8287 12.4845 28.8287H10.1828V31.2873ZM12.6156 34.547C13.276 34.547 13.7713 34.4457 14.1015 34.2431C14.4317 34.0405 14.5968 33.7228 14.5968 33.2901C14.5968 32.8573 14.4462 32.5396 14.1452 32.337C13.8441 32.1252 13.3682 32.0193 12.7176 32.0193H10.1828V34.547H12.6156Z" fill="white"/>
<path d="M18.0405 28.0552H19.0748V33.8287L24.188 28.0552H25.1057V35.3204H24.0715V29.547L18.9728 35.3204H18.0405V28.0552Z" fill="white"/>
<path d="M30.7066 28C31.7069 28 32.4741 28.2394 33.0083 28.7182C33.5424 29.1878 33.8095 29.8877 33.8095 30.8177V35.3204H32.8189V34.1878C32.5858 34.5654 32.2411 34.86 31.7846 35.0718C31.3379 35.2836 30.8037 35.3895 30.1822 35.3895C29.3276 35.3895 28.6477 35.1961 28.1427 34.8094C27.6377 34.4227 27.3852 33.9116 27.3852 33.2762C27.3852 32.6593 27.6183 32.1621 28.0845 31.7845C28.5603 31.407 29.313 31.2182 30.3424 31.2182H32.7752V30.7762C32.7752 30.1501 32.5907 29.6759 32.2216 29.3536C31.8526 29.0221 31.3136 28.8564 30.6046 28.8564C30.1191 28.8564 29.6529 28.9346 29.2062 29.0912C28.7594 29.2385 28.3758 29.4457 28.0553 29.7127L27.5892 28.9807C27.9776 28.6676 28.4438 28.4282 28.9877 28.2624C29.5315 28.0875 30.1045 28 30.7066 28ZM30.3424 34.616C30.9251 34.616 31.4253 34.4917 31.8429 34.2431C32.2605 33.9853 32.5713 33.6169 32.7752 33.1381V31.9503H30.3716C29.0605 31.9503 28.405 32.3831 28.405 33.2486C28.405 33.6722 28.5749 34.0083 28.9148 34.2569C29.2547 34.4963 29.7306 34.616 30.3424 34.616Z" fill="white"/>
<path d="M43.4387 28.0552V35.3204H42.4044V28.9254H37.5972V35.3204H36.5629V28.0552H43.4387Z" fill="white"/>
<path d="M50.3267 28C51.0453 28 51.696 28.1565 52.2787 28.4696C52.8614 28.7735 53.3179 29.2063 53.6481 29.768C53.9783 30.3297 54.1434 30.9696 54.1434 31.6878C54.1434 32.4153 53.9783 33.0599 53.6481 33.6215C53.3179 34.1832 52.8614 34.6206 52.2787 34.9337C51.7057 35.2376 51.0551 35.3895 50.3267 35.3895C49.7051 35.3895 49.1418 35.2698 48.6368 35.0304C48.1415 34.7818 47.7337 34.4227 47.4132 33.953V38H46.3789V28.0552H47.3695V29.4917C47.6802 29.0129 48.0881 28.6446 48.5931 28.3867C49.1079 28.1289 49.6857 28 50.3267 28ZM50.2538 34.5193C50.788 34.5193 51.2736 34.4042 51.7106 34.174C52.1476 33.9346 52.4875 33.5985 52.7303 33.1657C52.9828 32.733 53.1091 32.2403 53.1091 31.6878C53.1091 31.1354 52.9828 30.6473 52.7303 30.2238C52.4875 29.791 52.1476 29.4549 51.7106 29.2155C51.2736 28.9761 50.788 28.8564 50.2538 28.8564C49.71 28.8564 49.2195 28.9761 48.7825 29.2155C48.3552 29.4549 48.0153 29.791 47.7628 30.2238C47.52 30.6473 47.3986 31.1354 47.3986 31.6878C47.3986 32.2403 47.52 32.733 47.7628 33.1657C48.0153 33.5985 48.3552 33.9346 48.7825 34.174C49.2195 34.4042 49.71 34.5193 50.2538 34.5193Z" fill="white"/>
<path d="M63.0667 31.9917H56.6569C56.7152 32.7468 57.0211 33.3591 57.5747 33.8287C58.1283 34.2891 58.8275 34.5193 59.6724 34.5193C60.1483 34.5193 60.5853 34.4411 60.9835 34.2845C61.3817 34.1188 61.7264 33.8794 62.0178 33.5663L62.6005 34.2017C62.2606 34.5884 61.8333 34.8831 61.3186 35.0856C60.8135 35.2882 60.2551 35.3895 59.6433 35.3895C58.8566 35.3895 58.1574 35.233 57.5456 34.9199C56.9434 34.5976 56.4724 34.1556 56.1325 33.5939C55.7926 33.0322 55.6227 32.3969 55.6227 31.6878C55.6227 30.9788 55.7829 30.3435 56.1034 29.7818C56.4336 29.2201 56.8803 28.7827 57.4436 28.4696C58.0166 28.1565 58.6576 28 59.3665 28C60.0755 28 60.7116 28.1565 61.2749 28.4696C61.8381 28.7827 62.28 29.2201 62.6005 29.7818C62.921 30.3343 63.0812 30.9696 63.0812 31.6878L63.0667 31.9917ZM59.3665 28.8425C58.6284 28.8425 58.0069 29.0681 57.5019 29.5193C57.0066 29.9613 56.7249 30.5414 56.6569 31.2597H62.0906C62.0226 30.5414 61.7362 29.9613 61.2311 29.5193C60.7359 29.0681 60.1143 28.8425 59.3665 28.8425Z" fill="white"/>
<path d="M72.6874 34.4641V37.0746H71.7113V35.3204H64.85V37.0746H63.874V34.4641H64.311C64.8258 34.4365 65.1754 34.0773 65.3599 33.3867C65.5444 32.6961 65.6707 31.7293 65.7387 30.4862L65.8406 28.0552H71.4928V34.4641H72.6874ZM66.6855 30.5414C66.637 31.5727 66.5447 32.4245 66.4088 33.0967C66.2728 33.7597 66.03 34.2155 65.6804 34.4641H70.4585V28.9254H66.7729L66.6855 30.5414Z" fill="white"/>
<path d="M81.5789 28.0552V35.3204H80.5446V28.9254H75.7373V35.3204H74.703V28.0552H81.5789Z" fill="white"/>
<path d="M88.4668 28C89.1855 28 89.8362 28.1565 90.4189 28.4696C91.0016 28.7735 91.458 29.2063 91.7882 29.768C92.1184 30.3297 92.2835 30.9696 92.2835 31.6878C92.2835 32.4153 92.1184 33.0599 91.7882 33.6215C91.458 34.1832 91.0016 34.6206 90.4189 34.9337C89.8459 35.2376 89.1952 35.3895 88.4668 35.3895C87.8453 35.3895 87.282 35.2698 86.777 35.0304C86.2817 34.7818 85.8738 34.4227 85.5533 33.953V38H84.519V28.0552H85.5096V29.4917C85.8204 29.0129 86.2283 28.6446 86.7333 28.3867C87.248 28.1289 87.8259 28 88.4668 28ZM88.394 34.5193C88.9281 34.5193 89.4137 34.4042 89.8507 34.174C90.2878 33.9346 90.6277 33.5985 90.8705 33.1657C91.123 32.733 91.2492 32.2403 91.2492 31.6878C91.2492 31.1354 91.123 30.6473 90.8705 30.2238C90.6277 29.791 90.2878 29.4549 89.8507 29.2155C89.4137 28.9761 88.9281 28.8564 88.394 28.8564C87.8501 28.8564 87.3597 28.9761 86.9227 29.2155C86.4954 29.4549 86.1554 29.791 85.9029 30.2238C85.6602 30.6473 85.5388 31.1354 85.5388 31.6878C85.5388 32.2403 85.6602 32.733 85.9029 33.1657C86.1554 33.5985 86.4954 33.9346 86.9227 34.174C87.3597 34.4042 87.8501 34.5193 88.394 34.5193Z" fill="white"/>
<path d="M94.5058 28.0552H95.54V33.8287L100.653 28.0552H101.571V35.3204H100.537V29.547L95.4381 35.3204H94.5058V28.0552Z" fill="white"/>
<path d="M110.42 28.0552V35.3204H109.474V32.9171H107.07H106.779L105.001 35.3204H103.88L105.788 32.779C105.196 32.6225 104.739 32.3554 104.419 31.9779C104.098 31.6004 103.938 31.1215 103.938 30.5414C103.938 29.7311 104.229 29.1142 104.812 28.6906C105.395 28.267 106.191 28.0552 107.201 28.0552H110.42ZM104.987 30.5691C104.987 31.6464 105.71 32.1851 107.157 32.1851H109.474V28.9254H107.23C105.735 28.9254 104.987 29.4733 104.987 30.5691Z" fill="white"/>
<path d="M118.76 28.9254H115.861V35.3204H114.826V28.9254H111.927V28.0552H118.76V28.9254Z" fill="white"/>
<path d="M120.255 28.0552H121.289V33.8287L126.402 28.0552H127.32V35.3204H126.286V29.547L121.187 35.3204H120.255V28.0552Z" fill="white"/>
<path d="M136.985 31.9917H130.576C130.634 32.7468 130.94 33.3591 131.493 33.8287C132.047 34.2891 132.746 34.5193 133.591 34.5193C134.067 34.5193 134.504 34.4411 134.902 34.2845C135.3 34.1188 135.645 33.8794 135.937 33.5663L136.519 34.2017C136.179 34.5884 135.752 34.8831 135.237 35.0856C134.732 35.2882 134.174 35.3895 133.562 35.3895C132.775 35.3895 132.076 35.233 131.464 34.9199C130.862 34.5976 130.391 34.1556 130.051 33.5939C129.711 33.0322 129.541 32.3969 129.541 31.6878C129.541 30.9788 129.702 30.3435 130.022 29.7818C130.352 29.2201 130.799 28.7827 131.362 28.4696C131.935 28.1565 132.576 28 133.285 28C133.994 28 134.63 28.1565 135.194 28.4696C135.757 28.7827 136.199 29.2201 136.519 29.7818C136.84 30.3343 137 30.9696 137 31.6878L136.985 31.9917ZM133.285 28.8425C132.547 28.8425 131.926 29.0681 131.421 29.5193C130.925 29.9613 130.644 30.5414 130.576 31.2597H136.009C135.941 30.5414 135.655 29.9613 135.15 29.5193C134.655 29.0681 134.033 28.8425 133.285 28.8425Z" fill="white"/>
<path fill-rule="evenodd" clip-rule="evenodd" d="M154.073 1.18994C154.074 2.8798 154.127 3.09737 154.611 3.39445C154.894 3.56774 154.752 3.56432 160.701 3.54119C166.962 3.51683 166.404 3.49522 167.21 3.79381C168.908 4.42344 171.092 6.13661 171.092 6.83908V6.93406L166.642 6.95751C164.194 6.97041 160.881 6.98127 159.278 6.98162C154.197 6.98279 153.747 7.2695 154.139 10.2599C154.45 12.6364 156.242 14.8043 158.727 15.8108C158.854 15.8622 158.99 15.9189 159.029 15.9367C159.6 16.1967 160.833 16.4816 161.925 16.6059C162.116 16.6277 167.325 16.6405 176.096 16.6409L189.965 16.6415L189.793 16.5079C189.698 16.4344 189.445 16.2406 189.23 16.0773C189.015 15.914 188.504 15.5253 188.093 15.2135C186.926 14.3264 185.966 13.5965 185.908 13.5504C185.815 13.4771 185.148 12.9687 184.736 12.6574C184.518 12.4926 184.305 12.3309 184.262 12.298C184.119 12.1873 183.332 11.587 182.387 10.8681C181.871 10.4754 180.85 9.69754 180.117 9.13949C179.384 8.58147 178.576 7.96749 178.322 7.77509C178.068 7.58273 177.845 7.41215 177.825 7.39607C177.781 7.35979 177.22 6.93254 175.037 5.271C174.094 4.55351 173.293 3.94267 173.256 3.91358C173.219 3.8845 173.121 3.80908 173.038 3.746C172.885 3.63061 171.933 2.9074 171.767 2.78157C171.718 2.74444 171.446 2.53664 171.163 2.3198C169.674 1.18014 169.263 0.891521 168.793 0.655296C168.018 0.266229 167.662 0.170611 166.488 0.0367383C166.277 0.0126574 164.085 0 160.12 0H154.073L154.073 1.18994ZM172.725 7.45665C173.103 7.53559 173.2 7.59891 174.127 8.37035C174.598 8.76167 175.478 9.49266 176.084 9.99476C176.69 10.4969 177.273 10.9813 177.381 11.0713C177.488 11.1613 177.856 11.4663 178.198 11.749C179.349 12.7 179.539 12.9944 179.122 13.183C178.914 13.277 162.838 13.2679 162.23 13.1733C160.792 12.9498 159.769 12.2677 159.077 11.0709C158.639 10.3127 158.586 9.95323 158.888 9.80159C158.98 9.75561 159.638 9.7463 163.933 9.73037L168.871 9.71207L169.156 9.63323C169.798 9.45511 170.134 9.21642 170.476 8.69623C171.101 7.7447 171.926 7.28988 172.725 7.45665ZM161.037 19.5928C157.442 19.8754 154.949 21.5021 154.244 24.0244C154.001 24.8958 154.021 24.3298 154.01 30.4723L154 36L159.659 35.9888L165.318 35.9776L165.78 35.8828C167.023 35.6276 168.381 35.2153 169.475 34.7609C169.514 34.7447 169.698 34.6691 169.884 34.5929C173.766 33.0007 177.966 30.2558 178.183 29.17C178.245 28.8609 177.477 28.4548 176.387 28.2198C175.999 28.136 175.888 28.1015 175.998 28.0991C177.494 28.0665 178.689 27.6489 180.885 26.3902C181.072 26.2836 181.231 26.1963 181.239 26.1963C181.248 26.1963 181.323 26.1538 181.405 26.1018C181.488 26.0499 181.588 25.9904 181.627 25.9696C181.666 25.9489 181.958 25.7732 182.276 25.5793C182.594 25.3854 182.882 25.2107 182.915 25.1911C182.949 25.1714 183.025 25.125 183.083 25.088C183.142 25.0509 183.27 24.9703 183.368 24.9088C183.785 24.6461 184.225 24.3608 184.824 23.9637C185.818 23.3051 186.003 23.1773 186.885 22.5366C187.12 22.3662 187.378 22.18 187.458 22.1226C189.072 20.9754 190.292 19.7358 189.939 19.6023C189.854 19.5704 161.441 19.5611 161.037 19.5928ZM178.546 22.8892C179.332 23.6688 175.769 25.3368 172.46 25.7382C172.289 25.759 170.449 25.7728 167.849 25.773L163.523 25.7732L163.266 25.8622C162.162 26.2452 160.93 27.9234 160.93 29.0462C160.93 29.0894 161.597 29.0945 165.736 29.0831L170.541 29.0698L170.54 29.3519C170.534 30.584 168.032 32.2705 165.862 32.5053C165.402 32.5551 160.201 32.5558 159.792 32.5062C159.078 32.4195 158.795 32.1682 158.696 31.5289C158.634 31.1349 158.645 24.7561 158.708 24.3806C158.849 23.5332 159.459 23.0144 160.468 22.8818C160.83 22.8343 178.498 22.8415 178.546 22.8892Z" fill="white"/>
</svg>
