<svg width="104" height="44" viewBox="0 0 104 44" fill="none" xmlns="http://www.w3.org/2000/svg">
<path fill-rule="evenodd" clip-rule="evenodd" d="M73.0282 0.0433844H73.0273H73.0263C71.1905 0.0520872 69.3572 0.0607901 67.5065 0C66.1953 5.90956 64.9683 11.847 63.7438 17.7719L63.7429 17.7766L63.7413 17.784L63.7374 17.8025C63.2773 20.0288 62.8175 22.2534 62.3538 24.474C61.7695 27.2938 61.3445 31.1245 64.2662 32.827C66.4233 33.8701 68.7887 33.8177 71.1437 33.7655C72.1523 33.7432 73.159 33.7209 74.1465 33.7847C74.2629 33.2163 74.3833 32.6439 74.5055 32.0698C74.6065 31.5951 74.7088 31.1191 74.8111 30.6432C75.0367 29.5932 75.2622 28.5433 75.4745 27.5066C75.1656 27.4477 74.816 27.4418 74.4606 27.4358H74.46C73.5321 27.4203 72.5651 27.4041 72.1811 26.4425C71.8386 25.909 71.9595 25.2663 72.0752 24.6512C72.121 24.4076 72.166 24.1683 72.1811 23.9419C73.0728 19.7831 73.9353 15.6095 74.7993 11.4291C75.5822 7.64091 76.3663 3.84705 77.1744 0.0531913C75.7853 0.030395 74.4061 0.0368897 73.0282 0.0433844ZM32.4472 1.3833C35.7406 -0.478852 40.2027 2.55377 39.8309 6.27807C39.884 10.1088 34.9438 12.6626 31.916 10.3748C28.6226 8.4595 28.9413 2.92624 32.4472 1.3833ZM1.47823 5.85247C0.575153 5.37362 -0.699677 6.70373 0.468939 7.18258C4.10039 9.68692 8.0154 11.6733 11.9429 13.6661C15.0244 15.2296 18.1136 16.797 21.0796 18.6215C23.5762 20.2176 26.604 22.5586 26.1791 25.9105C25.653 29.6865 23.8608 33.1001 22.0861 36.4803C21.7103 37.1961 21.3353 37.9104 20.9733 38.6263C20.5484 39.2115 20.4952 40.5949 21.6108 40.0629C23.5529 39.1344 25.2384 37.7284 26.9108 36.3332C27.0774 36.1943 27.2439 36.0553 27.4105 35.9171C27.5842 35.773 27.7579 35.6295 27.932 35.4872C32.1285 31.7098 36.2188 27.6662 39.2466 22.8779C40.0965 21.5477 41.0527 20.0048 40.9464 18.4619C40.8933 17.3446 40.2559 16.2805 39.3528 15.6421C38.4105 14.923 37.2788 14.6215 36.1495 14.3207C35.9419 14.2655 35.7344 14.2102 35.5282 14.1523C30.4487 12.9398 25.3797 11.6849 20.3119 10.4302L20.2944 10.4259L20.2847 10.4235L20.275 10.4212L20.2652 10.4189L20.2555 10.4165C14.0007 8.86782 7.7476 7.31949 1.47823 5.85247ZM91.0387 10.2685C87.7984 10.3216 84.6112 10.3216 81.3709 10.2685C80.7425 12.9955 80.2133 15.7225 79.6789 18.4757C79.5357 19.2139 79.3921 19.954 79.2461 20.6965C79.1278 21.2885 78.9932 21.8861 78.8576 22.4875C78.2624 25.1284 77.6507 27.8426 78.343 30.4861C78.8211 32.1886 80.4147 33.1995 82.0614 33.572C83.8922 33.884 85.6945 33.8814 87.51 33.8788C88.1703 33.8779 88.8324 33.877 89.4982 33.8912C89.4144 34.1007 89.3369 34.3186 89.2587 34.5386L89.2583 34.5398L89.2579 34.541L89.2575 34.5421C88.9389 35.438 88.6078 36.3692 87.7984 36.9238C87.2014 37.447 86.3947 37.4715 85.6177 37.495H85.6169C85.2879 37.505 84.9644 37.5149 84.6643 37.5623C84.08 39.584 83.6019 41.659 83.2832 43.7872C84.1988 43.7484 85.1363 43.7661 86.0798 43.7839C89.0226 43.8394 92.0234 43.896 94.5978 42.2442C97.785 40.0629 98.688 36.0194 99.4317 32.4546C99.9868 29.6939 100.586 26.9405 101.186 24.1863L101.186 24.1857L101.187 24.1851L101.187 24.1845C102.194 19.5614 103.201 14.9358 104 10.2685C102.555 10.3168 101.099 10.3102 99.6366 10.3037H99.6345H99.6323H99.6302H99.628H99.6267H99.6253H99.6239H99.6226C97.8649 10.2957 96.0985 10.2877 94.3322 10.3748C93.7535 13.5335 93.0645 16.6606 92.3768 19.782C91.8019 22.3913 91.2279 24.9967 90.72 27.613C89.4982 27.5599 87.8515 27.0278 88.064 25.4849C88.492 22.5453 89.1135 19.641 89.7362 16.7314C90.1955 14.5854 90.6554 12.4365 91.0387 10.2685ZM53.589 1.75577C56.9887 0 60.8665 -0.0531913 64.5849 0.0531913C64.2368 1.79649 63.853 3.53979 63.4628 5.31244C63.3766 5.70375 63.2902 6.09648 63.2038 6.49096C62.9071 6.54753 62.5955 6.58156 62.2797 6.61599C61.4082 6.71107 60.506 6.80959 59.8041 7.39541C59.0898 7.94252 58.8075 8.82248 58.5367 9.66673C58.4652 9.88982 58.3944 10.1104 58.3167 10.3216C59.6978 10.3216 61.0258 10.3216 62.4069 10.3748L61.1321 16.1209C59.7509 16.1209 58.4229 16.1209 57.0418 16.2273C56.5581 18.8921 55.9642 21.5459 55.3705 24.1986L55.3702 24.2006C54.6601 27.3732 53.9504 30.5445 53.4297 33.7315C50.9215 33.8911 48.4433 33.8712 45.9501 33.8513C45.1167 33.8446 44.2815 33.8379 43.4431 33.8379C44.5001 29.3683 45.4758 24.8824 46.4511 20.3981L46.4527 20.3913L46.4529 20.3901C47.2417 16.7636 48.0303 13.1383 48.8613 9.52358C49.5519 6.49096 50.8268 3.29871 53.589 1.75577ZM44.0805 42.5634H46.7365L46.7897 43.7872H49.2332L48.0114 36.3386H45.4617L41.0527 43.7872H43.4431L44.0805 42.5634ZM46.3647 38.3071L46.6303 40.9673H44.9836L46.3647 38.3071ZM53.1109 36.3386H51.0393L50.7205 37.7751H52.7922L53.1109 36.3386ZM52.686 38.4135H50.6143L49.4457 43.8404H51.5173L52.686 38.4135ZM52.3673 43.8404L53.5359 38.4135V38.4667H55.3951L55.1826 39.3712C55.4482 38.9988 55.7138 38.7328 55.9263 38.5731C56.1919 38.4135 56.4044 38.3604 56.7231 38.3604C57.0418 38.3604 57.3605 38.4135 57.6793 38.6264L56.7231 40.1161C56.5106 40.0097 56.3513 39.9565 56.1919 39.9565C55.9263 39.9565 55.7138 40.0629 55.5013 40.2757C55.2357 40.5949 54.9701 41.1801 54.8108 42.0314L54.4389 43.8404H52.3673ZM60.5477 36.3386H58.4761L56.8825 43.7872H58.9541L60.5477 36.3386ZM63.5225 36.3386H61.4508L61.1321 37.7219H63.2038L63.5225 36.3386ZM59.8572 43.8404L61.0258 38.4135H63.0975L61.9289 43.8404H59.8572ZM65.8066 38.4135H63.8943L62.6726 43.8936H64.7442L65.2754 41.2866C65.3817 40.8077 65.541 40.4885 65.7535 40.2757C65.966 40.1161 66.1785 40.0097 66.4441 40.0097C66.6566 40.0097 66.8159 40.0629 66.9222 40.2225C67.0284 40.3821 67.0284 40.6481 66.9753 40.9673L66.3378 43.9468H68.4095L69.1532 40.4885C69.3126 39.7437 69.2595 39.2116 68.9939 38.8924C68.7814 38.5199 68.3564 38.3604 67.7721 38.3604C67.3471 38.3604 66.9753 38.4135 66.6566 38.5731C66.2847 38.6796 65.966 38.9456 65.5942 39.318L65.8066 38.4135ZM71.5436 41.6058H75.7401L75.8464 41.4462C76.0057 40.7013 76.0057 40.1161 75.8464 39.6905C75.7401 39.2648 75.4745 38.8924 75.0496 38.6796C74.6777 38.4135 74.0934 38.3071 73.2966 38.3071C72.3404 38.3071 71.4905 38.5731 70.8531 39.1052C70.1625 39.6372 69.7375 40.3289 69.5782 41.1801C69.4188 41.7654 69.4719 42.2974 69.6313 42.7231C69.7906 43.1487 70.0563 43.468 70.4281 43.6808C70.7999 43.8936 71.3311 44 72.0748 44C72.8716 44 73.5622 43.8404 74.0403 43.6275C74.5183 43.4148 74.9964 42.9891 75.4214 42.4571L73.4028 42.2442C73.2435 42.4039 73.0841 42.5103 72.9779 42.5634C72.7654 42.6699 72.5529 42.7231 72.3404 42.7231C72.0217 42.7231 71.8092 42.5634 71.6499 42.3507C71.5436 42.191 71.4905 41.925 71.5436 41.6058ZM73.6684 39.7968C73.8278 39.9565 73.8809 40.2225 73.8278 40.6481H71.7561C71.8623 40.3289 71.9686 40.0629 72.1279 39.9032C72.3935 39.6372 72.7123 39.5308 73.031 39.5308C73.2966 39.5308 73.5091 39.6372 73.6684 39.7968ZM76.1651 43.5743C75.8464 43.2551 75.6339 42.8827 75.6339 42.3507L77.6525 42.0847C77.7056 42.3507 77.8118 42.5103 77.9181 42.6167C78.0774 42.7231 78.2368 42.7763 78.5024 42.7763C78.768 42.7763 79.0336 42.7231 79.1929 42.6167C79.3523 42.5634 79.4054 42.4039 79.4585 42.2974C79.5117 42.191 79.4585 42.0847 79.2992 41.9782C79.1929 41.925 78.9273 41.8718 78.4492 41.7654L78.2921 41.7291C77.6856 41.5893 77.2599 41.4911 77.015 41.393C76.7494 41.2866 76.59 41.127 76.4307 40.8609C76.2713 40.6481 76.2713 40.3289 76.3244 40.0097C76.4307 39.6905 76.59 39.3712 76.8556 39.1052C77.0681 38.8391 77.44 38.6264 77.8118 38.5199C78.1836 38.3604 78.6617 38.3071 79.2992 38.3071C79.9366 38.3071 80.4147 38.3604 80.6803 38.4667C80.999 38.5731 81.2115 38.7328 81.3709 38.9456C81.5302 39.1584 81.6365 39.4244 81.6896 39.7968L79.671 40.0097C79.671 39.85 79.6179 39.7437 79.5117 39.6372C79.3523 39.5308 79.1398 39.4776 78.9273 39.4776C78.7149 39.4776 78.5024 39.4776 78.3961 39.584C78.2899 39.6905 78.1836 39.7968 78.1836 39.9032C78.1836 40.0629 78.2368 40.1693 78.343 40.2225C78.4492 40.2757 78.768 40.3289 79.1929 40.3821C79.8835 40.4353 80.3616 40.5417 80.6803 40.7013C80.999 40.8077 81.2115 41.0206 81.3177 41.2866C81.4771 41.5526 81.4771 41.8186 81.424 42.1378C81.3709 42.4571 81.2115 42.7231 80.9459 43.0423C80.6803 43.3083 80.3085 43.5743 79.8835 43.734C79.4585 43.8936 78.8742 44 78.1836 44C77.2275 44 76.5369 43.8404 76.1651 43.5743Z" fill="white"/>
</svg>
