<svg width="213" height="40" viewBox="0 0 213 40" fill="none" xmlns="http://www.w3.org/2000/svg">
<path fill-rule="evenodd" clip-rule="evenodd" d="M29.0036 0.000171922C25.153 -0.0110696 21.3207 0.529038 17.6229 1.60409C17.5561 1.62397 17.4942 1.6575 17.441 1.70255C17.3879 1.7476 17.3446 1.8032 17.314 1.86583C17.2834 1.92846 17.2661 1.99677 17.2631 2.06644C17.2602 2.13611 17.2718 2.20563 17.2971 2.2706L17.4057 2.53614C17.4522 2.65624 17.5428 2.75399 17.659 2.80933C17.7752 2.86467 17.9082 2.87341 18.0306 2.83376C21.5852 1.72958 25.2871 1.1743 29.0089 1.18707C43.8151 1.18707 55.8189 9.60762 55.8189 19.9956C55.8164 21.5981 55.5301 23.1874 54.9732 24.6898C54.9304 24.8087 54.9341 24.9396 54.9836 25.0559C55.0332 25.1723 55.1249 25.2656 55.2403 25.3171L56.2249 25.7644C56.287 25.7924 56.3542 25.8077 56.4223 25.8092C56.4905 25.8107 56.5582 25.7984 56.6215 25.7731C56.6849 25.7478 56.7424 25.7101 56.7908 25.662C56.8392 25.614 56.8775 25.5567 56.9032 25.4935C57.6274 23.7531 58.0002 21.8863 58 20.001C58 8.95179 45.0205 0.000171922 29.0036 0.000171922ZM36.2001 38.6046C36.1699 38.4789 36.0927 38.3697 35.9844 38.2994C35.876 38.2291 35.7449 38.2031 35.6179 38.2268C33.4344 38.6139 31.2211 38.8083 29.0036 38.8078C14.2009 38.8078 2.19174 30.3872 2.19174 20.001C2.19174 17.2422 3.04279 14.6225 4.56508 12.263C4.61365 12.187 4.64137 12.0996 4.64543 12.0095C4.64949 11.9194 4.62976 11.8298 4.58823 11.7497L4.11462 10.8587C4.07505 10.7835 4.01719 10.7194 3.94639 10.6725C3.87558 10.6256 3.79411 10.5973 3.70949 10.5902C3.62487 10.5831 3.53983 10.5974 3.46221 10.6319C3.38458 10.6663 3.31688 10.7198 3.26535 10.7874C1.18222 13.539 0 16.672 0 20.001C0 31.0502 12.9848 40 29.0036 40C31.2959 40.0013 33.5844 39.8136 35.8458 39.4386C35.9138 39.4269 35.9786 39.4013 36.0363 39.3635C36.0941 39.3257 36.1434 39.2765 36.1815 39.219C36.2195 39.1614 36.2453 39.0966 36.2574 39.0287C36.2695 38.9607 36.2676 38.891 36.2518 38.8238L36.2001 38.6046ZM28.0404 25.8084C29.3238 24.9291 30.7527 23.9502 34.2327 23.9502C38.0014 23.9502 39.8719 26.0447 41.6828 28.0726C43.3822 29.9756 45.0293 31.82 48.1434 31.82C51.8325 31.82 52.461 31.1749 52.461 31.1749C52.461 31.1749 50.1411 33.6271 45.179 33.6271C42.3552 33.6271 38.1622 32.4972 33.8571 30.487C29.9899 28.6799 26.7566 27.8851 24.4901 27.8851C23.4427 27.8851 22.8097 28.1348 22.187 28.3806C21.5838 28.6186 20.9903 28.8528 20.039 28.8528C16.7095 28.8528 15.6822 26.3739 16.0561 18.7428C15.2834 17.4276 14.5249 15.9217 13.7219 14.2411C10.624 7.75776 9.27081 3.82283 9.27081 3.82283C9.27081 3.82283 17.5196 12.6622 21.3227 15.4352C22.0945 15.9979 22.8875 16.5979 23.6791 17.1968C26.788 19.549 29.8751 21.8847 31.571 21.8847C32.1685 21.8847 34.0011 20.6791 36.0574 19.3263C38.6765 17.6034 41.6585 15.6416 42.9142 15.6276C45.2021 15.6027 46.3932 16.59 46.3932 16.9179C46.3932 17.1249 45.9378 17.243 45.2979 17.409C44.2133 17.6904 42.5989 18.1092 41.7747 19.3309C40.5338 21.1718 37.0833 22.9415 34.6992 22.9415C30.0669 22.9415 29.0558 23.4715 28.1568 23.9428C27.4374 24.32 26.7898 24.6595 24.4153 24.6595C20.874 24.6595 18.6093 22.8025 16.5351 19.5376C16.6276 23.8521 20.7387 27.1758 24.159 27.1758C26.0444 27.1758 26.9941 26.5252 28.0404 25.8084Z" fill="white"/>
<path fill-rule="evenodd" clip-rule="evenodd" d="M83.5749 16.3816C83.565 16.4445 83.5364 16.503 83.493 16.5495C83.438 16.6039 83.3717 16.6454 83.2987 16.6709C83.1733 16.7049 83.0451 16.727 82.9156 16.737C82.757 16.7602 82.5734 16.7602 82.3097 16.7602C82.046 16.7602 81.8464 16.753 81.6896 16.737C81.5641 16.7289 81.4401 16.7049 81.3207 16.6655C81.2441 16.6422 81.1772 16.5946 81.13 16.5298C81.0887 16.4668 81.0642 16.3943 81.0588 16.3191L80.5812 13.7295C80.5304 13.4055 80.4481 13.0873 80.3353 12.7794C80.2526 12.5516 80.1281 12.3414 79.9682 12.1597C79.8237 12.0008 79.6389 11.8842 79.4336 11.8222C79.1977 11.7519 78.9525 11.7182 78.7065 11.7222H78.1719L77.3522 16.3816C77.3417 16.4447 77.3125 16.5032 77.2684 16.5495C77.209 16.604 77.1376 16.6438 77.0599 16.6655C76.9391 16.7042 76.8141 16.7282 76.6875 16.737C76.4956 16.7545 76.3029 16.7622 76.1101 16.7602C75.921 16.7622 75.7318 16.7544 75.5435 16.737C75.422 16.7297 75.302 16.7057 75.1871 16.6655C75.1173 16.6459 75.0551 16.6054 75.0089 16.5495C74.9929 16.5249 74.982 16.4974 74.9768 16.4686C74.9716 16.4398 74.9722 16.4102 74.9786 16.3816L76.8996 5.36968C76.9088 5.30591 76.9396 5.24726 76.9869 5.2036C77.0479 5.15016 77.1205 5.11164 77.1989 5.09108C77.3215 5.05527 77.4476 5.03253 77.5749 5.02322C77.73 5 77.9153 5 78.1488 5C78.3822 5 78.5711 5.00893 78.719 5.02322C78.8371 5.03213 78.9537 5.05491 79.0665 5.09108C79.1335 5.10832 79.1926 5.14802 79.234 5.2036C79.2637 5.25353 79.2727 5.31319 79.2589 5.36968L78.4909 9.74158H79.0255C79.2721 9.74429 79.5175 9.70751 79.7525 9.63264C79.9757 9.55679 80.1833 9.44123 80.3656 9.29153C80.576 9.11434 80.7624 8.91019 80.9198 8.68433C81.1254 8.39029 81.3106 8.08238 81.474 7.7628L82.6625 5.44112C82.7018 5.36517 82.7503 5.29439 82.8069 5.23038C82.8698 5.16691 82.9476 5.12024 83.0332 5.09465C83.1567 5.05696 83.284 5.03301 83.4128 5.02322C83.5678 5 83.8012 5 84.0329 5C84.2646 5 84.457 5.00893 84.6067 5.02322C84.7274 5.03118 84.8469 5.05214 84.9631 5.08573C84.9952 5.0924 85.0256 5.10549 85.0526 5.1242C85.0795 5.14292 85.1024 5.16688 85.1199 5.19466C85.1422 5.24706 85.1478 5.30506 85.1359 5.36076C85.115 5.45933 85.0846 5.55562 85.0451 5.64828C84.9976 5.76258 84.9245 5.9126 84.8259 6.09834L83.6818 8.16641C83.5004 8.50554 83.2999 8.83408 83.0813 9.15045C82.9112 9.39656 82.7191 9.62669 82.5075 9.83802C82.3314 10.015 82.1352 10.1709 81.923 10.3024C81.721 10.4239 81.5065 10.5233 81.2833 10.5988V10.6077C81.4916 10.702 81.6893 10.8182 81.8731 10.9542C82.0523 11.0913 82.2081 11.2566 82.3347 11.4436C82.4829 11.6708 82.6027 11.9155 82.6911 12.1722C82.812 12.5193 82.909 12.8744 82.9815 13.2348L83.5072 15.644C83.5484 15.8111 83.5758 15.9814 83.5892 16.153C83.5918 16.2295 83.587 16.306 83.5749 16.3816ZM92.7807 9.59513C92.839 10.0713 92.8204 10.5537 92.7255 11.0239L91.7775 16.4262C91.7711 16.4657 91.7567 16.5035 91.7353 16.5373C91.7138 16.5711 91.6857 16.6001 91.6527 16.6227C91.561 16.6787 91.4582 16.714 91.3516 16.7263C91.1608 16.7513 90.9684 16.762 90.776 16.7584C90.5812 16.7631 90.3863 16.7523 90.1933 16.7263C90.1036 16.7181 90.0188 16.6819 89.9509 16.6227C89.9295 16.5953 89.9147 16.5633 89.9076 16.5292C89.9004 16.4952 89.9013 16.4599 89.9099 16.4262L90.0222 15.7869C89.6464 16.1308 89.2165 16.4102 88.7498 16.6137C87.9251 16.9579 87.0066 17.004 86.1517 16.7441C85.8378 16.647 85.551 16.4776 85.3142 16.2494C85.0894 16.0257 84.9298 15.7447 84.8526 15.4368C84.7643 15.0646 84.7588 14.6774 84.8366 14.3028C84.9061 13.8652 85.073 13.4489 85.3248 13.0848C85.5782 12.7303 85.9085 12.4378 86.2907 12.2293C86.7406 11.9879 87.2261 11.8197 87.7288 11.7311C88.3571 11.6163 88.995 11.5618 89.6337 11.5686H90.4285L90.514 11.0828C90.556 10.8652 90.5698 10.6431 90.555 10.422C90.541 10.2506 90.4793 10.0867 90.3768 9.94874C90.2698 9.81505 90.1241 9.71775 89.9598 9.67014C89.7281 9.60422 89.4878 9.57411 89.247 9.58084C88.8991 9.57707 88.5522 9.6191 88.2152 9.70585C87.9316 9.78091 87.6531 9.87396 87.3813 9.98446C87.1354 10.0863 86.9304 10.1809 86.7629 10.2648C86.6416 10.3347 86.5067 10.3774 86.3673 10.3899C86.3066 10.3914 86.2477 10.3689 86.2034 10.3274C86.156 10.278 86.1239 10.216 86.1107 10.1488C86.0894 10.0545 86.0804 9.95783 86.084 9.86123C86.0877 9.73423 86.1008 9.60768 86.1232 9.48262C86.147 9.33188 86.1883 9.18445 86.2461 9.04328C86.2986 8.93078 86.3746 8.83089 86.4689 8.75039C86.6184 8.63266 86.7833 8.53592 86.9589 8.46287C87.2143 8.34688 87.4775 8.24901 87.7466 8.16997C88.0612 8.07649 88.3814 8.00312 88.7053 7.95031C89.0498 7.89296 89.3985 7.86429 89.7478 7.86459C90.2797 7.85082 90.8111 7.91092 91.3266 8.04318C91.704 8.13982 92.049 8.3352 92.3263 8.60931C92.5769 8.88221 92.7358 9.22699 92.7807 9.59513ZM88.9815 15.0636C89.3226 14.8658 89.6375 14.6258 89.9188 14.3492L90.1594 12.9866H89.2969C88.9796 12.9824 88.6627 13.0093 88.3507 13.0669C88.1148 13.1098 87.8877 13.1919 87.6789 13.3098C87.5103 13.4063 87.3658 13.5401 87.2565 13.7009C87.1513 13.8598 87.0814 14.0395 87.0516 14.2278C87.0157 14.3643 87.0132 14.5075 87.0442 14.6452C87.0752 14.7829 87.1389 14.9111 87.2298 15.0189C87.3413 15.1222 87.473 15.2011 87.6166 15.2506C87.7602 15.3001 87.9125 15.3191 88.0638 15.3065C88.3854 15.3057 88.7014 15.222 88.9815 15.0636ZM93.4151 16.0815C93.4439 16.146 93.4858 16.2038 93.5381 16.2512C93.6299 16.3303 93.7318 16.397 93.841 16.4494C94.0167 16.5388 94.2005 16.6112 94.3899 16.6655C94.6344 16.7422 94.8838 16.8019 95.1365 16.8441C95.4236 16.8895 95.7138 16.9116 96.0044 16.9102C96.5535 16.9144 97.1013 16.8544 97.6367 16.7316C98.0989 16.6293 98.5413 16.4519 98.9464 16.2066C99.3097 15.9835 99.6263 15.6917 99.8784 15.3475C100.127 14.998 100.293 14.596 100.363 14.1724C100.41 13.924 100.405 13.6685 100.347 13.4223C100.293 13.2008 100.191 12.9937 100.049 12.8151C99.9065 12.6392 99.731 12.4925 99.5327 12.3829C99.3209 12.2667 99.0884 12.1933 98.8484 12.1668L98.8609 12.149C99.1121 12.0826 99.3522 11.9797 99.5737 11.8436C99.7788 11.717 99.9669 11.5645 100.133 11.39C100.295 11.2194 100.431 11.027 100.54 10.8185C100.647 10.6122 100.722 10.3905 100.762 10.1613C100.832 9.82968 100.815 9.48547 100.711 9.16294C100.607 8.87471 100.421 8.62328 100.176 8.43965C99.8907 8.22787 99.564 8.07877 99.2173 8.0021C98.7837 7.9023 98.3399 7.85434 97.8951 7.85923C97.58 7.85876 97.2655 7.88264 96.9542 7.93066C96.6615 7.97229 96.3717 8.03193 96.0863 8.10925C95.8425 8.17361 95.6042 8.25721 95.3735 8.35928C95.2177 8.42505 95.0705 8.50961 94.9352 8.61109C94.8368 8.69992 94.7615 8.8115 94.716 8.93613C94.6468 9.11784 94.5972 9.30642 94.5681 9.49869C94.5446 9.61641 94.5309 9.73588 94.5271 9.85587C94.5232 9.92703 94.5316 9.99834 94.552 10.0666C94.5623 10.1068 94.5863 10.1422 94.6197 10.1666C94.649 10.1814 94.6814 10.1888 94.7142 10.1881C94.8243 10.1739 94.9304 10.1374 95.026 10.0809C95.1668 10.0095 95.345 9.9273 95.5606 9.83801C95.8009 9.74085 96.0474 9.65971 96.2984 9.59513C96.6023 9.51777 96.915 9.48055 97.2286 9.4844C97.4137 9.4819 97.5985 9.50108 97.7792 9.54155C97.925 9.5722 98.0628 9.63303 98.1837 9.72014C98.2868 9.79769 98.3649 9.90388 98.4083 10.0255C98.4521 10.1604 98.4607 10.3043 98.4332 10.4434C98.4081 10.6121 98.3473 10.7734 98.255 10.9167C98.154 11.0587 98.0217 11.1754 97.8683 11.2578C97.6761 11.3599 97.4694 11.4316 97.2553 11.4703C96.976 11.5207 96.6926 11.5446 96.4089 11.5418H95.5749C95.5135 11.5398 95.4526 11.552 95.3967 11.5775C95.344 11.6035 95.2996 11.6437 95.2684 11.6936C95.2251 11.7622 95.1921 11.8368 95.1704 11.915C95.1377 12.0289 95.1115 12.1446 95.092 12.2615C95.067 12.4044 95.0492 12.5276 95.0403 12.6294C95.0297 12.7106 95.0352 12.7931 95.0563 12.8723C95.0704 12.9261 95.1041 12.9726 95.1508 13.0026C95.2053 13.0324 95.2669 13.0466 95.329 13.0437H96.1915C96.4901 13.0391 96.7884 13.063 97.0825 13.1151C97.283 13.1475 97.4751 13.2198 97.6473 13.3277C97.7715 13.4064 97.8656 13.5247 97.9146 13.6634C97.9584 13.8095 97.9652 13.9642 97.9342 14.1135C97.9093 14.2844 97.8499 14.4485 97.7596 14.5957C97.6627 14.739 97.5371 14.8607 97.3907 14.9528C97.226 15.0578 97.0455 15.1356 96.8561 15.1832C96.6228 15.2397 96.3834 15.2667 96.1433 15.2636C95.8186 15.2711 95.4945 15.2314 95.1811 15.1457C94.9586 15.0828 94.7422 15.0003 94.5342 14.8993C94.3875 14.828 94.2458 14.7469 94.1101 14.6564C94.029 14.5924 93.9313 14.5534 93.8285 14.5439C93.7887 14.543 93.7496 14.5542 93.7163 14.576C93.6748 14.6043 93.6415 14.6431 93.62 14.6885C93.5839 14.7535 93.5552 14.8224 93.5345 14.8939C93.5007 15.0032 93.4751 15.1148 93.4579 15.2279C93.4311 15.3779 93.4116 15.5047 93.3991 15.6101C93.3872 15.6976 93.3836 15.7861 93.3884 15.8744C93.3868 15.9444 93.3958 16.0142 93.4151 16.0815ZM105.301 16.6084C104.476 16.9526 103.557 16.9986 102.701 16.7388C102.391 16.6422 102.107 16.4747 101.872 16.2494C101.647 16.0258 101.487 15.7449 101.409 15.4368C101.321 15.0646 101.315 14.6774 101.393 14.3028C101.463 13.8652 101.63 13.449 101.881 13.0848C102.135 12.7298 102.466 12.4373 102.849 12.2293C103.299 11.9872 103.784 11.819 104.287 11.7311C104.915 11.6163 105.552 11.5618 106.19 11.5686H106.973L107.058 11.0828C107.1 10.8652 107.113 10.643 107.097 10.422C107.087 10.2517 107.028 10.0878 106.93 9.94875C106.822 9.81502 106.676 9.71775 106.511 9.67015C106.279 9.60404 106.039 9.57392 105.798 9.58085C105.45 9.57685 105.103 9.61888 104.766 9.70586C104.482 9.78065 104.203 9.87371 103.931 9.98446C103.687 10.0863 103.48 10.1809 103.312 10.2649C103.192 10.3345 103.057 10.3771 102.918 10.3899C102.888 10.3908 102.858 10.3858 102.83 10.375C102.802 10.3643 102.776 10.3481 102.755 10.3274C102.707 10.2782 102.674 10.2162 102.66 10.1488C102.639 10.0545 102.63 9.95783 102.633 9.86123C102.638 9.73419 102.651 9.60765 102.674 9.48262C102.697 9.3318 102.738 9.18428 102.796 9.04329C102.848 8.93079 102.924 8.8309 103.018 8.7504C103.168 8.63315 103.333 8.53646 103.508 8.46287C103.764 8.34689 104.027 8.24901 104.296 8.16998C104.611 8.07669 104.931 8.00333 105.255 7.95032C105.599 7.89297 105.948 7.8643 106.297 7.86459C106.829 7.85071 107.36 7.91081 107.876 8.04318C108.253 8.13983 108.598 8.3352 108.876 8.60932C109.126 8.88222 109.285 9.22699 109.33 9.59514C109.388 10.0712 109.37 10.5535 109.277 11.0239L108.327 16.4209C108.321 16.4605 108.307 16.4984 108.285 16.5322C108.264 16.566 108.235 16.595 108.202 16.6173C108.111 16.6742 108.008 16.7096 107.901 16.7209C107.71 16.7459 107.518 16.7567 107.325 16.753C107.131 16.7578 106.937 16.747 106.744 16.7209C106.655 16.7135 106.57 16.6772 106.502 16.6173C106.48 16.5903 106.465 16.5584 106.457 16.5242C106.45 16.4901 106.45 16.4547 106.459 16.4209L106.573 15.7815C106.197 16.1247 105.767 16.404 105.301 16.6084ZM103.818 13.7027C103.713 13.8607 103.64 14.0388 103.606 14.226V14.2242C103.57 14.3627 103.568 14.5082 103.6 14.6477C103.633 14.7872 103.699 14.9166 103.793 15.0243C103.905 15.1275 104.036 15.2064 104.179 15.2559C104.323 15.3055 104.475 15.3245 104.626 15.3118C104.947 15.311 105.263 15.2274 105.543 15.0689C105.885 14.8716 106.2 14.6316 106.481 14.3546L106.721 12.9884H105.861C105.543 12.9842 105.225 13.0111 104.913 13.0687C104.677 13.1116 104.45 13.1937 104.241 13.3116C104.072 13.4081 103.928 13.5419 103.818 13.7027ZM111.469 16.7513C111.652 16.7532 111.836 16.7455 112.019 16.728C112.14 16.7178 112.259 16.6956 112.376 16.662C112.451 16.6409 112.521 16.6023 112.579 16.5495C112.622 16.5061 112.65 16.4506 112.661 16.3905L113.217 13.2348H116.456L115.9 16.3905C115.889 16.445 115.898 16.5018 115.927 16.5495C115.966 16.6032 116.022 16.6427 116.086 16.662C116.194 16.6974 116.307 16.7195 116.421 16.728C116.602 16.7456 116.785 16.7533 116.968 16.7513C117.15 16.753 117.333 16.7453 117.515 16.728C117.636 16.7184 117.755 16.6963 117.871 16.662C117.945 16.6405 118.013 16.602 118.069 16.5495C118.112 16.5061 118.141 16.4506 118.151 16.3905L119.562 8.36822C119.574 8.31455 119.565 8.25848 119.537 8.21106C119.497 8.15772 119.441 8.11838 119.377 8.09854C119.269 8.06244 119.157 8.03965 119.044 8.03068C118.899 8.01639 118.719 8.00746 118.509 8.00746C118.299 8.00746 118.103 8.01639 117.953 8.03068C117.832 8.04077 117.713 8.06352 117.597 8.09854C117.523 8.12045 117.454 8.15892 117.397 8.21106C117.354 8.2534 117.325 8.30844 117.315 8.36822L116.781 11.3721H113.545L114.079 8.36822C114.091 8.31434 114.081 8.25798 114.052 8.21106C114.012 8.15645 113.954 8.11689 113.888 8.09854C113.78 8.0632 113.669 8.04043 113.555 8.03068C113.414 8.01639 113.233 8.00746 113.012 8.00746C112.791 8.00746 112.607 8.01639 112.459 8.03068C112.339 8.04131 112.219 8.06404 112.103 8.09854C112.027 8.1192 111.958 8.15779 111.9 8.21106C111.856 8.2534 111.828 8.30844 111.818 8.36822L110.406 16.3905C110.395 16.4448 110.404 16.5013 110.431 16.5495C110.473 16.6036 110.531 16.643 110.597 16.662C110.705 16.6968 110.817 16.7189 110.93 16.728C111.109 16.7454 111.289 16.7532 111.469 16.7513ZM121.895 16.6066C121.471 16.4302 121.108 16.135 120.847 15.7565C120.575 15.3447 120.406 14.8728 120.355 14.3814C120.288 13.7636 120.315 13.1392 120.434 12.5294C120.548 11.805 120.774 11.1026 121.102 10.447C121.376 9.90036 121.746 9.40833 122.196 8.99507C122.61 8.61832 123.095 8.32756 123.622 8.13962C124.157 7.95201 124.719 7.85777 125.286 7.86102C125.519 7.86071 125.752 7.88164 125.981 7.92353C126.191 7.96499 126.397 8.02475 126.596 8.10212C126.769 8.16574 126.935 8.24713 127.091 8.345C127.199 8.40193 127.297 8.47478 127.384 8.56109C127.428 8.61115 127.465 8.66704 127.494 8.72718C127.516 8.78407 127.527 8.84473 127.526 8.90578C127.527 8.9946 127.524 9.08343 127.515 9.17187C127.506 9.27724 127.487 9.40404 127.462 9.55405C127.429 9.80843 127.355 10.0557 127.243 10.2863C127.15 10.4274 127.068 10.4988 126.972 10.4988C126.86 10.4941 126.753 10.4491 126.671 10.372C126.571 10.2881 126.452 10.1952 126.314 10.0934C126.157 9.98038 125.986 9.88684 125.806 9.8148C125.568 9.72375 125.313 9.68066 125.058 9.688C124.778 9.68345 124.501 9.74228 124.247 9.8601C123.993 9.97792 123.769 10.1517 123.591 10.3684C123.201 10.8209 122.929 11.4846 122.775 12.3597C122.703 12.7361 122.674 13.1197 122.69 13.5027C122.699 13.7891 122.767 14.0705 122.889 14.3296C122.995 14.5437 123.166 14.7188 123.378 14.8296C123.618 14.9471 123.884 15.0041 124.151 14.9957C124.433 15.0006 124.713 14.9534 124.978 14.8564C125.201 14.7722 125.416 14.6682 125.621 14.5457C125.809 14.4314 125.967 14.3278 126.097 14.2349C126.185 14.1593 126.294 14.1109 126.409 14.0956C126.455 14.0934 126.501 14.1094 126.535 14.1403C126.573 14.1882 126.593 14.2473 126.592 14.3081C126.599 14.411 126.599 14.5142 126.592 14.6171C126.582 14.7457 126.558 14.9046 126.525 15.1029C126.496 15.26 126.469 15.3904 126.443 15.494C126.42 15.5842 126.392 15.673 126.359 15.7601C126.337 15.8224 126.309 15.8822 126.275 15.9387C126.227 16.006 126.17 16.0661 126.106 16.1173C125.976 16.2138 125.838 16.2981 125.692 16.3691C125.487 16.4741 125.274 16.5625 125.054 16.6334C124.807 16.7147 124.555 16.778 124.299 16.8227C124.029 16.8706 123.756 16.8945 123.483 16.8941C122.939 16.9085 122.399 16.8106 121.895 16.6066ZM131.037 13.1669C131.221 13.164 131.404 13.1868 131.582 13.2348C131.729 13.2758 131.863 13.3531 131.972 13.4598C132.089 13.5803 132.182 13.7222 132.245 13.8777C132.328 14.0865 132.388 14.3039 132.423 14.526L132.829 16.4423C132.841 16.498 132.866 16.5501 132.902 16.5941C132.953 16.6452 133.02 16.6784 133.091 16.6888C133.216 16.7142 133.342 16.7309 133.469 16.7388C133.628 16.7495 133.834 16.7566 134.086 16.7566C134.307 16.7566 134.492 16.7566 134.64 16.7388C134.76 16.731 134.879 16.7143 134.996 16.6888C135.064 16.6758 135.129 16.6484 135.185 16.6084C135.223 16.5777 135.248 16.5346 135.256 16.4869C135.256 16.4619 135.256 16.4352 135.265 16.4048C135.269 16.3674 135.269 16.3297 135.265 16.2923C135.26 16.2413 135.252 16.1907 135.242 16.1405C135.229 16.0724 135.212 16.005 135.192 15.9387L134.729 14.1385C134.663 13.8755 134.574 13.6186 134.465 13.3705C134.38 13.1782 134.27 12.9981 134.137 12.8348C134.024 12.6944 133.889 12.5737 133.736 12.4776C133.584 12.383 133.425 12.2989 133.261 12.2258V12.2061C133.421 12.1532 133.576 12.0875 133.726 12.0097C133.904 11.9163 134.073 11.8043 134.228 11.6757C134.419 11.5181 134.595 11.3423 134.752 11.1507C134.951 10.9061 135.13 10.6457 135.287 10.372L136.192 8.84327C136.257 8.73274 136.317 8.61889 136.37 8.50216C136.404 8.43352 136.429 8.36093 136.445 8.28607C136.45 8.26607 136.452 8.24515 136.449 8.22459C136.446 8.20402 136.44 8.18423 136.429 8.16641C136.388 8.12291 136.336 8.09297 136.277 8.08068C136.172 8.05067 136.064 8.0327 135.955 8.02711C135.816 8.01461 135.636 8.00746 135.42 8.00746C135.169 8.00746 134.966 8.00746 134.811 8.02711C134.686 8.03316 134.563 8.05232 134.442 8.08426C134.364 8.10535 134.292 8.14245 134.23 8.1932C134.18 8.23701 134.14 8.29049 134.112 8.35036L133.136 10.0773C133.014 10.3039 132.876 10.5207 132.721 10.7256C132.602 10.8825 132.463 11.023 132.307 11.1435C132.172 11.2446 132.02 11.3207 131.858 11.3685C131.691 11.4143 131.518 11.4365 131.345 11.4346H130.887L131.439 8.31464C131.442 8.2926 131.44 8.27018 131.433 8.24912C131.426 8.22806 131.414 8.20892 131.398 8.1932C131.348 8.14539 131.287 8.11099 131.22 8.09319C131.109 8.062 130.995 8.04107 130.88 8.03068C130.739 8.01639 130.568 8.00746 130.365 8.00746C130.162 8.00746 129.976 8.01639 129.83 8.03068C129.71 8.04228 129.591 8.06318 129.474 8.09319C129.398 8.11148 129.326 8.14555 129.264 8.1932C129.224 8.22324 129.196 8.26621 129.185 8.31464L127.76 16.4369C127.756 16.4587 127.758 16.4809 127.765 16.5019C127.771 16.5229 127.782 16.5422 127.797 16.5584C127.846 16.6083 127.908 16.6441 127.975 16.662C128.085 16.6964 128.198 16.7185 128.312 16.728C128.487 16.7453 128.662 16.7531 128.838 16.7513C129.016 16.7532 129.195 16.7454 129.372 16.728C129.493 16.7172 129.612 16.695 129.729 16.662C129.806 16.6402 129.879 16.6051 129.944 16.5584C129.986 16.5292 130.015 16.4861 130.028 16.4369L130.579 13.1669H131.037ZM137.003 15.744C136.707 15.3336 136.522 14.8528 136.468 14.3492C136.401 13.7194 136.429 13.0831 136.55 12.4615C136.659 11.8097 136.863 11.1774 137.154 10.5845C137.419 10.0383 137.782 9.54508 138.223 9.12903C138.669 8.71859 139.19 8.39893 139.758 8.18785C140.393 7.95792 141.065 7.84538 141.741 7.85567C142.359 7.83911 142.975 7.93844 143.557 8.14856C144.019 8.31681 144.423 8.61506 144.721 9.00758C145.011 9.41916 145.191 9.89897 145.243 10.4006C145.309 11.034 145.282 11.6738 145.161 12.299C145.051 12.9477 144.849 13.5773 144.562 14.1688C144.297 14.7155 143.934 15.2093 143.493 15.6261C143.047 16.0404 142.524 16.3615 141.953 16.5709C141.316 16.8003 140.643 16.9128 139.966 16.9031C139.351 16.9198 138.739 16.8192 138.161 16.6066C137.702 16.4333 137.301 16.1344 137.003 15.744ZM139.212 11.2239C139.064 11.5901 138.956 11.9716 138.892 12.3615C138.827 12.7238 138.798 13.0918 138.806 13.4598C138.806 13.757 138.863 14.0515 138.972 14.3278C139.07 14.5678 139.244 14.7688 139.467 14.8993C139.741 15.0438 140.049 15.1134 140.358 15.1011C140.675 15.108 140.989 15.0471 141.28 14.9225C141.553 14.7982 141.797 14.6153 141.992 14.3867C142.207 14.1332 142.38 13.846 142.502 13.5366C142.647 13.1698 142.753 12.7884 142.817 12.399C142.884 12.0386 142.917 11.6727 142.915 11.306C142.919 11.0085 142.862 10.7134 142.75 10.4381C142.649 10.1988 142.476 9.99746 142.254 9.86303C141.978 9.71247 141.666 9.64081 141.353 9.65587C141.039 9.65053 140.728 9.71138 140.44 9.83446C140.166 9.95798 139.923 10.141 139.727 10.3702C139.512 10.6262 139.339 10.9142 139.212 11.2239ZM146.743 15.8154C147.057 16.1958 147.472 16.4794 147.941 16.6334C148.529 16.8264 149.145 16.9176 149.764 16.9031C150.141 16.9043 150.518 16.8792 150.892 16.8281C151.248 16.7763 151.565 16.7173 151.847 16.6495C152.085 16.5932 152.319 16.5229 152.549 16.4387C152.672 16.3955 152.789 16.3354 152.896 16.2601C152.94 16.2208 152.979 16.1771 153.014 16.1298C153.049 16.0783 153.077 16.0225 153.098 15.9637C153.125 15.8852 153.147 15.8053 153.165 15.7244C153.189 15.6315 153.212 15.519 153.235 15.3868C153.26 15.2368 153.278 15.1136 153.287 15.0136C153.296 14.9374 153.293 14.8601 153.278 14.785C153.27 14.7399 153.245 14.6997 153.208 14.6725C153.169 14.6493 153.124 14.6382 153.078 14.6403C152.955 14.6494 152.835 14.6784 152.722 14.726C152.568 14.7832 152.376 14.8457 152.146 14.9154C151.88 14.9931 151.61 15.0563 151.337 15.1047C150.988 15.1651 150.634 15.1937 150.28 15.1904C149.949 15.1996 149.62 15.1475 149.307 15.0368C149.067 14.9501 148.858 14.7956 148.703 14.5921C148.555 14.3813 148.464 14.1349 148.441 13.8777C148.412 13.5671 148.427 13.2539 148.484 12.9473H153.358C153.555 12.9515 153.746 12.8806 153.892 12.749C154.056 12.5835 154.159 12.3677 154.185 12.1365L154.247 11.7793C154.345 11.2631 154.365 10.7353 154.308 10.2131C154.262 9.76504 154.106 9.33544 153.853 8.96292C153.594 8.59862 153.238 8.31363 152.827 8.13962C152.298 7.92516 151.731 7.82417 151.161 7.84316C150.558 7.83787 149.959 7.94444 149.395 8.15748C148.858 8.36468 148.366 8.67464 147.948 9.07008C147.508 9.48845 147.146 9.98191 146.879 10.5274C146.58 11.1372 146.371 11.7876 146.26 12.4579C146.131 13.1046 146.104 13.7674 146.18 14.4224C146.236 14.9298 146.431 15.4118 146.743 15.8154ZM149.003 10.7024C149.113 10.4647 149.261 10.2459 149.439 10.0541C149.612 9.87203 149.818 9.7242 150.045 9.61835C150.29 9.50789 150.556 9.45242 150.824 9.45583C151.393 9.45583 151.781 9.63443 151.989 9.99161C152.197 10.3488 152.236 10.8482 152.107 11.49H148.725C148.787 11.2176 148.88 10.9534 149.003 10.7024ZM79.8024 21.2625C79.8477 21.346 79.8761 21.4376 79.8862 21.5321L81.6628 31.8475C81.6926 32.0168 81.7075 32.1883 81.7074 32.3601C81.7095 32.4136 81.6995 32.467 81.6782 32.5161C81.6569 32.5653 81.6249 32.609 81.5844 32.644C81.4746 32.718 81.346 32.7589 81.2138 32.7619C81.0534 32.7833 80.8253 32.7833 80.5188 32.7833C80.2123 32.7833 79.9842 32.7798 79.806 32.7708C79.6771 32.7684 79.549 32.7498 79.4247 32.7155C79.3573 32.7001 79.2978 32.6608 79.2572 32.6048C79.2262 32.5459 79.2068 32.4816 79.2001 32.4155L78.8313 30.0759H74.4689L73.332 32.3512C73.2992 32.4279 73.2553 32.4995 73.2019 32.5637C73.1442 32.6263 73.0711 32.6725 72.9899 32.6976C72.8663 32.7368 72.738 32.7596 72.6085 32.7655C72.4481 32.7833 72.2397 32.7833 71.9831 32.7833C71.7689 32.7862 71.5547 32.7772 71.3415 32.7566C71.2851 32.7569 71.2291 32.7455 71.1773 32.723C71.1255 32.7006 71.0788 32.6676 71.0404 32.6262C71.0158 32.5816 71.0021 32.5319 71.0002 32.481C70.9984 32.4301 71.0085 32.3795 71.0297 32.3333C71.0903 32.1597 71.1648 31.9913 71.2524 31.8297L76.6501 21.5054C76.6953 21.4154 76.7522 21.3319 76.8194 21.2571C76.8904 21.1876 76.9782 21.1378 77.0742 21.1124C77.2199 21.0748 77.3693 21.0538 77.5197 21.0499C77.7068 21.0374 77.9527 21.0374 78.2592 21.0374C78.6121 21.0374 78.8918 21.041 79.1003 21.0499C79.2614 21.0527 79.4216 21.0737 79.5779 21.1124C79.6688 21.1327 79.7488 21.1862 79.8024 21.2625ZM77.8191 23.3127L75.3065 28.2597H78.5996L77.828 23.3127H77.8191ZM90.3572 24.5039C90.0307 24.2993 89.6675 24.1604 89.288 24.0949C88.7495 23.9972 88.2029 23.9517 87.6557 23.9592C87.4044 23.9592 87.155 23.9592 86.909 23.9699C86.7758 23.9757 86.6446 23.9789 86.516 23.982C86.4074 23.9847 86.3007 23.9872 86.1962 23.9913C85.9681 24.0003 85.7543 24.011 85.5565 24.0235L85.5187 24.0259C85.3366 24.0374 85.1761 24.0475 85.0344 24.0592C84.8226 24.0777 84.6235 24.1677 84.4695 24.3146C84.3152 24.4899 84.2171 24.7077 84.1879 24.9397L82.9691 31.8565C82.9082 32.0729 82.9311 32.3045 83.0332 32.5047C83.1008 32.5867 83.1862 32.652 83.2829 32.6957C83.3796 32.7393 83.485 32.7601 83.591 32.7566C83.8012 32.7798 84.0008 32.7994 84.1879 32.8101L84.1983 32.8107H84.1984H84.1984H84.1985H84.1986H84.1986C84.3821 32.8212 84.5639 32.8317 84.7475 32.8369C84.9346 32.8423 85.1288 32.8476 85.3284 32.8512C85.4598 32.8536 85.5989 32.8528 85.7453 32.852C85.8212 32.8516 85.8991 32.8512 85.9788 32.8512C86.6071 32.8592 87.2345 32.7993 87.8499 32.6726C88.3397 32.5733 88.8103 32.3954 89.2435 32.1458C89.6153 31.931 89.9334 31.6342 90.1737 31.2778C90.4133 30.9105 90.573 30.4967 90.6423 30.0634C90.7421 29.5014 90.6613 29.0413 90.4 28.6829C90.1386 28.3245 89.7163 28.0924 89.133 27.9864C89.5992 27.8925 90.0278 27.664 90.3661 27.3292C90.6872 26.9962 90.8981 26.5722 90.9702 26.1148C91.0359 25.8023 91.0169 25.4779 90.915 25.1754C90.8036 24.8987 90.6085 24.6639 90.3572 24.5039ZM88.397 30.0581C88.3665 30.2381 88.3024 30.4108 88.2081 30.567C88.1109 30.7242 87.98 30.8578 87.825 30.9582C87.6411 31.0744 87.4385 31.1578 87.2262 31.2046C86.9531 31.2655 86.6738 31.2943 86.394 31.2903H86.1125C86.0074 31.2903 85.9022 31.2903 85.7953 31.276C85.7314 31.2675 85.6688 31.2647 85.6067 31.2619H85.6066C85.5648 31.2601 85.5232 31.2582 85.4817 31.2546C85.3783 31.2457 85.2803 31.235 85.1859 31.2225L85.5904 28.9204H86.7665C87.0465 28.9161 87.3263 28.9382 87.6022 28.9865C87.7938 29.0172 87.9764 29.0897 88.1368 29.199C88.26 29.2847 88.3489 29.4112 88.3881 29.5562C88.4268 29.7209 88.4299 29.8921 88.397 30.0581ZM88.7855 26.5237C88.7609 26.6879 88.7001 26.8446 88.6077 26.9823C88.5152 27.1201 88.3933 27.2355 88.2509 27.3203C87.8798 27.5199 87.4615 27.6143 87.0409 27.5935H85.8202L86.1766 25.5701C86.3299 25.5522 86.5063 25.5379 86.7112 25.5254C86.9162 25.5129 87.1282 25.5076 87.3563 25.5076C87.604 25.5027 87.8514 25.5254 88.0941 25.5754C88.2608 25.6067 88.4189 25.6737 88.5574 25.7719C88.6622 25.8523 88.7385 25.9644 88.7748 26.0916C88.81 26.2331 88.8136 26.3806 88.7855 26.5237ZM100.675 24.0592C100.783 24.0653 100.89 24.0864 100.992 24.1217C101.057 24.1405 101.112 24.1841 101.145 24.2431C101.167 24.2938 101.173 24.3499 101.161 24.4039L99.7448 32.4547C99.7351 32.5125 99.7084 32.566 99.6681 32.6083C99.6132 32.6575 99.5472 32.6924 99.4757 32.7101C99.3592 32.7418 99.2398 32.7616 99.1193 32.7691C98.9785 32.7869 98.795 32.7869 98.5848 32.7869H98.5847C98.3744 32.7869 98.1944 32.7816 98.0501 32.7691C97.9296 32.7617 97.8101 32.742 97.6937 32.7101C97.6256 32.6944 97.5636 32.659 97.5155 32.6083C97.5002 32.5862 97.4896 32.5611 97.4844 32.5347C97.4792 32.5083 97.4795 32.4811 97.4852 32.4547L98.1053 28.8704C98.1499 28.624 98.2033 28.3579 98.2657 28.0882C98.3281 27.8185 98.3976 27.5542 98.4724 27.297C98.2853 27.5489 98.0857 27.7989 97.8755 28.04C97.6652 28.2811 97.4513 28.524 97.2357 28.7633L93.8873 32.4422C93.8309 32.5007 93.7714 32.5561 93.7091 32.6083C93.6484 32.6559 93.5795 32.6922 93.506 32.7155C93.4115 32.7468 93.3132 32.7655 93.2137 32.7708C93.0997 32.7833 92.95 32.7833 92.7718 32.7833C92.5562 32.7833 92.3833 32.778 92.2497 32.7655C92.1438 32.7582 92.0391 32.7384 91.9378 32.7066C91.876 32.6905 91.8221 32.6524 91.7864 32.5994C91.761 32.5512 91.7535 32.4955 91.765 32.4422L93.1799 24.3914C93.1912 24.3358 93.2177 24.2845 93.2565 24.2431C93.3126 24.1895 93.3812 24.1508 93.4561 24.1306C93.5723 24.0959 93.6917 24.0732 93.8125 24.0628C93.9515 24.0413 94.1314 24.0413 94.347 24.0413H94.3471C94.6433 24.0266 94.9401 24.0567 95.2274 24.1306C95.3913 24.1914 95.4626 24.2789 95.443 24.3914L94.8264 27.9525C94.7837 28.1971 94.7284 28.4543 94.6643 28.7168C94.6001 28.9794 94.5324 29.2348 94.4594 29.4812C94.6447 29.2437 94.8336 29.0026 95.0243 28.7668C95.2149 28.5311 95.4145 28.3007 95.6212 28.0793L98.9963 24.3914C99.0495 24.3296 99.1092 24.2739 99.1745 24.2253C99.242 24.178 99.3166 24.1418 99.3955 24.1181C99.4955 24.0884 99.5981 24.0687 99.702 24.0592C99.8214 24.0413 99.9496 24.0413 100.158 24.0413H100.158C100.367 24.0413 100.54 24.0467 100.675 24.0592ZM109.186 24.6396C108.909 24.3643 108.564 24.1682 108.186 24.0717C107.67 23.9403 107.139 23.8802 106.607 23.8931C106.258 23.8928 105.909 23.9215 105.565 23.9788C105.241 24.0313 104.92 24.1053 104.606 24.2003C104.337 24.2788 104.074 24.376 103.818 24.4914C103.643 24.5651 103.478 24.6618 103.328 24.7789C103.235 24.86 103.159 24.9597 103.106 25.0718C103.048 25.2136 103.006 25.3616 102.983 25.5129C102.96 25.6374 102.947 25.7633 102.943 25.8897C102.94 25.9869 102.949 26.0842 102.97 26.179C102.983 26.2463 103.016 26.3082 103.063 26.3576C103.085 26.3786 103.11 26.3949 103.138 26.4056C103.167 26.4163 103.197 26.4213 103.227 26.4201C103.366 26.4077 103.501 26.365 103.622 26.2951C103.79 26.2112 103.997 26.1165 104.241 26.0165C104.513 25.906 104.791 25.813 105.075 25.7379C105.412 25.6506 105.759 25.6079 106.106 25.6111C106.347 25.6038 106.588 25.6346 106.819 25.7022C106.984 25.7485 107.13 25.8461 107.236 25.9808C107.339 26.1179 107.401 26.2814 107.414 26.4523C107.43 26.6734 107.416 26.8956 107.373 27.1131L107.288 27.5988H106.491C105.853 27.592 105.216 27.6464 104.588 27.7614C104.085 27.8496 103.599 28.0178 103.148 28.2596C102.766 28.4681 102.436 28.7605 102.183 29.1151C101.931 29.4792 101.764 29.8955 101.694 30.3331C101.616 30.7077 101.622 31.0949 101.71 31.4671C101.788 31.7754 101.947 32.0568 102.172 32.2815C102.409 32.509 102.696 32.6783 103.009 32.7762C103.864 33.0361 104.783 32.99 105.608 32.6458C106.074 32.4416 106.504 32.1616 106.88 31.8172L106.768 32.4565C106.759 32.4905 106.758 32.526 106.765 32.5603C106.773 32.5947 106.787 32.627 106.809 32.6547C106.876 32.7143 106.961 32.7506 107.051 32.7583C107.244 32.7826 107.439 32.7928 107.634 32.7887C107.826 32.7918 108.018 32.7817 108.209 32.7583C108.316 32.7464 108.419 32.711 108.51 32.6547C108.542 32.6309 108.57 32.601 108.59 32.5667C108.61 32.5324 108.624 32.4943 108.63 32.4547L109.58 27.0577C109.673 26.5874 109.691 26.1051 109.633 25.629C109.591 25.2603 109.435 24.9142 109.186 24.6396ZM106.784 30.3813C106.503 30.6584 106.188 30.8985 105.846 31.0957C105.566 31.2541 105.25 31.3377 104.929 31.3385C104.777 31.3518 104.625 31.333 104.481 31.2835C104.337 31.234 104.206 31.1548 104.095 31.051C104.004 30.9433 103.94 30.8151 103.909 30.6773C103.878 30.5396 103.88 30.3964 103.916 30.2598C103.945 30.0692 104.016 29.8874 104.124 29.7284C104.233 29.5693 104.376 29.4371 104.544 29.3419C104.752 29.2238 104.98 29.1417 105.215 29.099C105.528 29.0414 105.844 29.0145 106.162 29.0186H107.026L106.784 30.3813ZM112.803 24.0949H119.104C119.186 24.0856 119.268 24.0971 119.344 24.1283C119.42 24.1596 119.486 24.2095 119.537 24.2735C119.62 24.4395 119.64 24.6299 119.593 24.8093L118.256 32.4101C118.246 32.4697 118.217 32.5246 118.174 32.5673C118.116 32.6205 118.047 32.6591 117.971 32.6798C117.855 32.7141 117.735 32.7369 117.615 32.7476C117.459 32.7619 117.275 32.7691 117.064 32.7691C116.853 32.7691 116.674 32.7619 116.529 32.7476C116.413 32.7375 116.298 32.7148 116.187 32.6798C116.121 32.6625 116.063 32.6227 116.023 32.5673C115.998 32.519 115.99 32.4634 116.002 32.4101L117.137 25.9523H114.108L112.973 32.4101C112.962 32.4707 112.931 32.526 112.885 32.5673C112.825 32.6199 112.754 32.6584 112.677 32.6798C112.561 32.7145 112.441 32.7372 112.32 32.7476C112.174 32.7691 111.989 32.7691 111.768 32.7691H111.768C111.547 32.7691 111.367 32.7619 111.224 32.7476C111.111 32.7379 110.999 32.7151 110.891 32.6798C110.826 32.6626 110.77 32.6227 110.733 32.5673C110.707 32.5192 110.698 32.4636 110.709 32.4101L112.048 24.8093C112.075 24.6098 112.161 24.423 112.295 24.2735C112.364 24.2113 112.444 24.1635 112.531 24.1328C112.619 24.1021 112.711 24.0892 112.803 24.0949ZM128.928 25.1825C128.747 24.7901 128.454 24.4602 128.086 24.2342C127.648 23.9869 127.15 23.8669 126.648 23.8878C126.375 23.8867 126.104 23.9173 125.839 23.9788C125.572 24.0402 125.313 24.1319 125.067 24.2521C124.799 24.3835 124.543 24.537 124.301 24.7111C124.044 24.8896 123.777 25.1057 123.502 25.3451L123.668 24.4003C123.68 24.3474 123.674 24.2921 123.65 24.2431C123.619 24.1905 123.571 24.1506 123.513 24.1306C123.422 24.0955 123.327 24.0727 123.23 24.0628C123.081 24.0471 122.931 24.0399 122.781 24.0413C122.625 24.0398 122.469 24.047 122.314 24.0628C122.209 24.0737 122.105 24.0965 122.005 24.1306C121.937 24.1523 121.876 24.191 121.827 24.2431C121.79 24.2882 121.764 24.3424 121.754 24.4003L119.785 35.6087C119.773 35.6635 119.782 35.7208 119.81 35.7694C119.849 35.827 119.906 35.8698 119.972 35.8908C120.079 35.9304 120.19 35.9562 120.304 35.9676C120.481 35.9872 120.66 35.9961 120.838 35.9944C121.023 35.9963 121.207 35.9874 121.391 35.9676C121.512 35.9553 121.631 35.9295 121.747 35.8908C121.825 35.8676 121.896 35.826 121.954 35.7694C121.996 35.7249 122.025 35.6691 122.036 35.6087L122.708 31.8297C122.853 32.0026 123.01 32.165 123.178 32.3154C123.325 32.4489 123.487 32.5651 123.661 32.6619C123.829 32.7555 124.009 32.8252 124.196 32.8691C124.402 32.9162 124.614 32.939 124.826 32.9369C125.362 32.9424 125.893 32.8315 126.382 32.6119C126.861 32.3942 127.289 32.0792 127.64 31.6868C128.025 31.2521 128.337 30.7582 128.565 30.2241C128.833 29.6071 129.024 28.9593 129.133 28.2954C129.238 27.732 129.278 27.1587 129.255 26.5863C129.24 26.1014 129.129 25.6243 128.928 25.1825ZM126.751 28.4579C126.695 28.7709 126.609 29.0778 126.494 29.3741C126.386 29.6666 126.239 29.9434 126.058 30.1974C125.894 30.4308 125.687 30.6308 125.448 30.7867C125.213 30.9376 124.938 31.0159 124.659 31.0117C124.348 31.0124 124.048 30.895 123.82 30.6831C123.527 30.4118 123.277 30.0982 123.076 29.7527L123.542 27.1077C123.735 26.8946 123.942 26.6936 124.16 26.5059C124.326 26.3587 124.505 26.226 124.694 26.1094C124.847 26.0156 125.011 25.9418 125.183 25.8897C125.331 25.8457 125.484 25.8228 125.639 25.8219C125.895 25.807 126.148 25.885 126.352 26.0416C126.532 26.1974 126.665 26.402 126.733 26.6309C126.817 26.9031 126.855 27.1874 126.845 27.4721C126.841 27.8027 126.809 28.1324 126.751 28.4579ZM137.867 28.7901C137.72 28.9218 137.529 28.9927 137.332 28.9883L132.482 28.9704C132.423 29.2769 132.408 29.5903 132.439 29.9009C132.46 30.1581 132.55 30.4047 132.699 30.6153C132.854 30.8188 133.063 30.9732 133.303 31.0599C133.615 31.1707 133.945 31.2227 134.276 31.2135C134.63 31.2169 134.984 31.1882 135.333 31.1278C135.606 31.0795 135.876 31.0163 136.142 30.9385C136.374 30.8796 136.564 30.8171 136.719 30.7599C136.833 30.7119 136.953 30.683 137.076 30.6742C137.121 30.6721 137.166 30.6826 137.206 30.7046C137.243 30.7318 137.267 30.772 137.275 30.8171C137.291 30.8928 137.294 30.9707 137.284 31.0474C137.275 31.1457 137.256 31.2885 137.233 31.4207C137.209 31.5529 137.188 31.6654 137.165 31.7582C137.142 31.8511 137.119 31.9297 137.095 31.9958C137.076 32.0548 137.047 32.1108 137.012 32.1618C136.977 32.2091 136.939 32.2528 136.896 32.2922C136.787 32.3694 136.667 32.4296 136.539 32.4708C136.31 32.5558 136.076 32.6261 135.837 32.6816C135.556 32.7494 135.239 32.8084 134.882 32.8601C134.509 32.9128 134.133 32.9384 133.756 32.9369C133.134 32.9515 132.515 32.8603 131.924 32.6673C131.456 32.5115 131.041 32.2276 130.727 31.8475C130.413 31.4486 130.215 30.971 130.155 30.467C130.079 29.812 130.106 29.1492 130.235 28.5025C130.346 27.8329 130.555 27.1831 130.853 26.5738C131.119 26.0277 131.482 25.5341 131.922 25.1165C132.34 24.7194 132.833 24.4092 133.371 24.2039C133.934 23.9892 134.533 23.882 135.135 23.8878C135.705 23.8696 136.273 23.9706 136.801 24.1842C137.213 24.3582 137.568 24.6432 137.828 25.0075C138.08 25.3802 138.236 25.8097 138.282 26.2576C138.34 26.7792 138.32 27.3064 138.223 27.8221L138.159 28.1793C138.133 28.4099 138.03 28.625 137.867 28.7901ZM133.423 26.0933C133.244 26.2842 133.096 26.5025 132.986 26.7398C132.866 26.9918 132.775 27.2566 132.715 27.5292H136.09C136.22 26.8934 136.181 26.388 135.973 26.0308C135.765 25.6737 135.376 25.4951 134.807 25.4951C134.54 25.4909 134.274 25.5458 134.03 25.6558C133.802 25.7616 133.596 25.9101 133.423 26.0933ZM147.955 30.8778H147.039L148.108 24.8235C148.155 24.644 148.135 24.4535 148.051 24.2878C147.998 24.2228 147.93 24.1723 147.852 24.141C147.775 24.1098 147.69 24.0988 147.607 24.1092H142.666C142.57 24.107 142.475 24.1221 142.384 24.1538C142.306 24.1829 142.234 24.2293 142.176 24.2896C142.115 24.3543 142.064 24.4285 142.026 24.5092C141.98 24.6032 141.943 24.7013 141.916 24.8021C141.647 25.7201 141.394 26.5071 141.155 27.1631C140.95 27.7386 140.716 28.3031 140.453 28.8543C140.258 29.266 140.031 29.6614 139.774 30.0366C139.565 30.3375 139.335 30.6233 139.086 30.8921H138.639C138.509 30.8795 138.379 30.9123 138.271 30.9849C138.185 31.0853 138.131 31.21 138.118 31.3421L137.405 35.364C137.395 35.4112 137.402 35.4607 137.425 35.5033C137.461 35.5514 137.512 35.586 137.569 35.6015C137.665 35.6335 137.763 35.6544 137.863 35.664C138.176 35.695 138.49 35.695 138.803 35.664C138.908 35.6533 139.013 35.6323 139.114 35.6015C139.181 35.5837 139.242 35.55 139.293 35.5033C139.329 35.4651 139.354 35.4164 139.362 35.364L139.824 32.7369H146.107L145.644 35.364C145.634 35.4119 145.643 35.4617 145.669 35.5033C145.706 35.5497 145.756 35.5839 145.813 35.6015C145.907 35.6338 146.004 35.6548 146.103 35.664C146.257 35.6814 146.411 35.6892 146.565 35.6872C146.726 35.6891 146.886 35.6814 147.046 35.664C147.153 35.6538 147.259 35.6329 147.361 35.6015C147.428 35.5841 147.489 35.5504 147.54 35.5033C147.577 35.4651 147.601 35.4164 147.609 35.364L148.322 31.3421C148.341 31.2832 148.347 31.2209 148.341 31.1593C148.334 31.0977 148.314 31.0383 148.283 30.9849C148.238 30.9459 148.186 30.9164 148.13 30.898C148.073 30.8796 148.014 30.8727 147.955 30.8778ZM144.769 30.8778H141.296C141.474 30.6849 141.652 30.4634 141.848 30.2116C142.07 29.9081 142.267 29.5861 142.434 29.249C142.634 28.8597 142.842 28.3936 143.058 27.8507C143.274 27.3077 143.5 26.6583 143.735 25.9022H145.647L144.769 30.8778ZM151.44 24.0949H157.742C157.821 24.0871 157.902 24.0994 157.976 24.1306C158.05 24.1617 158.115 24.2109 158.166 24.2735C158.248 24.4395 158.268 24.6299 158.221 24.8093L156.884 32.4101C156.874 32.4697 156.845 32.5246 156.802 32.5673C156.745 32.6205 156.675 32.6591 156.599 32.6798C156.483 32.7141 156.364 32.7369 156.243 32.7476C156.088 32.7619 155.905 32.7691 155.692 32.7691C155.48 32.7691 155.301 32.7619 155.158 32.7476C155.042 32.7375 154.927 32.7148 154.816 32.6798C154.75 32.6625 154.692 32.6227 154.652 32.5673C154.626 32.519 154.619 32.4634 154.63 32.4101L155.765 25.9523H152.736L151.601 32.4101C151.59 32.4707 151.559 32.526 151.514 32.5673C151.453 32.6199 151.382 32.6584 151.305 32.6798C151.189 32.7145 151.069 32.7372 150.949 32.7476C150.802 32.7691 150.608 32.7691 150.396 32.7691C150.184 32.7691 150.004 32.7619 149.862 32.7476C149.748 32.7379 149.636 32.7151 149.528 32.6798C149.464 32.6626 149.407 32.6227 149.37 32.5673C149.344 32.5192 149.336 32.4636 149.347 32.4101L150.685 24.8093C150.712 24.6098 150.798 24.423 150.933 24.2735C151.001 24.2113 151.081 24.1635 151.169 24.1328C151.256 24.1021 151.348 24.0892 151.44 24.0949ZM167.566 25.1825C167.383 24.7921 167.09 24.4641 166.723 24.2396C166.285 23.9922 165.787 23.8723 165.285 23.8931C165.013 23.8921 164.741 23.9226 164.476 23.9842C164.209 24.0455 163.95 24.1372 163.704 24.2574C163.436 24.3888 163.18 24.5423 162.938 24.7164C162.681 24.895 162.414 25.1111 162.14 25.3504L162.305 24.4056C162.317 24.3527 162.311 24.2974 162.287 24.2485C162.257 24.1958 162.208 24.156 162.15 24.136C162.059 24.1009 161.964 24.0781 161.867 24.0681C161.718 24.0524 161.568 24.0453 161.418 24.0467C161.262 24.0452 161.106 24.0523 160.951 24.0681C160.846 24.0791 160.743 24.1018 160.643 24.136C160.575 24.1577 160.513 24.1964 160.464 24.2485C160.427 24.2936 160.402 24.3478 160.391 24.4056L158.421 35.614C158.41 35.6688 158.418 35.7258 158.445 35.7747C158.484 35.8323 158.542 35.8751 158.608 35.8962C158.714 35.9358 158.826 35.9616 158.939 35.973C159.117 35.9925 159.295 36.0015 159.474 35.9998C159.658 36.0017 159.843 35.9927 160.026 35.973C160.147 35.9603 160.267 35.9345 160.383 35.8962C160.459 35.8725 160.53 35.8309 160.587 35.7747C160.63 35.7303 160.658 35.6744 160.669 35.614L161.334 31.835C161.479 32.008 161.636 32.1703 161.805 32.3208C161.952 32.4542 162.114 32.5705 162.287 32.6672C162.455 32.761 162.635 32.8307 162.822 32.8744C163.028 32.9217 163.24 32.9444 163.451 32.9423C163.987 32.9477 164.518 32.8368 165.007 32.6172C165.486 32.3996 165.914 32.0845 166.265 31.6921C166.649 31.2574 166.962 30.7635 167.19 30.2295C167.458 29.6125 167.649 28.9646 167.758 28.3007C167.863 27.7374 167.903 27.1641 167.879 26.5916C167.869 26.1057 167.762 25.6268 167.566 25.1825ZM165.388 28.4579C165.333 28.7709 165.247 29.0777 165.132 29.374C165.023 29.6666 164.876 29.9434 164.695 30.1973C164.531 30.4308 164.324 30.6308 164.086 30.7867C163.85 30.9376 163.576 31.0159 163.296 31.0117C162.985 31.0124 162.685 30.895 162.457 30.6831C162.164 30.4118 161.914 30.0982 161.714 29.7526L162.179 27.1077C162.373 26.895 162.579 26.6941 162.797 26.5059C162.964 26.3587 163.143 26.226 163.332 26.1094C163.484 26.0156 163.649 25.9418 163.82 25.8897C163.968 25.8456 164.122 25.8228 164.276 25.8219C164.532 25.807 164.785 25.885 164.989 26.0415C165.17 26.1974 165.302 26.4019 165.37 26.6309C165.454 26.9031 165.492 27.1874 165.483 27.472C165.478 27.8027 165.447 28.1324 165.388 28.4579ZM177.882 24.1217C177.943 24.1407 177.995 24.183 178.026 24.2396C178.048 24.2915 178.053 24.3489 178.04 24.4039L176.625 32.4547C176.615 32.5122 176.588 32.5655 176.549 32.6083C176.493 32.6575 176.427 32.6924 176.355 32.7101C176.242 32.7414 176.126 32.7611 176.009 32.7691C175.87 32.7869 175.685 32.7869 175.474 32.7869H175.474C175.264 32.7869 175.084 32.7816 174.94 32.7691C174.819 32.7619 174.7 32.7421 174.583 32.7101C174.515 32.6944 174.453 32.659 174.405 32.6083C174.389 32.5863 174.379 32.5613 174.373 32.5349C174.367 32.5084 174.367 32.4812 174.373 32.4547L174.988 28.8686C175.032 28.6222 175.086 28.3561 175.148 28.0864C175.21 27.8167 175.278 27.5524 175.355 27.2952C175.166 27.5471 174.965 27.7971 174.756 28.0382C174.548 28.2793 174.334 28.5222 174.118 28.7615L170.77 32.4404C170.713 32.4989 170.654 32.5543 170.592 32.6065C170.53 32.6534 170.462 32.6897 170.388 32.7137C170.294 32.7447 170.196 32.7633 170.096 32.7691C169.98 32.7815 169.832 32.7815 169.654 32.7815H169.654C169.439 32.7815 169.264 32.7762 169.132 32.7637C169.026 32.7562 168.92 32.7364 168.818 32.7048C168.757 32.6881 168.703 32.6502 168.667 32.5976C168.642 32.5494 168.634 32.4937 168.646 32.4404L170.062 24.3896C170.072 24.3339 170.098 24.2823 170.137 24.2414C170.193 24.1877 170.262 24.149 170.337 24.1288C170.453 24.0944 170.572 24.0717 170.693 24.061C170.832 24.0395 171.012 24.0395 171.228 24.0395H171.228C171.528 24.024 171.828 24.0541 172.119 24.1288C172.281 24.1896 172.352 24.2771 172.333 24.3896L171.705 27.9525C171.663 28.1971 171.609 28.4543 171.545 28.7168C171.481 28.9794 171.411 29.2347 171.338 29.4812L171.392 29.4127L171.392 29.412C171.56 29.1969 171.729 28.9797 171.903 28.7668C172.096 28.5311 172.293 28.3007 172.5 28.0793L175.886 24.3914C175.939 24.3296 175.999 24.2739 176.064 24.2253C176.131 24.1776 176.206 24.1414 176.285 24.1181C176.385 24.0884 176.488 24.0687 176.592 24.0592C176.743 24.0456 176.895 24.0396 177.048 24.0413C177.256 24.0413 177.429 24.0467 177.564 24.0592C177.673 24.0655 177.779 24.0865 177.882 24.1217ZM186.471 24.1128C186.293 24.0949 186.115 24.0788 185.883 24.0628L185.209 24.0235C184.981 24.011 184.755 24.0021 184.532 23.9967C184.309 23.9913 184.103 23.9878 183.917 23.9878C183.318 23.9808 182.72 24.0437 182.135 24.1753C181.658 24.281 181.2 24.4619 180.779 24.7111C180.417 24.9286 180.105 25.2215 179.865 25.5701C179.632 25.9149 179.476 26.3059 179.407 26.7166C179.306 27.2917 179.387 27.7578 179.649 28.115C179.951 28.4954 180.378 28.7551 180.854 28.8472C180.524 28.976 180.221 29.1669 179.963 29.4098C179.668 29.6857 179.413 30.002 179.206 30.3492L178.436 31.6189C178.258 31.894 178.14 32.094 178.079 32.2154C178.027 32.3042 177.988 32.3997 177.962 32.4994C177.955 32.5257 177.955 32.5533 177.96 32.5799C177.966 32.6065 177.977 32.6315 177.994 32.653C178.044 32.697 178.106 32.725 178.172 32.7333C178.286 32.7544 178.401 32.7663 178.516 32.7691H179.051C179.291 32.7691 179.489 32.7691 179.648 32.7512C179.78 32.7433 179.911 32.7223 180.04 32.6887C180.131 32.6648 180.216 32.6202 180.287 32.5583C180.354 32.4933 180.41 32.4186 180.455 32.3369L181.227 30.9617C181.368 30.6978 181.527 30.4436 181.702 30.2009C181.833 30.0193 181.987 29.856 182.16 29.7152C182.306 29.5985 182.472 29.51 182.65 29.4544C182.868 29.3979 183.093 29.3721 183.319 29.3776H183.91L183.376 32.4137C183.363 32.4696 183.37 32.5282 183.395 32.5798C183.434 32.6347 183.491 32.6745 183.556 32.6923C183.664 32.7273 183.777 32.7483 183.891 32.7548C184.031 32.7673 184.21 32.7726 184.425 32.7726C184.641 32.7726 184.858 32.7726 185.008 32.7548C185.129 32.7487 185.249 32.7277 185.364 32.6923C185.433 32.6724 185.495 32.6334 185.542 32.5798C185.579 32.5313 185.603 32.4741 185.612 32.4137L186.954 24.7861C186.994 24.6236 186.973 24.4518 186.895 24.3039C186.847 24.238 186.782 24.1859 186.708 24.1524C186.634 24.1189 186.552 24.1053 186.471 24.1128ZM184.154 27.9168H183.185C182.911 27.924 182.637 27.8988 182.369 27.8417C182.197 27.8024 182.036 27.7255 181.897 27.6167C181.782 27.5216 181.7 27.392 181.665 27.247C181.63 27.0828 181.63 26.913 181.665 26.7488C181.698 26.5783 181.758 26.4142 181.843 26.263C181.932 26.1091 182.054 25.9768 182.199 25.8755C182.37 25.7591 182.56 25.6738 182.761 25.6237C183.026 25.5596 183.297 25.5296 183.57 25.5344C183.727 25.5344 183.892 25.5344 184.071 25.5522C184.241 25.5634 184.41 25.5842 184.578 25.6147L184.154 27.9168ZM194.91 25.0932C194.883 25.2599 194.847 25.4251 194.802 25.5879C194.775 25.6964 194.737 25.8017 194.688 25.9022C194.655 25.9674 194.607 26.0233 194.547 26.0648C194.5 26.0941 194.446 26.1095 194.39 26.1094H192.371L191.261 32.4244C191.25 32.484 191.222 32.5389 191.179 32.5815C191.122 32.6337 191.054 32.6721 190.979 32.694C190.863 32.7291 190.744 32.7518 190.623 32.7619C190.469 32.7762 190.283 32.7833 190.067 32.7833C189.851 32.7833 189.673 32.7762 189.532 32.7619C189.418 32.7521 189.306 32.7294 189.197 32.694C189.133 32.6758 189.077 32.6361 189.039 32.5815C189.013 32.5333 189.006 32.4776 189.017 32.4244L190.128 26.1094H188.109C188.055 26.1118 188.003 26.0947 187.961 26.0612C187.915 26.016 187.886 25.957 187.877 25.8933C187.86 25.7865 187.856 25.6778 187.866 25.5701C187.877 25.4326 187.898 25.2647 187.932 25.0664C187.958 24.9131 187.994 24.7615 188.039 24.6128C188.072 24.5088 188.114 24.4078 188.164 24.311C188.196 24.2459 188.243 24.1891 188.301 24.1449C188.348 24.1114 188.405 24.0939 188.463 24.0949H194.736C194.787 24.0937 194.837 24.1115 194.877 24.1449C194.921 24.1898 194.95 24.2482 194.959 24.311C194.975 24.4137 194.98 24.518 194.971 24.6217C194.96 24.7799 194.939 24.9373 194.91 25.0932ZM203.877 24.1217C203.775 24.0865 203.668 24.0655 203.56 24.0592C203.425 24.0467 203.252 24.0413 203.043 24.0413C202.891 24.0396 202.739 24.0456 202.587 24.0592C202.483 24.0687 202.381 24.0884 202.281 24.1181C202.202 24.1414 202.127 24.1776 202.06 24.2253C201.995 24.2739 201.935 24.3296 201.882 24.3914L198.496 28.0793C198.289 28.3007 198.09 28.5311 197.899 28.7668C197.708 29.0026 197.518 29.2437 197.332 29.4812C197.405 29.2347 197.475 28.9794 197.539 28.7168C197.603 28.4543 197.657 28.1971 197.701 27.9525L198.327 24.3896C198.348 24.2771 198.275 24.1896 198.113 24.1288C197.822 24.054 197.521 24.0239 197.222 24.0395C197.006 24.0395 196.828 24.0395 196.687 24.061C196.566 24.0717 196.447 24.0944 196.331 24.1288C196.256 24.1489 196.188 24.1876 196.133 24.2413C196.093 24.2817 196.066 24.3334 196.056 24.3896L194.631 32.4404C194.619 32.4939 194.627 32.5499 194.654 32.5976C194.689 32.651 194.743 32.6892 194.805 32.7047C194.907 32.7366 195.011 32.7564 195.117 32.7637C195.249 32.7762 195.424 32.7815 195.639 32.7815H195.64C195.818 32.7815 195.965 32.7815 196.081 32.769C196.181 32.7635 196.279 32.7449 196.373 32.7137C196.447 32.6904 196.516 32.6541 196.577 32.6065C196.639 32.5543 196.698 32.4989 196.755 32.4404L200.103 28.7615C200.319 28.5222 200.533 28.2793 200.743 28.0382C200.953 27.7971 201.151 27.5471 201.34 27.2952C201.265 27.5524 201.196 27.8167 201.133 28.0864C201.071 28.3561 201.017 28.6222 200.973 28.8686L200.37 32.4547C200.365 32.481 200.365 32.5082 200.37 32.5347C200.375 32.5611 200.386 32.5862 200.401 32.6083C200.449 32.659 200.511 32.6944 200.579 32.7101C200.695 32.7421 200.815 32.7619 200.935 32.769C201.08 32.7815 201.26 32.7869 201.47 32.7869H201.47C201.68 32.7869 201.866 32.7869 202.005 32.769C202.125 32.7615 202.244 32.7418 202.361 32.7101C202.432 32.692 202.498 32.6571 202.553 32.6083C202.594 32.5659 202.62 32.5124 202.63 32.4547L204.056 24.4039C204.065 24.3497 204.059 24.2938 204.038 24.2431C204.021 24.2128 203.998 24.1863 203.97 24.1654C203.943 24.1444 203.911 24.1296 203.877 24.1217ZM212.517 25.0039C212.769 25.3766 212.925 25.8061 212.971 26.2541C213.025 26.7712 213.003 27.2936 212.905 27.8042L212.843 28.1614C212.816 28.3918 212.713 28.6067 212.55 28.7722C212.404 28.9038 212.213 28.9746 212.016 28.9704H207.142C207.083 29.2769 207.069 29.5903 207.099 29.9009C207.122 30.158 207.213 30.4045 207.361 30.6153C207.515 30.8191 207.724 30.9736 207.964 31.0599C208.276 31.1707 208.607 31.2227 208.938 31.2135C209.292 31.2169 209.646 31.1882 209.995 31.1278C210.268 31.0792 210.538 31.0161 210.804 30.9385C211.034 30.8796 211.226 30.8171 211.38 30.7599C211.496 30.7111 211.619 30.6822 211.745 30.6742C211.79 30.6723 211.834 30.6828 211.873 30.7045C211.91 30.732 211.935 30.7721 211.945 30.8171C211.957 30.8933 211.957 30.9712 211.945 31.0474C211.936 31.1457 211.914 31.2885 211.891 31.4207C211.868 31.5529 211.847 31.6654 211.823 31.7582C211.805 31.8386 211.783 31.9179 211.756 31.9958C211.735 32.0545 211.707 32.1104 211.672 32.1618C211.638 32.2095 211.598 32.2533 211.554 32.2922C211.448 32.3689 211.331 32.4291 211.207 32.4708C210.977 32.5558 210.743 32.6261 210.505 32.6815C210.223 32.7494 209.904 32.8083 209.548 32.8601C209.175 32.9129 208.798 32.9386 208.422 32.9369C207.804 32.9502 207.189 32.859 206.602 32.6673C206.134 32.512 205.719 32.2279 205.405 31.8475C205.094 31.4466 204.901 30.9677 204.845 30.4635C204.77 29.8084 204.797 29.1456 204.925 28.499C205.036 27.8294 205.244 27.1797 205.542 26.5702C205.809 26.0246 206.171 25.5311 206.611 25.1129C207.029 24.7162 207.52 24.4061 208.058 24.2003C208.622 23.9858 209.221 23.8786 209.824 23.8842C210.394 23.866 210.961 23.967 211.49 24.1806C211.901 24.3556 212.256 24.6404 212.517 25.0039ZM207.397 27.531H210.772C210.902 26.8952 210.859 26.3827 210.653 26.0255C210.446 25.6683 210.056 25.4897 209.489 25.4897C209.221 25.4856 208.955 25.5404 208.71 25.6504C208.482 25.7563 208.277 25.9048 208.104 26.088C207.925 26.2789 207.778 26.4971 207.668 26.7345C207.546 26.9884 207.456 27.2557 207.397 27.531Z" fill="white"/>
</svg>
