<svg width="220" height="34" viewBox="0 0 220 34" fill="none" xmlns="http://www.w3.org/2000/svg">
<path fill-rule="evenodd" clip-rule="evenodd" d="M139.207 24.8223L140.858 28.7354C138.81 30.4854 136.208 31.4522 133.514 31.4639C131.935 31.4974 130.365 31.2153 128.896 30.6341C127.427 30.0529 126.089 29.1843 124.96 28.0792C123.831 26.974 122.934 25.6547 122.322 24.1984C121.709 22.7421 121.394 21.1782 121.394 19.5985C121.394 18.0187 121.709 16.4549 122.322 14.9986C122.934 13.5423 123.831 12.223 124.96 11.1178C126.089 10.0127 127.427 9.14406 128.896 8.56287C130.365 7.98167 131.935 7.69958 133.514 7.73315C136.202 7.72857 138.805 8.67836 140.858 10.4134L139.207 14.3211C137.702 12.8514 135.682 12.0297 133.579 12.0322C132.57 12.0053 131.567 12.1808 130.627 12.5481C129.687 12.9155 128.831 13.4673 128.108 14.1711C127.386 14.8748 126.811 15.7162 126.419 16.6456C126.027 17.5751 125.824 18.5736 125.824 19.5824C125.824 20.5912 126.027 21.5898 126.419 22.5192C126.811 23.4486 127.386 24.29 128.108 24.9938C128.831 25.6975 129.687 26.2494 130.627 26.6167C131.567 26.9841 132.57 27.1595 133.579 27.1326C134.624 27.1437 135.66 26.9449 136.627 26.5481C137.594 26.1512 138.471 25.5643 139.207 24.8223ZM116.473 26.1995C117.778 24.2464 118.474 21.9501 118.473 19.6012C118.467 16.4614 117.219 13.4514 115.002 11.2287C112.784 9.00603 109.777 7.75127 106.637 7.73851C104.288 7.73217 101.99 8.42293 100.034 9.72336C98.0781 11.0238 96.5519 12.8754 95.6489 15.0438C94.7458 17.2121 94.5065 19.5997 94.9613 21.9041C95.416 24.2085 96.5443 26.3262 98.2033 27.989C99.8623 29.6518 101.977 30.7849 104.281 31.2448C106.584 31.7047 108.972 31.4708 111.143 30.5727C113.313 29.6746 115.168 28.1526 116.473 26.1995ZM112.911 15.4045C113.741 16.6467 114.184 18.1071 114.184 19.6012H114.142C114.146 21.5973 113.358 23.5136 111.951 24.9296C110.544 26.3455 108.633 27.1456 106.637 27.1541C105.143 27.1551 103.682 26.7131 102.439 25.8838C101.197 25.0545 100.228 23.8753 99.6552 22.4953C99.0827 21.1153 98.9323 19.5965 99.2232 18.131C99.514 16.6655 100.233 15.3192 101.289 14.2624C102.345 13.2056 103.691 12.4857 105.156 12.1939C106.621 11.902 108.14 12.0512 109.521 12.6228C110.901 13.1942 112.081 14.1623 112.911 15.4045ZM88.4114 30.9278H93.8469L83.587 19.0973L93.3377 8.27456H87.8754L79.8347 17.65V8.27456H75.5195V30.9278H79.8347V21.0164L88.4114 30.9278ZM166.738 30.9278H171.322L168.068 8.27456H163.753L157.819 22.8389L151.885 8.27456H147.569L144.353 30.9278H148.942L150.829 16.0955L156.773 30.9278H158.917L164.851 16.0955L166.738 30.9278ZM197.368 19.6012C197.369 21.9487 196.674 24.2438 195.37 26.1962C194.067 28.1486 192.214 29.6706 190.045 30.5697C187.877 31.4687 185.49 31.7045 183.188 31.2472C180.885 30.7899 178.77 29.66 177.11 28.0004C175.45 26.3409 174.319 24.2262 173.86 21.9238C173.402 19.6215 173.637 17.235 174.535 15.0661C175.433 12.8972 176.954 11.0433 178.906 9.73903C180.858 8.43471 183.152 7.73851 185.5 7.73851C188.645 7.74417 191.659 8.99565 193.884 11.2189C196.108 13.4422 197.361 16.4563 197.368 19.6012ZM193.053 19.6012C193.053 18.1074 192.61 16.6471 191.78 15.405C190.95 14.163 189.77 13.1949 188.39 12.6233C187.01 12.0516 185.492 11.902 184.026 12.1934C182.561 12.4849 181.215 13.2042 180.159 14.2605C179.103 15.3168 178.384 16.6626 178.092 18.1277C177.801 19.5928 177.95 21.1114 178.522 22.4916C179.094 23.8717 180.062 25.0513 181.304 25.8812C182.546 26.7111 184.006 27.1541 185.5 27.1541C186.492 27.1562 187.475 26.9623 188.393 26.5835C189.31 26.2047 190.144 25.6484 190.845 24.9466C191.547 24.2448 192.103 23.4114 192.482 22.4941C192.861 21.5767 193.055 20.5936 193.053 19.6012ZM219.753 28.7354L218.097 24.8223C217.361 25.5643 216.484 26.1512 215.517 26.5481C214.55 26.9449 213.513 27.1437 212.468 27.1326C211.46 27.1595 210.456 26.9841 209.517 26.6167C208.577 26.2494 207.721 25.6975 206.998 24.9938C206.275 24.29 205.701 23.4486 205.309 22.5192C204.916 21.5898 204.714 20.5912 204.714 19.5824C204.714 18.5736 204.916 17.5751 205.309 16.6456C205.701 15.7162 206.275 14.8748 206.998 14.1711C207.721 13.4673 208.577 12.9155 209.517 12.5481C210.456 12.1808 211.46 12.0053 212.468 12.0322C214.572 12.0297 216.592 12.8514 218.097 14.3211L219.753 10.4134C217.697 8.67921 215.094 7.72962 212.404 7.73315C210.825 7.69958 209.254 7.98167 207.785 8.56287C206.316 9.14406 204.978 10.0127 203.849 11.1178C202.721 12.223 201.824 13.5423 201.211 14.9986C200.599 16.4549 200.284 18.0187 200.284 19.5985C200.284 21.1782 200.599 22.7421 201.211 24.1984C201.824 25.6547 202.721 26.974 203.849 28.0792C204.978 29.1843 206.316 30.0529 207.785 30.6341C209.254 31.2153 210.825 31.4974 212.404 31.4639C215.099 31.4511 217.703 30.4845 219.753 28.7354Z" fill="white"/>
<path d="M18.9806 11.0215C18.4446 11.3806 1.77892 21.1581 6.2549 27.0385C10.7309 32.9189 33.3198 24.8568 39.4093 21.9514C45.4987 19.0461 55.2655 13.1496 55.2655 13.1496L57.088 13.1174C52.1828 17.7719 46.6944 21.7703 40.7601 25.0123C31.4329 29.9653 7.02144 39.1263 1.33937 30.3405C-2.42367 24.5245 14.6118 12.3884 18.9806 11.0215Z" fill="white"/>
<path fill-rule="evenodd" clip-rule="evenodd" d="M38.5078 13.7603L70.5472 0L61.4773 17.8074L58.9151 11.5196L38.5078 13.7603Z" fill="white"/>
</svg>
