<svg width="158" height="50" viewBox="0 0 158 50" fill="none" xmlns="http://www.w3.org/2000/svg">
<path d="M0 24.4732L10.6297 23L17 28.9655L15.4647 37.2502L6.0632 42L7.82825 31.7634L0 24.4732Z" fill="white"/>
<path d="M0 19.7682L18.7584 17.04L24.8872 4.67144L30.9419 16.9285L44.574 19.021L34.7302 28.6998L37.0706 42.2275L24.7382 35.8742L8.22736 44.6559L15.4896 50L24.8131 45.1418L34.2473 50L45.2052 41.9285L43.3851 31.3903L51 24.1029L46.8395 11.061L36.2531 9.60425L31.6104 0H18.0898L13.4098 9.64117L2.86 11.1363L0 19.7682Z" fill="white"/>
<path fill-rule="evenodd" clip-rule="evenodd" d="M132.576 11.4956C132.364 11.4956 132.157 11.4965 131.953 11.4973C131.324 11.5 130.723 11.5025 130.124 11.4791C130.009 11.4791 129.816 11.2606 129.805 11.131C129.763 10.5701 129.75 10.0075 129.767 9.44527C129.775 9.16287 129.924 8.99072 130.254 9.00039C130.906 9.02166 131.558 9.01103 132.21 9.00039C132.432 9.00039 132.58 9.04391 132.578 9.31181C132.574 9.8286 132.574 10.3433 132.575 10.8826C132.575 11.0831 132.576 11.287 132.576 11.4956ZM124.774 25.6051H126.604L126.601 9.01586C126.378 9.01586 126.159 9.01898 125.944 9.02205C125.45 9.0291 124.972 9.03592 124.497 9.00426C124.025 8.97331 123.948 9.16383 123.948 9.58453C123.968 11.4221 123.968 13.2596 123.968 15.0972V15.6359C122.855 14.4376 121.543 14.0778 120.117 14.0391C119.943 14.0342 119.77 14.0767 119.595 14.1194C119.461 14.1522 119.327 14.185 119.192 14.1968C118.308 14.2732 117.56 14.6842 116.92 15.2461C116.19 15.8783 115.63 16.6885 115.295 17.6001C115.014 18.4014 114.881 19.2482 114.903 20.0982C114.913 20.9299 115.126 21.7859 115.391 22.5837C115.736 23.6244 116.409 24.4474 117.346 25.0596C118.04 25.5132 118.785 25.7066 119.579 25.8817C120.579 26.0973 121.498 25.8923 122.358 25.4948C122.85 25.2675 123.294 24.9315 123.74 24.594L123.74 24.594L123.74 24.5939C123.937 24.4446 124.135 24.295 124.337 24.1544L124.774 25.6051ZM123.36 17.752C123.844 18.4551 124.032 18.7858 123.979 20.0924V20.0934C124.075 21.193 123.653 22.1727 122.749 22.8874C121.823 23.6176 120.279 23.7549 119.175 23.0054C117.919 22.1543 117.437 20.6553 117.802 19.1079C117.974 18.3719 118.217 17.7249 118.805 17.2568C119.662 16.575 120.6 16.3825 121.694 16.6456C122.42 16.8196 122.978 17.1949 123.36 17.752ZM68.0229 25.5848H70.8201L70.8201 25.5048C70.82 25.3513 70.8199 25.2162 70.824 25.0789C70.8243 24.4985 70.8238 23.9181 70.8233 23.3376C70.8221 21.9838 70.821 20.63 70.8297 19.2762C70.8373 17.9889 71.4779 17.1195 72.669 16.6562C73.8296 16.2046 75.0026 17.0837 75.0217 18.2868C75.0487 19.9206 75.0441 21.5548 75.0395 23.1889V23.189V23.1891V23.1892V23.1893V23.1894V23.1895V23.1896V23.1897V23.1898C75.0378 23.8121 75.036 24.4345 75.036 25.0567V25.5664H77.8523V25.0461C77.8523 24.5533 77.8506 24.0606 77.8489 23.5679C77.8446 22.3363 77.8403 21.1048 77.8629 19.8739C77.868 19.2719 77.9516 18.6732 78.1114 18.0934C78.3781 17.1727 79.0683 16.6311 79.9966 16.5508C81.3493 16.4338 82.0242 17.2065 82.0701 18.4995C82.1251 20.0553 82.1141 21.6119 82.103 23.1682C82.0985 23.8043 82.094 24.4402 82.094 25.076V25.579H84.7784C84.7784 24.8423 84.7813 24.108 84.7842 23.3755V23.3751V23.3746V23.3742V23.3738V23.3733V23.3729V23.3725V23.3721V23.372V23.372V23.3719V23.3719V23.3719V23.3718V23.3718V23.3718C84.7922 21.3485 84.8002 19.3391 84.7469 17.3313C84.7297 16.7307 84.3855 16.0953 84.0605 15.5566C83.5987 14.7867 82.8693 14.3699 81.9736 14.1349C81.0778 13.8999 80.2433 14.0024 79.4402 14.2867C78.6047 14.5817 77.8523 15.0807 77.4069 15.9898C76.5981 14.6407 75.4385 13.9879 73.9653 14.015C72.4922 14.042 71.3536 14.7239 70.4932 16.0459C70.4584 15.9433 70.4234 15.8513 70.3909 15.766L70.3909 15.766C70.3279 15.6007 70.2743 15.4603 70.2504 15.3148L70.2467 15.2922C70.0946 14.367 70.0946 14.367 69.1558 14.367H68.63C68 14.367 68 14.367 68 15.0247V25.1795C68 25.2647 68.0062 25.3495 68.0132 25.4446L68.0132 25.4446C68.0165 25.4887 68.0199 25.5351 68.0229 25.5848ZM89.8996 20.9667C90.0755 21.7665 90.3957 22.4261 90.9951 22.8613C91.4628 23.2167 92.0025 23.4629 92.5753 23.5825C93.1482 23.702 93.7401 23.6919 94.3086 23.5528C94.972 23.4058 95.5638 23.2124 96.0905 22.7791C96.3095 22.5992 96.4892 22.7133 96.6287 22.9474C96.8257 23.2795 97.0331 23.603 97.2449 23.9335C97.3415 24.0841 97.439 24.2363 97.5369 24.3913C96.8429 24.9145 96.1144 25.3643 95.256 25.6409C94.4328 25.9059 93.6145 26.0499 92.7704 25.9842C91.475 25.8875 90.2848 25.5006 89.2333 24.665C88.2658 23.9054 87.5863 22.8321 87.3089 21.6253C86.8567 19.7162 87.112 17.897 88.3452 16.2694C89.2056 15.131 90.2801 14.4047 91.6787 14.192C91.7822 14.1761 91.8863 14.1587 91.9907 14.1413L91.9907 14.1413C92.4649 14.0622 92.9458 13.982 93.408 14.0343C95.2082 14.2355 96.6048 15.044 97.4232 16.7945C97.9967 18.016 97.9795 19.2704 97.9566 20.5489C97.9499 20.9145 97.7061 20.9677 97.4031 20.9667C95.1087 20.9609 92.8144 20.9609 90.52 20.9667H89.8996ZM89.9617 19.0044H95.2674C95.5246 17.5218 94.233 16.4328 93.1882 16.337C91.1644 16.1523 90.0497 17.7326 89.9617 19.0044ZM140.274 16.5459C141.457 16.6427 142.1 17.3767 142.09 18.5769L141.938 18.5892L141.592 18.6169L141.588 18.6172L141.587 18.6173L141.586 18.6173C140.695 18.6885 139.822 18.7582 138.95 18.8477C137.85 18.9455 136.815 19.4145 136.01 20.1795C135.124 21.0093 134.959 22.0847 135.054 23.2453C135.151 24.3826 136.003 25.3681 137.036 25.6041C137.801 25.7785 138.586 25.8407 139.369 25.7888C139.938 25.7492 140.517 25.5132 141.037 25.2308C141.396 25.0359 141.715 24.7659 142.044 24.4883C142.191 24.3636 142.34 24.2374 142.496 24.1157C142.649 24.5838 142.811 25.0857 142.974 25.5896H144.806L144.807 24.1454V24.1425C144.807 21.9087 144.807 19.6957 144.799 17.4821C144.799 17.3695 144.756 17.2576 144.713 17.1451L144.713 17.1451L144.713 17.145L144.713 17.1449C144.687 17.0778 144.662 17.0104 144.645 16.9425C144.237 15.2945 143.026 14.4802 141.523 14.2577C139.621 13.9763 137.68 14.2816 135.952 15.1339C135.556 15.3245 135.578 15.5072 135.674 15.7713C135.802 16.1438 135.95 16.5085 136.107 16.8938L136.107 16.8939C136.171 17.0508 136.236 17.2111 136.302 17.3767C136.371 17.3555 136.441 17.3361 136.511 17.3166C136.662 17.2748 136.812 17.233 136.956 17.1736C138.021 16.7336 139.117 16.4492 140.274 16.5459ZM141.668 20.5563C141.808 20.557 141.947 20.5576 142.085 20.5576V20.5528C142.224 22.0267 141.095 23.7994 139.555 23.6979C139.449 23.6911 139.341 23.6914 139.233 23.6918C138.987 23.6926 138.741 23.6934 138.527 23.6108C137.597 23.253 137.587 22.2346 138.001 21.5441C138.365 20.9367 138.979 20.7636 139.581 20.6156C139.871 20.545 140.174 20.5502 140.484 20.5554C140.594 20.5573 140.705 20.5591 140.817 20.5576C141.101 20.5537 141.386 20.555 141.667 20.5563H141.668H141.668H141.668H141.668H141.668H141.668ZM157.993 25.6022H155.145V25.077C155.145 22.8381 155.145 20.5992 155.139 18.3603C155.133 16.928 153.838 16.3119 152.66 16.6272C151.818 16.8525 151.215 17.2819 150.9 18.0779C150.715 18.5066 150.608 18.965 150.581 19.4319C150.556 20.8044 150.56 22.1789 150.564 23.5514C150.566 24.0629 150.567 24.5741 150.567 25.0848V25.5896H147.903V14.4086H149.752L150.291 16.104C150.374 15.9505 150.467 15.8023 150.568 15.6601C151.592 14.4405 152.91 13.8747 154.471 14.0304C155.905 14.1745 157.137 14.8777 157.655 16.5634C157.932 17.4647 158.004 18.3593 158 19.282C157.995 20.5715 157.997 21.861 157.998 23.1505C157.999 23.7952 158 24.44 158 25.0848L157.993 25.6022ZM100.413 25.5925H103.118C103.12 25.5587 103.122 25.5279 103.124 25.4993V25.4993V25.4992V25.4992C103.129 25.4331 103.132 25.3786 103.132 25.3246C103.132 24.7826 103.13 24.2406 103.128 23.6986C103.122 22.1952 103.117 20.6919 103.155 19.1891C103.188 18.6658 103.352 18.1597 103.633 17.7191C104.186 16.8274 105.78 16.3844 106.736 16.7519C106.859 16.7986 106.985 16.8375 107.099 16.8727C107.145 16.8871 107.19 16.9009 107.232 16.9144C107.305 16.6946 107.371 16.4896 107.433 16.2941L107.433 16.2941L107.433 16.294L107.433 16.2938C107.522 16.0146 107.605 15.7546 107.697 15.4976C108.03 14.5769 107.83 14.2684 106.82 14.19C106.756 14.1903 106.692 14.1851 106.629 14.1745C105.393 13.867 104.343 14.2248 103.441 15.0953C103.315 15.2201 103.196 15.3545 103.06 15.5082C102.968 15.613 102.867 15.7267 102.751 15.8525C102.712 15.7344 102.675 15.6213 102.64 15.512L102.64 15.5119L102.639 15.5117C102.546 15.2241 102.462 14.9635 102.363 14.7084C102.314 14.5817 102.205 14.3941 102.109 14.3883C101.701 14.366 101.293 14.3688 100.866 14.3717H100.866H100.866H100.866H100.866C100.717 14.3727 100.566 14.3738 100.413 14.3738V25.5925ZM112.331 14.4115V25.5886H109.663V14.4115H112.331ZM129.867 25.6041H132.555L132.553 14.4125H129.867V25.6041ZM109.656 9.03036V11.4617H112.275V9.03036H109.656Z" fill="white"/>
<path fill-rule="evenodd" clip-rule="evenodd" d="M72.5816 34.3569L73.0426 34.9601C73.1159 34.8747 73.1931 34.7985 73.2618 34.7306C73.393 34.601 73.4935 34.5017 73.4778 34.4273C73.4424 34.2533 73.2368 34.007 73.0771 34.0001C72.9658 33.9954 72.8496 34.1076 72.7333 34.2198C72.6826 34.2688 72.6319 34.3177 72.5816 34.3569ZM82.9685 39.0577L83.2267 39.5211C82.605 40.2053 81.8015 40.1476 81.0191 40.0294C80.4451 39.9414 80.0472 39.5074 79.832 38.9717C79.2724 37.5817 79.7517 36.3217 81.1434 35.8056C81.813 35.5593 82.4309 35.8447 83.0077 36.178C83.0698 36.2132 83.0651 36.4566 83.0163 36.569C82.9895 36.6286 82.7714 36.6668 82.6891 36.6228C81.8331 36.1555 81.0956 36.2494 80.5484 36.916C79.8511 37.7635 80.2414 39.2043 81.372 39.4995C81.9529 39.6491 82.3642 39.4093 82.8157 39.1461C82.866 39.1168 82.9168 39.0871 82.9685 39.0577ZM89.7579 40.0215L89.1629 40.0479V39.2659C89.1629 39.0155 89.1621 38.7651 89.1613 38.5146C89.1591 37.8052 89.1569 37.0957 89.1725 36.3862C89.1725 36.2527 89.2336 36.122 89.2946 35.9914C89.3229 35.9308 89.3512 35.8703 89.3733 35.8095L89.6699 36.2738C89.7937 36.2255 89.9224 36.1627 90.0545 36.0982C90.3661 35.9461 90.6961 35.7851 91.0233 35.7851C91.3448 35.7851 91.6581 35.9564 91.978 36.1314C92.1216 36.2099 92.2665 36.2892 92.4141 36.354C92.6925 35.8926 93.4108 35.5905 94.0307 35.7675C94.6505 35.9444 95.0981 36.4449 95.1134 37.1663C95.1255 37.7798 95.1216 38.3959 95.1175 39.0262V39.0262V39.0263V39.0263V39.0263V39.0264V39.0264V39.0265V39.0265V39.0265L95.1175 39.0276C95.1155 39.3479 95.1134 39.6718 95.1134 40.001L94.5309 40.0401C94.5309 39.8131 94.5317 39.5888 94.5324 39.3665C94.5343 38.795 94.5362 38.2365 94.5252 37.6785C94.5057 37.4421 94.4631 37.2083 94.398 36.9805C94.37 36.8055 94.2838 36.6457 94.154 36.5281C94.0242 36.4104 93.8587 36.342 93.6854 36.3344C93.4806 36.3138 93.2744 36.3561 93.0933 36.4558C92.9121 36.5556 92.7643 36.7084 92.6686 36.8945C92.5297 37.1738 92.4548 37.4816 92.4495 37.7948C92.4278 38.31 92.4321 38.8261 92.4364 39.3516V39.3517C92.4382 39.568 92.44 39.7859 92.44 40.0059L91.866 40.044C91.866 39.803 91.8681 39.5641 91.8702 39.3266C91.8754 38.7253 91.8805 38.1339 91.8517 37.5446C91.8373 37.2513 91.7006 36.9434 91.5533 36.6814C91.3619 36.3403 91.0224 36.2425 90.656 36.3608C90.1137 36.5358 89.7837 36.9473 89.7674 37.4859C89.7542 37.9336 89.7551 38.3818 89.756 38.8311V38.8321C89.7564 39.0348 89.7568 39.2377 89.7559 39.4409L89.7579 40.0215ZM97.0571 39.4829V41.9716L96.51 42V35.8163L96.6305 35.7528C96.7902 35.9424 96.949 36.1331 97.1183 36.3393C97.6425 35.9718 98.2145 35.5974 98.886 35.7802C99.3097 35.8955 99.7813 36.1096 100.061 36.4331C100.826 37.3217 100.836 38.5269 100.103 39.3969C99.3317 40.307 98.2059 40.3373 97.0571 39.4829ZM97.0361 37.9443C96.9194 38.7342 97.5842 39.5347 98.5235 39.5083C99.4628 39.482 99.9582 38.9883 99.9812 37.9893C100.009 36.9043 99.3566 36.3647 98.5139 36.3471C97.7506 36.3344 96.9557 36.9258 97.0361 37.9443ZM102.783 36.4155C103.476 36.1956 104.146 36.7293 104.05 37.4908C103.973 37.4908 103.894 37.4919 103.815 37.4931C103.662 37.4953 103.507 37.4976 103.353 37.4918C102.809 37.4663 102.308 37.5465 101.842 37.8828C101.475 38.1438 101.165 38.7478 101.268 39.1926C101.37 39.6374 101.843 40.0284 102.293 40.0636C102.964 40.1154 103.597 40.0626 104.065 39.4057C104.076 39.4496 104.086 39.4937 104.095 39.5371C104.168 39.8597 104.232 40.1413 104.687 39.9922V37.3158C104.685 37.0749 104.629 36.8377 104.524 36.622C104.419 36.4064 104.268 36.218 104.081 36.071C103.894 35.924 103.677 35.8223 103.446 35.7736C103.216 35.7249 102.977 35.7305 102.748 35.7899C102.485 35.8613 102.224 35.954 101.961 36.048L101.961 36.048C101.841 36.0904 101.722 36.1331 101.601 36.1741C101.613 36.2864 101.623 36.385 101.634 36.4859L101.659 36.7176C101.802 36.6787 101.942 36.6432 102.08 36.6083L102.08 36.6083C102.32 36.5477 102.553 36.4887 102.783 36.4155ZM102.768 38.0707C103.203 37.9418 103.658 37.8071 104.089 38.1692C103.891 39.0675 103.362 39.5553 102.735 39.4839C102.69 39.4787 102.644 39.4751 102.599 39.4716C102.331 39.4506 102.076 39.4306 101.994 39.0734C101.889 38.6276 102.103 38.2395 102.462 38.1545C102.563 38.1313 102.665 38.1012 102.768 38.0707L102.768 38.0707ZM70.7661 37.4957C70.8962 36.6931 70.2792 36.1692 69.5494 36.4038C69.4565 36.4335 69.3641 36.4678 69.2718 36.5021L69.2718 36.5021L69.2718 36.5021L69.2718 36.5021L69.2718 36.5021L69.2718 36.5021L69.2718 36.5021L69.2718 36.5021C69.0599 36.5809 68.8483 36.6596 68.6311 36.6814C68.5571 36.6892 68.4719 36.5761 68.3687 36.4392L68.3687 36.4392L68.3687 36.4392L68.3687 36.4392L68.3687 36.4392L68.3687 36.4392L68.3687 36.4392L68.3687 36.4392C68.3158 36.369 68.2582 36.2926 68.1949 36.223C68.3784 36.1613 68.5413 36.1038 68.6911 36.0509L68.6912 36.0509L68.6912 36.0509L68.6912 36.0509L68.6912 36.0509C68.9688 35.9529 69.2018 35.8707 69.4384 35.8065C70.1835 35.611 71.471 36.0724 71.4136 37.2269C71.3838 37.8234 71.39 38.42 71.3962 39.0144C71.3992 39.2966 71.4021 39.5783 71.4012 39.8593C71.396 39.9068 71.3861 39.9536 71.3716 39.999H71.3715C71.032 40.0215 71.032 40.0215 70.7642 39.4331C70.3385 40.0597 69.7273 40.0939 69.0759 40.0655C68.8905 40.0645 68.7086 40.0135 68.5487 39.9175C68.3887 39.8215 68.2565 39.6841 68.1653 39.5191C67.9204 39.1056 67.9501 38.6726 68.238 38.2816C68.5976 37.7928 69.0568 37.482 69.6842 37.4996C69.8942 37.5007 70.1031 37.4992 70.31 37.4978L70.3101 37.4978L70.3102 37.4978C70.4634 37.4967 70.6155 37.4957 70.7661 37.4957ZM70.8005 38.1369C70.0936 37.8583 69.2184 38.0069 68.8387 38.4693C68.5881 38.7742 68.7048 39.3891 69.0501 39.4467C70.0296 39.609 70.6886 39.2943 70.8005 38.1369ZM83.8121 37.9346C83.7346 39.177 84.7074 40.2102 85.8925 40.0851C87.2384 40.2004 88.0055 39.044 88.0361 37.9854C88.0744 36.743 87.0432 35.7157 85.9165 35.7372C84.673 35.7616 83.8953 36.6218 83.8121 37.9346ZM85.883 39.612C84.9838 39.5592 84.4099 38.9023 84.4099 37.9346V37.9297C84.2932 37.005 85.1962 36.2982 85.8964 36.3266C86.7219 36.3549 87.4555 37.0988 87.4555 37.9561C87.4536 38.7938 86.6339 39.6559 85.883 39.612ZM110.969 41.9482C111.017 41.8213 111.057 41.6907 111.097 41.5613C111.184 41.276 111.271 40.9964 111.432 40.7752C111.928 40.0874 111.655 39.5061 111.375 38.9107C111.341 38.8384 111.307 38.766 111.274 38.6931C111.057 38.2108 110.843 37.727 110.628 37.2433L110.628 37.2423L110.627 37.2407L110.627 37.2394C110.497 36.9461 110.367 36.6527 110.236 36.3598C110.196 36.2688 110.152 36.1791 110.103 36.0778L110.103 36.0777L110.103 36.077L110.102 36.076C110.081 36.0321 110.059 35.986 110.035 35.9366C110.437 35.8496 110.686 35.8447 110.865 36.3383C111.102 36.9879 111.395 37.6163 111.7 38.2725L111.7 38.2726L111.701 38.2731L111.701 38.2739L111.702 38.2751L111.703 38.2772L111.703 38.2778C111.832 38.555 111.963 38.8372 112.094 39.1281C112.158 38.9709 112.222 38.8177 112.285 38.6672L112.286 38.6653L112.286 38.6647L112.289 38.6565L112.291 38.6533C112.439 38.2958 112.582 37.9531 112.718 37.6081C112.789 37.4304 112.853 37.2497 112.917 37.0692L112.917 37.0691C113.041 36.7213 113.164 36.3739 113.33 36.049C113.477 35.7626 113.777 35.7186 114 35.9942C113.9 36.2394 113.801 36.4823 113.702 36.724L113.702 36.725C113.501 37.2162 113.302 37.7025 113.107 38.1936C112.93 38.6355 112.756 39.0786 112.582 39.5219C112.414 39.9503 112.245 40.3789 112.075 40.8064C112.041 40.8865 111.999 40.9641 111.957 41.0415C111.881 41.1823 111.806 41.3219 111.781 41.4721C111.701 41.9511 111.454 42.0801 110.969 41.9482ZM106.024 40.0313H106.605C106.605 39.7894 106.606 39.5521 106.607 39.3179V39.3176V39.3173V39.317V39.3167C106.608 38.799 106.61 38.2969 106.603 37.7958C106.595 37.5732 106.64 37.352 106.735 37.1514C106.829 36.9507 106.97 36.7766 107.146 36.6443C107.807 36.1027 108.477 36.2543 108.772 37.0519C108.849 37.2948 108.886 37.5492 108.881 37.8046C108.886 38.2952 108.885 38.7866 108.883 39.2864C108.882 39.5394 108.881 39.7946 108.881 40.0528L109.455 40.0098C109.455 39.7035 109.46 39.399 109.466 39.0965V39.0964V39.0962V39.0961V39.096C109.479 38.3898 109.492 37.6941 109.433 37.0099C109.375 36.3334 108.862 35.7147 108.064 35.7714C107.721 35.7979 107.386 35.9261 107.061 36.05C106.92 36.1038 106.781 36.1569 106.644 36.2005L106.224 35.8721C106.203 35.9343 106.175 35.9962 106.146 36.058C106.09 36.1817 106.033 36.3051 106.033 36.4302C106.018 37.1334 106.02 37.8366 106.022 38.5394V38.5396V38.5398V38.5399V38.5401V38.5403V38.5404V38.5406V38.5407C106.023 38.7822 106.024 39.0236 106.024 39.2649V40.0313ZM74.7835 39.4898C74.7777 40.0636 74.7883 40.1036 75.4138 39.9658C75.4138 39.6633 75.4127 39.3597 75.4116 39.0553C75.4094 38.4745 75.4072 37.8906 75.4129 37.3051C75.4224 36.7283 76.1121 36.1702 76.6257 36.3716C76.9395 36.4957 77.0877 36.3774 77.0973 36.1506C77.1031 36.0245 76.8591 35.7997 76.6994 35.7684C76.1475 35.6599 75.6874 35.9014 75.3603 36.2924L74.9547 35.8447C74.9317 35.8902 74.9024 35.9356 74.8732 35.9811C74.8101 36.0792 74.7471 36.1772 74.7471 36.2748C74.7467 36.7629 74.7564 37.2499 74.766 37.7372L74.766 37.7373C74.7776 38.3205 74.7892 38.904 74.7835 39.4898ZM73.3296 40.0196H72.747C72.747 39.743 72.7467 39.4675 72.7463 39.1927V39.1927C72.7449 38.1593 72.7435 37.137 72.7623 36.1154C72.7623 36.0488 72.8682 35.9821 72.9741 35.9155C73.0235 35.8844 73.0728 35.8533 73.1115 35.8222C73.1346 35.8561 73.1641 35.89 73.1936 35.9238C73.2565 35.9961 73.3194 36.0683 73.32 36.1409C73.332 37.1429 73.3311 38.1444 73.3301 39.1688V39.1689C73.3298 39.4505 73.3296 39.7339 73.3296 40.0196Z" fill="white"/>
</svg>
