<svg width="182" height="35" viewBox="0 0 182 35" fill="none" xmlns="http://www.w3.org/2000/svg">
<path fill-rule="evenodd" clip-rule="evenodd" d="M23.4373 0.225806C23.4373 0.0240958 23.1909 -0.076759 23.0564 0.0689202L17.668 5.49267C17.5784 5.58232 17.4328 5.58232 17.3544 5.49267L11.9436 0.0689202C11.7979 -0.076759 11.5627 0.0240958 11.5627 0.225806V11.5664H0.225733C0.0240881 11.5664 -0.0767345 11.8129 0.0688981 11.9474L5.49091 17.3263C5.58053 17.416 5.58053 17.5616 5.49091 17.6401L0.0688981 23.0526C-0.0767345 23.1983 0.0240881 23.4336 0.225733 23.4336H11.5627V34.763C11.5627 34.9647 11.8091 35.0656 11.9436 34.9199L17.332 29.4961C17.4216 29.4065 17.5672 29.4065 17.6456 29.4961L23.0564 34.9311C23.2021 35.0768 23.4373 34.9759 23.4373 34.7742V23.4448H34.7631C34.9647 23.4448 35.0655 23.1983 34.9199 23.0638L29.4979 17.6737C29.4083 17.584 29.4083 17.4384 29.4979 17.3599L34.9311 11.9474C35.0767 11.8017 34.9759 11.5664 34.7743 11.5664H23.4373V0.225806Z" fill="white"/>
<path fill-rule="evenodd" clip-rule="evenodd" d="M118.996 22.3732H118.872H118.657C118.262 22.3732 117.934 22.0771 117.889 21.6899V19.4463V17.6924C117.889 11.8044 117.494 10.8478 115.246 9.34445C113.529 8.19418 109.971 7.68169 107.351 8.20557C104.267 8.82057 102.076 10.5858 101.455 12.9661C101.319 13.4786 101.263 13.9455 101.263 13.9455H106.097L106.357 13.3761C107.712 10.4036 112.931 11.5653 112.931 14.8452V15.7108H109.813C103.081 15.7108 100.563 17.4874 100.879 22.0088C101.252 27.3843 109.734 28.8762 113.36 24.2068L113.575 23.9335L113.654 24.3776C113.993 26.1998 114.874 26.6098 117.788 26.6098H119.595V22.3732H118.996ZM110.728 22.7718C107.272 24.4801 103.714 21.0749 107.114 19.3096C107.43 19.1388 108.447 18.968 109.497 18.9794C110.233 18.9917 111.029 19.0209 111.686 19.045C112.239 19.0652 112.693 19.0819 112.931 19.0819C112.931 20.9838 112.061 22.1227 110.728 22.7718ZM135.374 17.2483C135.272 17.2483 135.182 17.1913 135.182 17.1344C135.182 17.0774 135.261 17.0205 135.351 17.0205C139.926 17.0205 138.898 9.82278 134.154 8.5814C132.584 8.17141 122.475 8.20557 122.475 8.20557V26.5985H127.637C134.888 26.5985 136.537 26.3251 138.04 24.3549C140.005 21.7582 138.322 17.2483 135.374 17.2483ZM129.557 11.8044C131.624 11.8386 131.884 11.8614 132.245 12.0778C133.567 12.8636 133.476 14.7313 132.076 15.4261C131.534 15.6994 131.421 15.7108 129.422 15.7108H127.332V11.8044H129.557ZM132.494 22.9882C132.11 23.1363 131.545 23.1704 129.636 23.1704H127.321V19.0932H129.67C131.816 19.1274 132.121 19.1616 132.584 19.3666C134.245 20.141 134.188 22.339 132.494 22.9882ZM51 26.6098V8.20557H55.7213V19.5944L64.4298 8.20557H68.7897V26.6098H63.9667V15.3463L55.4502 26.6098H51ZM142.174 26.6098V8.20557H146.906V19.5944L155.603 8.20557H159.975V26.6098H155.14V15.3463L146.635 26.6098H142.174ZM99.5913 8.20557L94.1584 16.8383L99.9867 26.6098H94.4182L89.9566 19.583H87.8445V26.6098H83.1457V19.583H81.0336L76.572 26.6098H71.0035L76.8318 16.8383L71.3989 8.20557H76.5946L81.1013 15.1983H83.1457V8.20557H87.8445V15.1983H89.8889L94.3956 8.20557H99.5913ZM181.277 22.3732H181.401H182V26.6098H180.193C177.279 26.6098 176.398 26.1998 176.059 24.3776L175.98 23.9335L175.765 24.2068C172.139 28.8762 163.657 27.3843 163.284 22.0088C162.968 17.4874 165.487 15.7108 172.219 15.7108H175.336V14.8452C175.336 11.5653 170.118 10.4036 168.762 13.3761L168.502 13.9455H163.668C163.668 13.9455 163.725 13.4786 163.86 12.9661C164.481 10.5858 166.673 8.82057 169.756 8.20557C172.377 7.68169 175.935 8.19418 177.651 9.34445C179.899 10.8478 180.294 11.8044 180.294 17.6924V19.4463V21.6899C180.34 22.0771 180.667 22.3732 181.062 22.3732H181.277ZM169.53 19.3096C166.13 21.0749 169.688 24.4801 173.145 22.7718C174.466 22.1227 175.347 20.9838 175.347 19.0819C175.11 19.0819 174.655 19.0652 174.102 19.045C173.445 19.0209 172.65 18.9917 171.914 18.9794C170.863 18.968 169.847 19.1388 169.53 19.3096Z" fill="white"/>
</svg>
