<svg width="185" height="49" viewBox="0 0 185 49" fill="none" xmlns="http://www.w3.org/2000/svg">
<path d="M5.32165 43.9377C6.49973 44.3416 9.059 43.9377 9.79021 43.7357L10.1964 46.7248L13.0401 46.8056L16.0868 47.8962L18.1586 47.4923L19.2554 46.644L20.0273 46.8056L20.4741 45.9977L22.4647 46.1189C23.0334 44.6648 23.5209 43.7761 21.0023 42.6451C19.946 42.1604 19.4586 41.3929 19.4586 41.3929C19.4586 41.3121 19.7836 35.9399 19.3773 35.2128C19.093 34.7281 18.6055 33.1932 18.6055 33.1932L19.4179 31.7794L20.1492 31.8198L21.246 35.8591C21.246 35.8591 23.3584 39.656 23.3178 39.9792C23.2772 40.3023 23.399 41.5545 23.399 41.5545C23.399 41.5545 25.8364 44.0589 26.8926 44.3012C27.9488 44.5436 31.7674 43.5742 32.3362 43.5338C32.9049 43.4934 34.6517 40.787 34.8954 39.7772C35.1392 38.7674 34.9361 34.8897 34.8548 34.5261C34.7736 34.1626 33.6767 31.6986 33.6767 31.6986C34.7736 30.0021 35.3017 29.1539 37.1703 28.2248C37.1703 28.2248 38.5921 32.7085 38.7546 34.405C38.8765 36.1015 39.0796 37.6768 39.0796 37.6768L41.0702 40.06C41.0702 40.06 41.9639 44.5032 41.7201 45.2707C41.517 45.9977 43.4263 47.1287 43.4263 47.1287C43.4263 47.1287 45.4169 47.775 46.5949 48.3001C50.0073 49.7947 48.7886 48.4617 51.0229 48.2597C51.4697 48.2193 52.7291 48.2193 53.0134 47.977C54.1509 46.9268 52.4041 47.2903 55.6539 46.7652C55.6539 46.7652 56.2633 45.2707 55.6946 44.6648C54.2321 43.0086 51.0635 42.5239 50.901 41.6353L50.6166 30.2041C50.6166 30.2041 48.748 26.4879 48.6667 25.6801C48.5855 24.8722 48.2199 22.4083 48.2199 22.4083C48.2199 22.4083 48.9105 20.9137 49.1948 20.6714C49.4386 20.429 51.7947 19.096 51.7947 19.096C51.7947 19.096 52.9322 16.6321 53.8259 15.9454C54.8821 15.1375 57.2382 15.0163 57.5632 14.8144C57.5632 14.8144 60.2037 11.9465 61.1381 11.5829C62.0724 11.2194 64.4692 10.8155 64.4692 10.8155L66.7035 9.84605L66.6628 8.79584L66.0941 8.47269C66.0941 8.47269 68.044 7.22051 68.4909 6.45305C69.1815 5.24126 69.3034 4.27183 68.0034 3.78711C67.2722 3.50436 65.9723 2.89847 65.9723 2.89847C65.9723 2.89847 62.763 2.53493 62.3568 2.41375C61.9505 2.29257 61.7881 1.40393 61.4224 1.20196C61.1381 1.04039 60.4881 1 59.6757 1C58.7007 1 57.482 1.08078 56.4258 1.16157C55.2071 1.24236 54.1915 1.36354 54.029 1.32314C53.5821 1.20197 51.0635 1.28275 51.0635 1.28275C51.0635 1.28275 47.9761 2.131 46.9199 2.25218C44.4825 2.45414 40.3389 4.79693 38.8765 4.91811C38.5515 4.91811 30.8331 5.68558 29.6956 5.72597C28.5988 5.76637 24.5771 4.11025 23.4396 3.98907C22.3022 3.8679 19.093 3.90829 17.5899 4.02947C14.5838 4.27183 10.4808 6.77619 8.61214 8.27073C8.61214 8.27073 3.04675 12.9967 2.47802 16.6725C1.9093 20.3886 2.39677 24.6299 2.39677 24.6299L4.26545 31.0927L0 31.739C0.0406233 32.9104 1.01558 41.2718 2.35615 42.5643C2.39677 42.4835 4.54981 43.6549 5.32165 43.9377Z" fill="white"/>
<path fill-rule="evenodd" clip-rule="evenodd" d="M40.8835 6.31064C40.802 5.67077 40.8428 5.11088 41.1281 4.59099C41.2504 4.35104 42.2287 3.67118 42.6771 4.19107C41.6988 5.35083 41.7396 6.47061 41.8618 7.91031C41.8799 8.0607 41.9059 8.21304 41.9315 8.363L41.9315 8.36304C42.0217 8.89104 42.1068 9.38965 41.8211 9.66995C41.6988 9.82992 41.6988 10.5898 41.8618 10.7897C41.9988 11.0047 41.9701 11.1475 41.9241 11.3758C41.9017 11.4872 41.8752 11.619 41.8618 11.7895C41.8618 11.9895 41.0873 11.1896 41.0466 10.7497C40.9853 10.028 40.9752 9.29614 40.965 8.55427V8.5542C40.9548 7.81629 40.9445 7.06844 40.8835 6.31064ZM26.1679 14.269C26.3302 13.1279 27.0309 12.1277 27.6984 11.1749C28.0369 10.6918 28.3668 10.2208 28.6137 9.74987C28.8175 9.38995 28.6952 7.59031 28.3284 7.59031C27.84 7.62026 27.763 8.16591 27.6867 8.70681C27.6611 8.88829 27.6356 9.06923 27.5946 9.22998C27.5071 9.55646 27.269 9.91248 27.0323 10.2663C26.7183 10.736 26.4068 11.2018 26.4533 11.5895C26.4919 11.9877 26.4114 12.3589 26.3248 12.7586C26.2287 13.2018 26.125 13.6801 26.1679 14.269ZM39.7014 22.3075C39.5383 22.6674 39.1307 23.2673 39.1715 22.3474C39.2184 21.5878 40.0215 21.186 40.7803 20.8063C41.3399 20.5263 41.8753 20.2583 42.0656 19.868C42.1045 19.7631 42.1457 19.6264 42.1914 19.4746C42.3375 18.9899 42.5297 18.352 42.8401 18.1083C42.9828 17.9938 43.1997 17.9157 43.3977 17.8445C43.822 17.6917 44.1594 17.5703 43.4924 17.1885C43.207 17.0285 43.1255 15.3089 43.1662 14.2691C43.2296 14.8909 43.6215 15.3839 44.0128 15.8759C44.3764 16.3332 44.7394 16.7898 44.8375 17.3485C44.9598 18.1483 42.0656 20.4678 41.2504 20.8278C40.2313 21.2277 40.0683 21.5076 39.7014 22.3075ZM26.5794 40.9514C27.0072 41.2862 27.6171 41.7634 28.2878 41.7834C30.6929 41.8634 32.0788 41.3435 33.3832 39.4239C33.8724 38.664 32.9756 37.6642 32.4049 37.3443C31.752 36.9675 32.0037 36.8481 32.4356 36.6432C32.9205 36.4132 33.6325 36.0754 33.5463 35.1447C33.4734 34.2658 33.3845 33.6663 33.317 33.2114C33.1205 31.8866 33.1061 31.7889 34.1985 29.5859C35.0484 27.8401 35.1542 27.809 35.711 27.6453C36.0088 27.5578 36.4356 27.4323 37.1742 26.9864C37.4735 26.8076 37.7438 26.5922 38.0062 26.383L38.0062 26.383L38.0062 26.3829C38.5656 25.937 39.0893 25.5195 39.783 25.5467C39.4923 25.8319 39.302 26.1806 39.1158 26.5217C38.8583 26.9935 38.6086 27.4509 38.1117 27.7062C37.4188 28.0262 36.0328 29.3859 35.5844 30.0658C35.4608 30.2545 35.2121 30.4296 34.9523 30.6124C34.4414 30.9722 33.8875 31.3621 34.1577 31.9454C34.8886 33.6077 34.9697 35.0044 35.0629 36.6118V36.6118L35.0629 36.612C35.0841 36.9767 35.1059 37.3522 35.136 37.7442C35.2117 38.7092 34.4759 39.6895 33.9135 40.4389C33.5669 40.9006 33.2862 41.2747 33.3017 41.5034C32.3186 43.1331 30.5743 42.9926 28.8425 42.8531C28.4919 42.8248 28.1418 42.7966 27.7987 42.7832C26.9834 42.7832 26.0459 41.7034 25.9644 40.9835C25.903 40.4221 26.1492 40.6147 26.5794 40.9514ZM3.66678 41.5036C3.34067 41.0637 3.25915 40.7438 3.58525 40.7838C7.03438 40.4665 4.64091 36.6017 3.06956 34.0644C2.26384 32.7634 1.67427 31.8114 2.19931 31.8656C2.09057 31.7589 2.27191 31.7433 2.59475 31.7155H2.59477H2.59481L2.59494 31.7155L2.59503 31.7155C2.87728 31.6912 3.2676 31.6576 3.66678 31.5457C4.32566 31.3571 4.78116 31.3137 4.99591 31.2932C5.10003 31.2833 5.14756 31.2788 5.13425 31.2657C5.09348 31.1857 5.82722 31.7056 6.11256 32.1056C6.3214 32.3983 6.62305 32.7017 6.9256 33.006L6.92561 33.006C7.44981 33.5333 7.97673 34.0633 8.02842 34.545L8.19147 36.3047C8.22192 36.7678 8.29219 37.1583 8.35765 37.5222C8.46745 38.1324 8.56374 38.6676 8.43605 39.3441C8.20107 40.612 8.77035 41.174 9.53387 41.9277L9.53389 41.9277C9.82998 42.2199 10.1553 42.5411 10.4742 42.9434C9.64035 43.4342 8.53358 43.4431 7.42187 43.452H7.4216C7.17474 43.454 6.92765 43.456 6.68324 43.4632C5.66417 43.5432 4.23746 42.2635 3.66678 41.5036ZM6.84633 29.2262C6.98409 29.091 6.87975 28.9924 6.70954 28.8316C6.62793 28.7544 6.53117 28.663 6.4387 28.5463C6.39047 28.4754 6.34492 28.4079 6.30112 28.343L6.30091 28.3427L6.30073 28.3424C6.04855 27.9689 5.85436 27.6812 5.54191 27.3066C4.2375 25.8669 4.03368 24.6671 3.87063 22.4676C3.72502 23.3533 3.82907 24.1573 3.93011 24.938L3.93011 24.9381C3.97049 25.2501 4.0104 25.5585 4.03368 25.8669C4.11521 26.6267 4.76742 29.0662 5.21581 29.7461C5.96207 30.8966 6.04614 30.6965 6.26558 30.1742C6.38177 29.8976 6.53589 29.5308 6.84633 29.2262ZM21.358 27.0665C20.2724 27.1468 20.0102 27.5806 19.749 28.0127C19.4905 28.4404 19.233 28.8665 18.1784 28.9461C17.6134 28.9887 17.4191 29.6679 17.2126 30.3897C17.0318 31.0218 16.8416 31.6867 16.3849 31.9854C16.1545 32.124 15.9309 32.2346 15.7348 32.3316L15.7348 32.3316C14.8553 32.7666 14.5296 32.9278 16.6294 34.105C17.1548 34.3971 17.3266 34.7704 17.4744 35.0916C17.6707 35.5182 17.8248 35.8531 18.7084 35.7847C19.921 35.6803 19.668 34.955 19.3749 34.1148C19.1065 33.3452 18.8043 32.4791 19.5644 31.9055C20.1351 31.5055 21.1949 29.9859 21.1542 29.426C21.0539 28.3446 22.2675 27.5854 23.2473 26.9724C23.4632 26.8373 23.6678 26.7093 23.8445 26.5865C24.4543 26.174 24.6302 25.655 24.8366 25.0461C25.0304 24.4746 25.2511 23.8237 25.8827 23.1073C26.3718 22.5474 26.4534 19.7479 26.4126 19.9079C25.8419 21.1477 21.9694 27.0265 21.358 27.0665ZM50.066 43.6481C49.7341 43.9602 49.3882 44.2856 48.8322 44.343C48.6113 44.3627 48.4003 44.3533 48.1797 44.3434C47.9525 44.3333 47.7151 44.3227 47.4463 44.343C47.1609 44.383 46.2641 44.223 46.5087 44.223C46.6262 44.2153 46.7528 44.2121 46.8838 44.2087H46.8838H46.8838H46.8839H46.8839C47.4343 44.1946 48.0624 44.1784 48.4246 43.8231C48.5061 43.7431 48.5367 43.6331 48.5672 43.5232C48.5978 43.4132 48.6284 43.3032 48.7099 43.2232C49.0398 42.9458 49.3288 42.655 49.5928 42.3895L49.5929 42.3894L49.5929 42.3893C49.7855 42.1956 49.9647 42.0153 50.1366 41.8635C50.4188 41.6118 50.4911 41.6927 50.638 41.8571C50.7245 41.9539 50.837 42.0797 51.0334 42.1834C51.0886 42.2159 51.1497 42.266 51.2168 42.3209C51.3977 42.469 51.6219 42.6525 51.8894 42.6233C51.8916 42.6233 51.8954 42.6232 51.9008 42.6231L51.9137 42.6226H51.9138H51.9138H51.9138H51.9139C52.0411 42.6178 52.586 42.5975 52.6232 42.7433L52.6326 42.7937C52.6623 42.9525 52.6761 43.0259 52.645 43.0604C52.6182 43.0901 52.5582 43.091 52.4465 43.0925H52.4464C52.3772 43.0935 52.2881 43.0947 52.1748 43.1033C52.0631 43.1142 51.9024 43.1192 51.723 43.1247H51.7228C51.2474 43.1393 50.6403 43.1581 50.4627 43.3032C50.3247 43.4047 50.1965 43.5254 50.0661 43.648L50.066 43.6481ZM51.7672 9.94993C51.8409 10.746 51.8998 10.2906 51.9708 9.74251C52.0175 9.38194 52.0693 8.98123 52.134 8.87015C52.2747 8.62473 52.4154 8.4558 52.5469 8.2979C52.7583 8.04412 52.9459 7.81887 53.0716 7.35045C53.4474 6.13374 53.0263 6.00477 52.0639 5.71L52.0637 5.70994L52.0634 5.70987L52.0632 5.70981C51.9819 5.68491 51.8968 5.65883 51.8079 5.6308C51.6506 5.5867 51.5118 5.55779 51.3857 5.53151C51.0543 5.46249 50.81 5.41159 50.5443 5.1509C50.422 5.03092 49.9328 4.631 49.8921 4.631C49.8869 4.65882 49.8811 4.68935 49.8748 4.72223V4.72225C49.7822 5.20935 49.5917 6.21093 49.9736 6.51063C50.0842 6.6056 50.2558 6.70058 50.4359 6.80023C50.7867 6.99433 51.1695 7.20619 51.1965 7.47043L51.2012 7.54093C51.2379 8.08976 51.2536 8.3247 51.6449 8.67019C51.8981 8.91861 51.8624 9.04106 51.7657 9.37289L51.7655 9.37341C51.7533 9.41537 51.7401 9.46068 51.7264 9.51002C51.7015 9.55882 51.7222 9.66717 51.7421 9.77148C51.7548 9.83814 51.7672 9.90315 51.7672 9.94993ZM58.985 11.6905C59.3527 11.6689 59.7386 11.6462 59.7567 11.3096C59.8109 10.0322 60.2443 10.207 60.8885 10.4669C61.2124 10.5976 61.5896 10.7497 61.9986 10.7497C62.0802 10.8297 58.493 14.6289 58.0446 14.6689C55.0077 14.9398 54.1078 15.8845 52.428 17.6481C52.3963 17.6814 52.3643 17.7149 52.3321 17.7488C52.307 17.7751 52.2817 17.8016 52.2563 17.8283C50.6257 19.5079 50.2589 19.5479 50.0551 16.9485C49.9335 15.7079 49.1447 15.9474 48.3462 16.1898C47.8062 16.3538 47.2617 16.519 46.9163 16.2286C46.8923 16.205 47.0881 16.1327 47.3908 16.021C48.1144 15.7538 49.4489 15.2611 49.8512 14.6689C50.3404 13.9491 52.8677 13.6291 53.8053 13.5491C54.2393 13.5043 54.5324 13.7232 54.7924 13.9173C54.9964 14.0696 55.18 14.2066 55.395 14.189L55.4701 14.1838C56.6544 14.1016 59.33 13.9159 58.4522 12.3894C58.0889 11.7433 58.5225 11.7178 58.985 11.6905ZM12.3899 26.5866C12.3117 26.4484 12.2815 26.2514 12.251 26.0519C12.2019 25.7317 12.152 25.4054 11.9008 25.3068C11.697 25.2269 11.86 26.6266 11.9008 26.8665C12.0638 27.7063 12.553 28.2662 13.0421 28.8261L13.0422 28.8261C13.1832 28.9752 13.3185 29.0959 13.4458 29.2094C13.7964 29.5222 14.0856 29.7802 14.265 30.4258C14.1697 29.1781 13.8263 28.8063 13.293 28.2287L13.293 28.2287C13.1425 28.0657 12.977 27.8864 12.7976 27.6664C12.6753 27.4464 12.6345 27.2864 12.5938 27.1265C12.553 26.9665 12.5122 26.8065 12.3899 26.5866ZM15.5083 44.6507C15.0148 44.671 14.482 44.6929 14.1022 44.9827C13.8576 45.1427 14.2652 44.1429 14.7136 43.9829C15.6919 43.503 17.2409 42.6632 17.4448 41.5834C17.545 41.0494 17.7812 40.703 17.9747 40.4193C18.3317 39.8958 18.543 39.5859 17.4855 38.704C16.8474 38.1823 17.1861 38.0962 17.6443 37.9797C18.0641 37.8729 18.5843 37.7406 18.5454 37.2243C18.5046 36.9044 18.3008 36.4245 17.9339 36.3045C17.9339 36.3045 19.0753 35.9846 19.1976 37.2643C19.2258 37.6795 19.1808 38.0564 19.1385 38.4098C19.0588 39.0778 18.989 39.6622 19.4421 40.2637C19.551 40.4093 19.6646 40.6114 19.7894 40.8335C20.179 41.5264 20.6777 42.4135 21.4803 42.3833C21.2064 42.4191 21.0797 42.5833 20.9428 42.7609C20.7739 42.9797 20.5894 43.2189 20.0943 43.2631C19.7945 43.2815 19.6239 43.1055 19.4795 42.9565C19.3099 42.7815 19.1765 42.6439 18.9122 42.9032C18.5405 43.2486 18.1876 43.4191 17.8309 43.5914C17.4444 43.778 17.0535 43.9669 16.6295 44.3829C16.3936 44.6143 15.968 44.6318 15.5083 44.6507Z" fill="white"/>
<path fill-rule="evenodd" clip-rule="evenodd" d="M66.4374 7.99536C67.0024 7.58884 68.1726 6.69463 68.4956 6.12558C69.2622 4.78417 69.3026 3.52402 67.5673 2.79244L65.5093 1.89813C61.9359 1.67837 61.8473 1.36567 61.7289 0.947568C61.6722 0.747082 61.6086 0.522458 61.1509 0.272142C60.3367 -0.196472 57.4365 0.0478106 55.4921 0.211801H55.4907L55.4883 0.212093L55.4857 0.212385L55.2591 0.231558L50.699 0.312823C50.699 0.353504 47.6724 1.20713 46.6232 1.2884C45.2689 1.40207 43.3971 2.18971 41.749 2.88314L41.7478 2.88373C40.4497 3.42991 39.2908 3.9175 38.6329 3.97122L29.5531 4.78417C28.6273 4.812 27.976 4.53482 27.16 4.18767C25.5929 3.52091 23.4186 2.59575 17.5274 3.07691C13.5322 3.40207 8.52817 7.34505 8.52817 7.34505C8.52817 7.34505 2.99952 12.1009 2.39428 15.8811C1.82924 19.6208 2.35389 23.9702 2.35389 23.9702L4.16989 30.352L0.0536374 30.9617C-0.269174 31.043 0.901101 41.3677 2.59603 42.4245C5.13842 43.9691 6.6315 44.4569 9.69845 43.7659L10.0214 46.2454C10.0988 46.8177 10.9034 46.7907 11.7901 46.7611C12.289 46.7443 12.8138 46.7267 13.2497 46.8145L16.357 47.912C17.2249 47.707 17.6736 47.6536 17.9511 47.6206C18.1196 47.6006 18.225 47.588 18.3227 47.5537C18.5432 47.4761 18.7252 47.2876 19.5047 46.652C19.5737 46.6659 19.6366 46.6795 19.6942 46.6926C19.7682 46.7096 19.8333 46.7255 19.891 46.7398L19.9154 46.7459C19.9825 46.7625 20.0391 46.7765 20.0877 46.7867C20.1075 46.7907 20.126 46.7941 20.1433 46.7969C20.1857 46.8035 20.2211 46.8055 20.2519 46.8016C20.2709 46.7993 20.2883 46.7946 20.3045 46.7874C20.392 46.7485 20.4465 46.6346 20.5611 46.3954C20.6116 46.2899 20.6738 46.1601 20.7557 46.0015C21.1782 46.0252 21.5189 46.0627 21.7935 46.0928C22.4629 46.1663 22.7397 46.1967 22.8542 45.8796C23.8671 43.2917 22.4752 42.6842 21.2619 42.1545C20.4932 41.819 19.7962 41.5146 19.8275 40.7579C19.8439 40.3781 19.8592 40.0299 19.8733 39.7097L19.8764 39.6406C19.9819 37.2551 20.0176 36.4494 19.8569 35.6857C19.775 35.2963 19.6421 34.9178 19.4414 34.3463L19.44 34.3425L19.4251 34.3002C19.347 34.0772 19.2586 33.8252 19.1595 33.5326L19.1005 33.3578L19.0501 33.2068C19.0273 33.138 19.0039 33.0671 18.9801 32.9941L19.7468 31.6934L20.0697 31.734L21.0786 35.433L23.1366 39.4978L23.3787 41.4489C23.9013 41.916 24.3297 42.3214 24.6972 42.6693L24.7039 42.6754L24.7204 42.6912L24.7213 42.6921L24.7219 42.6926C26.8557 44.7134 26.9212 44.7755 31.4901 43.8066C31.658 43.7749 31.8055 43.7507 31.9374 43.7291C32.8195 43.5847 33.0039 43.5544 33.9518 42.1399C35.2834 40.2295 35.3238 39.7011 35.3238 37.5873C35.3238 34.5038 35.261 34.3615 34.4153 32.4459L34.4106 32.4355C34.2988 32.1821 34.1732 31.8977 34.0325 31.5715C35.001 29.9861 35.5255 29.1732 37.0994 28.3196C38.2697 32.2218 38.5118 33.7664 38.7943 37.2215L40.7717 39.7417C40.9331 40.4328 41.6191 44.0911 41.4174 44.7415C41.0946 45.7576 43.3545 47.0991 43.4755 47.1397C44.3658 47.3603 45.235 47.7509 46.0506 48.1175C47.4901 48.7645 48.7628 49.3365 49.6901 48.7656C50.3384 48.3704 51.0877 48.3239 51.7612 48.282C52.6806 48.225 53.4586 48.1767 53.6449 47.2617L55.7837 46.7332C56.8335 43.9041 54.1733 42.9031 52.4307 42.2476C51.6945 41.9706 51.1221 41.7552 51.0622 41.4896L50.7797 30.0267L48.8427 25.4335C48.762 24.6612 48.4391 22.5475 48.3988 22.1817C48.5198 21.9378 49.1252 20.7183 49.327 20.5151L51.9501 18.8891C53.5597 15.2336 54.9995 15.0844 56.2696 14.9527C56.7508 14.9029 57.2076 14.8556 57.6401 14.6211C57.8708 14.4897 58.109 14.1976 58.411 13.8272C59.3242 12.7074 60.8211 10.8718 64.46 10.5968L66.7199 9.62135C66.8006 9.58067 66.9217 8.23926 66.4374 7.99536ZM65.9943 7.37006C65.8413 7.47556 65.715 7.56256 65.6304 7.62952C65.6256 7.63293 65.6212 7.63643 65.617 7.63994C65.6095 7.64626 65.6027 7.65288 65.5968 7.65969C65.1867 7.81473 64.4525 8.07682 64.3388 8.07682C64.3264 8.07682 64.3108 8.07731 64.2925 8.07819C64.2774 8.07896 64.2604 8.08003 64.2417 8.0813C64.1522 8.08733 64.0259 8.09892 63.8911 8.11137C63.6503 8.13347 63.3826 8.15809 63.2492 8.15809C63.1486 8.17502 63.034 8.18485 62.9345 8.19059C62.8817 8.19371 62.833 8.19565 62.793 8.19682C62.727 8.19877 62.6843 8.19877 62.6843 8.19877C62.6843 8.19877 62.8457 8.64587 63.1685 8.60519C63.4914 8.56451 64.7424 8.32072 64.9845 8.23935C65.267 8.15809 65.5091 8.03614 65.7512 8.11741C65.953 8.19877 66.1144 8.52393 66.1144 8.52393L66.2438 8.41969L66.276 8.97094L64.0969 9.90583C63.895 9.94651 61.6756 10.3529 60.7877 10.6782C60.0104 10.9629 58.0263 13.0865 57.4093 13.7467C57.3216 13.8405 57.2616 13.9048 57.2365 13.9301C57.175 13.9796 56.9077 14.0253 56.5347 14.0892C55.6832 14.2348 54.2815 14.4746 53.5238 15.0682C52.6764 15.7186 51.6272 17.9542 51.5061 18.2388C51.2237 18.3607 49.1655 19.5802 48.9234 19.8241C48.705 20.0439 48.1256 21.2558 47.9844 21.5512L47.9549 21.6126L48.3585 24.9863C48.4391 25.7994 50.013 29.0513 50.2954 29.6203L50.5779 41.0425C50.5779 41.7028 51.6097 42.1775 52.5463 42.6085L52.6764 42.6684C55.5013 43.9285 56.0258 44.2944 55.3398 46.0829L54.4777 46.2392C54.4726 46.1893 54.4641 46.137 54.4522 46.0829C54.4522 45.7577 54.2503 45.4732 54.089 45.5139C53.9275 45.5139 53.8468 45.7983 53.8871 46.1642C53.9019 46.2237 53.9194 46.2818 53.9391 46.3369L53.3221 46.4487C53.1635 46.5224 53.134 46.6444 53.1009 46.7809C53.0362 47.0482 52.9578 47.3713 51.8726 47.4982C52.0044 47.4508 52.067 47.1864 52.0306 46.8554C51.9095 46.5302 51.748 46.2863 51.5866 46.2863C51.4252 46.2863 51.3444 46.5709 51.4252 46.9367C51.4615 47.2291 51.6283 47.4886 51.7789 47.5084C51.7124 47.5151 51.6424 47.5212 51.5688 47.5264C51.4501 47.535 51.3219 47.5417 51.1833 47.5462C50.0613 47.579 49.6339 47.8493 49.3017 48.0594C48.8093 48.3707 48.5261 48.5498 46.5021 47.6275C46.4333 47.5968 46.3541 47.5637 46.266 47.5285C46.2027 47.5032 46.1346 47.4767 46.0627 47.4492C45.9623 47.4109 45.8541 47.3706 45.7401 47.3284L45.4734 47.2301L45.4667 47.2277L45.4635 47.2266C43.9634 46.6754 41.7625 45.8667 41.9823 45.1073L41.2157 39.5385C41.0049 39.276 40.8175 39.0513 40.6505 38.856C40.4425 38.6128 40.2663 38.4155 40.1165 38.2477L40.1113 38.2418L40.1087 38.2389C39.7696 37.8592 39.5668 37.6322 39.4365 37.3687C39.2426 36.9768 39.2089 36.5043 39.1254 35.3288C39.1015 34.9924 39.0735 34.5984 39.0365 34.1322C38.9036 32.7612 37.979 29.6298 37.6101 28.3811L37.6046 28.3623C37.5281 28.1033 37.4766 27.9287 37.4626 27.8724C37.0187 26.2465 34.2342 29.7828 33.5078 31.0023L34.6378 34.0103L34.6782 39.1726C34.4763 40.0263 32.7411 42.831 32.2165 42.8716C31.9062 42.8989 31.3256 43.0259 30.6494 43.1739L30.6479 43.1742C29.3007 43.4691 27.5745 43.847 26.8493 43.6847C26.0422 43.4813 24.2666 41.7335 23.7419 41.205C23.7016 40.8392 23.6209 40.0263 23.6613 39.7824C23.6613 39.4609 22.5 37.2576 21.8946 36.1091C21.7346 35.8055 21.6135 35.5756 21.5628 35.4736L20.4732 31.4495C20.3729 31.0452 20.0231 31.0318 19.6075 31.016C19.5217 31.0127 19.4331 31.0093 19.3433 31.0023L18.4151 32.4657L19.2222 34.7826C19.4429 35.2272 19.3619 36.9236 19.2893 38.443C19.2292 39.7023 19.1749 40.8399 19.303 41.0425C19.303 41.0425 19.9486 42.018 21.1189 42.5465C22.9996 43.3971 22.7264 44.1372 22.3135 45.2567C22.2922 45.3142 22.2706 45.3728 22.2488 45.4325L21.7526 45.4012C21.7492 45.383 21.7455 45.3645 21.7416 45.3458C21.7387 45.3319 21.7355 45.3177 21.7322 45.3035L21.7241 45.2701C21.6434 44.9042 21.4417 44.6603 21.2802 44.6603C21.1188 44.6603 21.1188 44.9449 21.1995 45.3107C21.2067 45.3299 21.2139 45.3489 21.2214 45.3678L20.3118 45.3105L19.9327 45.9468L19.9304 45.94C19.927 45.9299 19.9234 45.9198 19.9196 45.9096C19.9159 45.8996 19.9122 45.8897 19.9082 45.8798C19.7468 45.4733 19.4643 45.1481 19.2626 45.1481C19.0607 45.1481 18.9801 45.514 19.1415 45.9205C19.1483 45.9433 19.1556 45.9658 19.1634 45.9881C19.1677 46.0004 19.1721 46.0126 19.1767 46.0247C18.8493 46.012 18.7792 46.1157 18.6703 46.2769C18.5711 46.4238 18.4395 46.6186 18.0512 46.8161C18.0551 46.7124 18.0419 46.5864 18.0115 46.4488C17.8905 46.1237 17.6483 45.8798 17.487 45.8798C17.3255 45.8798 17.2851 46.1644 17.3659 46.5302C17.422 46.681 17.4955 46.823 17.5783 46.9279L15.9938 47.221L13.0479 46.1642L10.5055 46.0829L10.1424 43.522C10.0825 42.9384 9.42888 43.0723 8.5245 43.2575C7.60254 43.4463 6.4199 43.6885 5.34016 43.2781C4.73483 43.0342 2.95923 42.0993 2.59603 41.896C1.54682 41.0425 0.537902 31.9373 0.497515 31.5308L4.65415 30.921C4.88981 30.8947 4.15694 28.5062 3.55808 26.5547C3.23402 25.4988 2.94927 24.5709 2.87845 24.2141C2.83816 23.8482 2.39428 19.8241 2.95923 16.2876C3.50233 12.7707 8.55813 8.31468 8.98403 7.9394L8.98461 7.93882C9.00142 7.92402 9.01089 7.91566 9.01244 7.9141C10.9091 6.36947 15.0657 3.93054 17.8905 3.68665C23.6515 3.20966 25.8114 4.11458 27.3995 4.77988C28.2478 5.13521 28.9328 5.42222 29.9162 5.3939C30.8256 5.354 35.7631 4.88519 37.9745 4.67507H37.9757L37.9783 4.67478L37.9806 4.67448L37.9931 4.67332L37.9983 4.67273L38.1083 4.66222C39.9284 4.49366 41.4664 3.82261 42.9361 3.18134C44.3015 2.58562 45.608 2.0156 47.0267 1.89813C47.827 1.8337 49.8204 1.30883 50.7115 1.07419L50.786 1.05462L50.9839 1.00275C51.0656 0.981534 51.1207 0.967714 51.1429 0.963238C51.185 0.963238 51.2871 0.960805 51.429 0.957398C52.1026 0.941048 53.6749 0.903092 54.0081 1.00382C54.1591 1.04528 54.9596 0.983286 55.9803 0.904162C57.9593 0.75078 60.7662 0.533261 61.272 0.881875C61.272 0.881875 61.2967 0.919247 61.3326 0.980269C61.3613 1.02942 61.3974 1.09385 61.4334 1.16645C62.016 2.3136 62.9116 2.34017 63.9947 2.37229C64.5617 2.38913 65.1802 2.40752 65.8321 2.58913C65.8321 2.58913 67.3878 3.15224 68.1033 3.67049C67.9667 3.71614 67.778 3.77696 67.612 3.823C67.5195 3.84869 67.4339 3.86981 67.3682 3.8811C67.3347 3.88684 67.3062 3.89005 67.2848 3.89005C67.212 3.89005 67.1288 3.91117 67.052 3.93823C66.916 3.98611 66.8005 4.05258 66.8005 4.05258C66.8005 4.05258 67.0023 5.10942 67.2041 5.27205C67.3612 5.47001 67.6717 5.82212 67.7996 5.84032C67.2511 6.50378 66.4852 7.03176 65.9943 7.37006ZM60.1823 3.72733L59.2541 3.80869C59.2541 3.80869 60.7876 4.45901 61.0701 4.37774C61.3526 4.33706 61.3526 3.68674 61.3526 3.68674L61.1104 3.15828L60.1823 3.72733ZM50.6989 4.58105C49.8918 4.54047 49.6497 4.49979 49.6497 4.37784C49.6497 4.25589 49.5286 3.40227 49.5286 3.40227C49.5286 3.40227 49.1251 4.703 49.2057 4.94689C49.2865 5.19079 50.4164 6.20704 50.7393 6.20704C51.0621 6.24762 51.4253 6.5322 51.4656 6.65414C51.8692 7.26388 52.5552 5.71925 52.5149 5.43468C52.4745 5.02825 52.2324 3.93074 52.2324 3.93074C52.2324 3.93074 51.506 4.62173 50.6989 4.58105ZM48.1565 47.6276C48.1162 47.2618 48.1969 46.9772 48.3584 46.9772C48.5197 46.9772 48.6812 47.2211 48.7619 47.5463C48.8022 47.9121 48.7216 48.1967 48.5601 48.1967C48.3987 48.2373 48.2373 47.9528 48.1565 47.6276ZM67.2851 4.7028L67.1236 4.21502C67.164 4.21502 67.4062 4.09307 67.4868 4.21502C67.5381 4.34417 67.5568 4.47332 67.574 4.59205C67.5838 4.66018 67.5932 4.7248 67.6079 4.78407C67.6079 4.86533 67.6483 4.90602 67.5675 4.86533C67.4868 4.82475 67.4464 4.78407 67.3658 4.78407C67.2851 4.78407 67.2851 4.74339 67.2851 4.7028Z" fill="white"/>
<path fill-rule="evenodd" clip-rule="evenodd" d="M78 6.48275V6.01151C82.2076 6.01151 86.3474 6.01151 90.521 6V22H90.2722H86.4605V21.2874V15.8046V15.7241C86.4605 13.8736 86.4605 12.0345 86.4718 10.1954C86.4718 10.1034 86.4718 10.0345 86.4605 9.96552V9.57472H82.1058V9.87356C82.0988 9.89502 82.0961 9.92093 82.0951 9.94851C82.0945 9.96526 82.0945 9.98263 82.0945 10C82.1058 10.8161 82.1058 11.8851 82.1058 13.0919V22.0115H78V6.48275ZM177.999 18.885C176.788 18.8276 175.68 18.7701 174.571 18.7126C174.571 18.6552 174.56 18.5862 174.549 18.5172C174.631 18.4644 174.713 18.4115 174.795 18.3585L174.797 18.3574L174.798 18.357C175.091 18.1685 175.387 17.9786 175.669 17.7816C176.788 17 177.818 16.1149 178.293 14.7816C178.96 12.908 178.689 10.7701 176.291 10.1954C174.458 9.75861 172.626 9.7931 170.816 10.2873C169.595 10.6207 168.746 11.4368 168.384 12.7011C167.423 16.0115 168.995 19.7011 171.993 21.3103C173.337 22.0281 174.766 22.0109 176.198 21.9938C176.418 21.9911 176.637 21.9885 176.856 21.9885C176.958 21.9885 177.105 21.908 177.128 21.8391C177.337 21.1437 177.541 20.4483 177.747 19.7446L177.861 19.3539L177.916 19.168L177.999 18.885ZM172.702 15.9615C172.516 16.0859 172.321 16.2157 172.117 16.3563C172.084 16.1592 172.049 15.985 172.018 15.8255C171.963 15.5477 171.916 15.3141 171.902 15.0805C171.823 13.6092 172.897 12.7586 174.3 13.1839C174.775 13.3333 174.967 13.6667 174.718 14.1034C174.504 14.4942 174.198 14.8506 173.859 15.1379C173.506 15.4252 173.125 15.6792 172.702 15.9615ZM100.26 10.1954C101.956 10.6207 102.906 11.8276 103.076 13.5402C103.325 16.046 102.782 18.4023 101.232 20.4138C99.1964 23.0345 96.0407 23.0575 93.9935 20.4483C92.41 18.4368 91.8331 16.0689 92.1272 13.5402C92.3647 11.4828 93.6315 10.2988 95.6561 10.023C96.3122 9.93103 97.1379 9.89654 97.6242 9.89654C98.2916 9.90805 99.4113 9.9885 100.26 10.1954ZM99.3887 15.2988C99.4113 13.6667 98.8684 13.1149 97.5564 13.1379C97.2962 13.1379 97.0248 13.1839 96.7759 13.2644C96.2443 13.4253 95.8937 13.7931 95.8484 14.3678C95.7353 15.8161 95.9955 17.1954 96.8325 18.4023C97.3754 19.1839 97.8844 19.1609 98.416 18.3678C99.0833 17.3448 99.3321 16.1954 99.3887 15.2988ZM128.702 10.2379C128.661 10.2457 128.612 10.255 128.548 10.2643V11.046V24.7701C128.548 24.7889 128.548 24.8078 128.548 24.8267C128.549 24.896 128.551 24.9659 128.553 25.0361C128.558 25.2162 128.563 25.398 128.548 25.5747C128.514 25.977 128.661 26.1149 129.057 26.1034C129.939 26.0804 130.833 26.0689 131.715 26.1034C132.167 26.1264 132.269 25.954 132.247 25.5402C132.222 25.1137 132.227 24.693 132.232 24.2698C132.233 24.1 132.235 23.9298 132.235 23.7586C132.235 23.0607 132.235 22.713 132.398 22.4861C132.56 22.2607 132.882 22.1544 133.525 21.9425C136.963 20.7931 139.09 17.9195 138.999 14.5057C138.931 11.9885 137.382 10.3218 134.893 10.2414C133.455 10.1921 132.017 10.2015 130.579 10.2109C130.004 10.2146 129.429 10.2184 128.853 10.2184C128.806 10.2184 128.763 10.2265 128.702 10.2379ZM132.586 18.7586C132.507 18.7701 132.405 18.7701 132.258 18.7816C132.253 18.6869 132.245 18.609 132.238 18.5403L132.234 18.4951L132.232 18.469C132.229 18.4346 132.226 18.402 132.225 18.3701C132.224 18.3539 132.224 18.3379 132.224 18.3218V13.3793C132.314 13.385 132.403 13.3891 132.493 13.3923C132.625 13.397 132.756 13.3995 132.887 13.4021C133.376 13.4117 133.851 13.421 134.305 13.5402C134.644 13.6207 135.029 14.069 135.142 14.4253C135.662 16.1034 134.294 18.3793 132.586 18.7586ZM127.304 34.3218C125.777 37.4253 126.354 41.1494 128.548 44C129.555 43.3678 130.539 42.7471 131.523 42.115C131.364 41.8276 131.229 41.5862 131.104 41.3563C130.278 39.8276 129.928 38.2184 130.278 36.4828C130.55 35.1264 131.568 34.1265 132.846 34.0115V34.7356V41.8046C132.846 41.8245 132.845 41.845 132.845 41.8659L132.844 41.8843L132.843 41.9053C132.833 42.1157 132.822 42.3448 133.163 42.3448H136.511V30.5517C136.218 30.5517 135.927 30.5483 135.637 30.5449L135.633 30.5449C134.24 30.5285 132.871 30.5124 131.534 30.8736C129.634 31.3908 128.186 32.5287 127.304 34.3218ZM88.4277 37.1229C88.427 37.4097 88.4259 37.6965 88.4248 37.9833C88.4202 39.2149 88.4156 40.4465 88.4399 41.6781C88.4512 42.2414 88.2702 42.3908 87.7386 42.3678C87.0656 42.3356 86.3927 42.3428 85.7197 42.3501L85.5738 42.3517C85.4559 42.3529 85.3381 42.354 85.2203 42.3549C85.0983 42.3558 84.9763 42.3563 84.8543 42.3563C81.4837 42.3448 78.5882 39.8621 78.0905 36.4483C77.9548 35.5057 77.9661 34.4828 78.1697 33.5517C78.5542 31.7701 79.855 30.8506 81.5742 30.6667C82.5433 30.5591 83.5184 30.5587 84.495 30.5584C84.8748 30.5583 85.2548 30.5582 85.6348 30.5517C85.9381 30.5471 86.2396 30.5499 86.5407 30.5526C86.992 30.5568 87.4424 30.5609 87.8969 30.5402C88.3267 30.5172 88.4399 30.6897 88.4399 31.1034C88.4229 32.4462 88.425 33.7954 88.4272 35.1462V35.1467V35.1472V35.1477V35.1482V35.1487V35.1492V35.1497V35.1502V35.1507V35.1513V35.1518V35.1523V35.1528C88.4278 35.6036 88.4285 36.0547 88.4285 36.5057L88.4285 36.6744L88.4284 36.752C88.4282 36.8756 88.428 36.9993 88.4277 37.1229ZM84.6847 39.2759V33.7586C84.5939 33.7586 84.5038 33.7577 84.4143 33.7563L84.3343 33.7551C84.2849 33.7542 84.2356 33.7533 84.1865 33.7523C83.8091 33.7451 83.4411 33.7381 83.0785 33.7701C82.2302 33.8276 81.7212 34.3448 81.7099 35.2184C81.6873 36.5517 82.1398 37.7011 83.2143 38.5172C83.4859 38.7166 83.7979 38.8597 84.1433 39.0182C84.3157 39.0973 84.4964 39.1802 84.6847 39.2759ZM124.848 37.8016L124.849 37.2531C124.849 37.1065 124.849 36.9599 124.849 36.8135C124.849 36.7032 124.849 36.5929 124.849 36.4827C124.849 34.6782 124.849 32.885 124.838 31.069C124.838 31.06 124.838 31.051 124.838 31.0419C124.838 31.0327 124.839 31.0233 124.839 31.0139L124.839 31.0078C124.84 31.0016 124.84 30.9955 124.84 30.9892L124.841 30.9681C124.851 30.758 124.861 30.5303 124.521 30.5402C123.821 30.5546 123.12 30.5577 122.42 30.5609C120.877 30.5678 119.335 30.5747 117.803 30.7011C116.004 30.8391 114.817 32.0805 114.5 33.8965C114.364 34.6897 114.364 35.5517 114.489 36.3448C115.009 39.7011 117.859 42.5402 121.524 42.3563C122.451 42.3104 123.368 42.3218 124.295 42.3563C124.759 42.3793 124.861 42.2069 124.861 41.7701C124.844 40.4505 124.846 39.1245 124.848 37.8016ZM120.535 33.7728C120.645 33.7754 120.757 33.778 120.87 33.7797C120.948 33.7808 121.026 33.7816 121.105 33.7816V39.1609C119.884 38.9655 119.036 38.2873 118.583 37.2184C118.312 36.5517 118.199 35.7816 118.176 35.0575C118.142 34.3333 118.617 33.8736 119.318 33.7931C119.715 33.7536 120.118 33.763 120.533 33.7727L120.535 33.7728ZM91.7539 30.5402H90.7699C90.7472 30.7126 90.7246 30.7816 90.702 30.8506C90.702 34.5287 90.702 38.2069 90.6907 41.885C90.6907 42.3103 90.883 42.3448 91.211 42.3448C91.9615 42.3405 92.7104 42.3411 93.4589 42.3416C94.7071 42.3425 95.9542 42.3434 97.2057 42.3218C97.8165 42.3103 98.4499 42.2299 99.0381 42.046C101.164 41.3908 101.888 39.3448 100.689 37.4483C100.451 37.0694 100.158 36.7244 99.8594 36.3738L99.859 36.3733C99.7319 36.2241 99.604 36.0739 99.4792 35.9195C99.486 35.9116 99.4929 35.9037 99.4999 35.8958L99.5137 35.8802C99.5418 35.8487 99.571 35.8172 99.6009 35.7857C99.6321 35.7527 99.6639 35.7197 99.696 35.6864C99.8883 35.4871 100.089 35.2787 100.203 35.023C100.441 34.4828 100.701 33.8851 100.701 33.3103C100.701 31.885 99.6149 30.7586 98.0201 30.6552C96.5064 30.5548 94.9867 30.5518 93.4654 30.5488C92.895 30.5476 92.3245 30.5465 91.7539 30.5402ZM95.2195 35.8431C95.0427 35.992 94.8636 36.1429 94.6834 36.2989L94.8099 36.3892L94.8968 36.4512L94.913 36.4628L94.9353 36.4788L94.9362 36.4793L94.9398 36.482C95.4594 36.8527 95.9634 37.2124 96.4592 37.5977C96.6515 37.7356 96.8437 37.9195 96.9795 38.1149C97.3188 38.6092 97.1152 39.0919 96.5271 39.1379C96.0623 39.1699 95.592 39.1629 95.1087 39.1557C94.898 39.1526 94.6848 39.1494 94.4685 39.1494V33.7816C94.5092 33.7816 94.5499 33.7814 94.5904 33.781C94.6266 33.7806 94.6628 33.7801 94.6988 33.7794C94.7918 33.7778 94.8842 33.7754 94.9761 33.7731L94.981 33.7729L94.9853 33.7728L94.9898 33.7728C95.3706 33.763 95.7422 33.7535 96.1085 33.7931C96.6967 33.8621 96.8551 34.3333 96.4253 34.7701C96.0508 35.1425 95.6427 35.4864 95.2206 35.8421L95.2195 35.8431ZM150.932 42.2988H154.608L154.597 37.2873H157.108V42.2988H160.772V30.5977H157.085V34.0115H154.608V30.6092H150.932V31.1724V42.2988ZM106.605 42.3104H102.94V31.1839V30.6207H106.605V33.2184L109.082 30.6092H112.769V42.3104H109.116V34.6897L106.605 37.2988V42.3104ZM138.762 42.3104H142.426V37.2988L144.937 34.6897V42.3104H148.591V30.6092H144.903L142.426 33.2184V30.6207H138.762V31.1839V42.3104ZM166.79 42.3104H163.114C163.114 38.8966 163.114 34.1494 163.125 31.1839V30.6207H166.79V33.2184L169.267 30.6092H172.954V42.3104H169.301V34.6897L166.79 37.2988V42.3104ZM175.171 42.3104H178.836V37.2988L181.347 34.6897V42.3104H185V30.6092H181.313L178.836 33.2184V30.6207H175.171V31.1839V42.3104ZM106.186 23.6782C105.27 22.4253 104.637 21.1035 104.332 19.6207C103.913 17.6207 104.094 15.6782 105.033 13.8621C105.938 12.1035 107.385 11 109.263 10.4943C110.401 10.1848 111.556 10.1984 112.727 10.2122C113.21 10.2179 113.695 10.2237 114.183 10.2069V21.954H110.507V13.6322C109.025 13.8276 108.019 15.023 107.86 16.6322C107.702 18.2184 108.03 19.6782 108.799 21.0575C108.828 21.1075 108.856 21.1576 108.884 21.2085C108.926 21.2859 108.969 21.3652 109.015 21.4494L109.017 21.4535C109.071 21.5542 109.129 21.6619 109.195 21.7816C108.188 22.4138 107.204 23.0345 106.186 23.6782ZM152.81 10.2414V22C153.152 22 153.493 22.0004 153.833 22.0009C155.185 22.0027 156.514 22.0045 157.843 21.977C158.171 21.977 158.488 21.977 158.804 21.931C160.535 21.7011 161.768 20.5172 162.016 18.8046C162.197 17.5057 161.768 16.3908 160.851 15.4713C159.788 14.4023 158.488 13.6896 157.13 13.1264C156.587 12.8965 156.384 12.6092 156.44 12.023C156.479 11.6266 156.47 11.2192 156.46 10.8047V10.8044C156.456 10.618 156.452 10.4303 156.452 10.2414H152.81ZM156.548 16.5804L156.574 16.5661L156.586 16.5594L156.594 16.5545C156.603 16.5494 156.612 16.5442 156.621 16.5389C156.633 16.5319 156.644 16.5247 156.655 16.5172C156.794 16.6419 156.936 16.7639 157.078 16.886L157.079 16.8868L157.079 16.8877C157.447 17.2039 157.816 17.5206 158.126 17.885C158.488 18.3218 158.307 18.6552 157.752 18.7931C157.718 18.8046 157.673 18.8046 157.639 18.8161C156.542 19.023 156.44 18.931 156.44 17.8276V16.6437C156.458 16.6318 156.476 16.6207 156.495 16.61C156.512 16.5999 156.53 16.5902 156.548 16.5804ZM162.853 21.9655V10.2644H166.473V21.9655H162.853ZM117.69 17.5057C117.882 17.1839 117.837 17 117.542 16.7471C116.4 15.7931 115.688 14.6207 115.857 13.0575C116.004 11.5517 117.022 10.3908 118.651 10.2988C120.391 10.2024 122.142 10.2239 123.904 10.2456H123.904H123.905C124.663 10.255 125.422 10.2643 126.184 10.2643V21.954H122.576C122.564 20.1379 122.564 17.6207 122.564 16.0115C122.564 15.7705 122.563 15.5283 122.562 15.2856V15.2829C122.559 14.7973 122.557 14.3098 122.564 13.8276C122.564 13.5057 122.451 13.3793 122.135 13.3908C121.908 13.401 121.682 13.4021 121.456 13.4032C121.173 13.4047 120.891 13.4061 120.608 13.4253C120.393 13.4483 120.053 13.5402 120.031 13.6552C119.986 13.885 120.042 14.2184 120.189 14.3793C120.687 14.8965 121.218 15.3793 121.784 15.8276C121.856 15.8836 121.921 15.9318 121.978 15.974C122.011 15.9977 122.041 16.0196 122.069 16.0398C122.243 16.1656 122.334 16.2314 122.357 16.3165C122.383 16.4097 122.328 16.526 122.213 16.7699C122.177 16.8449 122.136 16.9321 122.089 17.0345C121.32 18.7701 120.427 20.4253 119.341 21.9655H114.692C114.801 21.8154 114.917 21.6583 115.036 21.4973C115.12 21.3833 115.206 21.2675 115.293 21.1508C115.731 20.561 116.184 19.9499 116.513 19.4598C116.77 19.0784 117.006 18.671 117.242 18.2642L117.242 18.2635C117.39 18.0085 117.537 17.7537 117.69 17.5057ZM140.639 21.954H144.304V16.954H146.815V21.954H150.468V10.2644H146.781V13.6782H144.304V10.2644H140.639V21.954Z" fill="white"/>
</svg>
