<svg width="268" height="27" viewBox="0 0 268 27" fill="none" xmlns="http://www.w3.org/2000/svg">
<path fill-rule="evenodd" clip-rule="evenodd" d="M115.914 23.7499L106.929 10.0994V23.7499H105V7H107.368L116.354 20.7253V7H118.283V23.7499H115.914ZM121.115 17.4998C121.115 13.9998 123.24 11.0002 127.513 11.0002C131.786 11.0002 133.91 13.9998 133.91 17.4998C133.91 21.0003 131.786 24 127.513 24C123.24 24 121.115 21.0003 121.115 17.4998ZM123.02 17.4998C123.02 20.1751 124.534 22.425 127.513 22.425C130.492 22.425 132.006 20.1751 132.006 17.4998C132.006 14.8999 130.492 12.5752 127.513 12.5752C124.534 12.5752 123.02 14.8999 123.02 17.4998ZM138.574 12.9494C138.598 12.9494 138.598 12.975 138.622 12.975C140.283 11.8504 141.87 11.0002 143.921 11.0002V12.7997C142.505 12.7997 140.405 13.4503 138.574 14.5999V23.7499H136.742V11.2497H138.574V12.9494ZM155.104 21.2997V13.3998C153.786 12.8752 152.589 12.675 151.466 12.675C149 12.675 146.924 14.4003 146.924 17.5753C146.924 20.8001 149 22.425 151.515 22.425C152.638 22.425 153.737 22.125 155.104 21.2997ZM156.936 7V23.7499H155.104V22.7506L155.056 22.725C153.786 23.675 152.418 24 151.124 24C147.12 24 145.044 21.0752 145.044 17.5753C145.044 13.9001 147.242 11.0002 151.222 11.0002C152.517 11.0002 153.835 11.3002 155.056 11.7749L155.104 11.7499V7H156.936ZM165.921 23.8497H163.528L158.938 11.2497H161.013L164.725 22.0252L168.387 11.2497H170.463L174.199 22.0252L177.837 11.2497H179.913L175.395 23.8497H173.002L169.389 14.0753L165.921 23.8497ZM181.915 23.7499H183.746V11.2497H181.915V23.7499ZM188.898 12.9251L188.947 12.9494C190.729 11.8248 192.341 11.0002 194.392 11.0002C197.493 11.0002 198.714 12.7498 198.714 15.5748V23.7499H196.883V15.7252C196.883 13.5495 195.857 12.675 193.782 12.675C192.341 12.675 190.729 13.4503 188.898 14.575V23.7499H187.067V11.2497H188.898V12.9251ZM211.606 21.2997V13.3998C210.288 12.8752 209.092 12.675 207.968 12.675C205.502 12.675 203.426 14.4003 203.426 17.5753C203.426 20.8001 205.502 22.425 208.017 22.425C209.14 22.425 210.239 22.125 211.606 21.2997ZM213.438 7V23.7499H211.606V22.7506L211.557 22.725C210.288 23.675 208.92 24 207.626 24C203.621 24 201.546 21.0752 201.546 17.5753C201.546 13.9001 203.744 11.0002 207.724 11.0002C209.018 11.0002 210.337 11.3002 211.557 11.7749L211.606 11.7499V7H213.438ZM181.918 9.40747H183.75V7H181.918V9.40747ZM241.871 15.7816H243.177V14.4443H241.871V15.7816ZM229.187 15.7816H230.494V14.4443H229.187V15.7816ZM224.381 14.4443L227.815 23.7499H226.306L225.472 21.3647H221.688L220.84 23.7499H219.332L222.778 14.4443H224.381ZM223.6 16.0436L222.105 20.1935H225.081L223.6 16.0436ZM229.187 23.7499H230.494V16.857H229.187V23.7499ZM233.995 17.7808C234.008 17.7808 234.008 17.7945 234.022 17.7945C234.87 17.2155 235.691 16.7192 236.822 16.7192V17.9738C236.054 17.9738 234.883 18.3598 233.995 18.9113V23.7499H232.702V16.857H233.995V17.7808ZM238.357 23.7499H239.663V14.4443H238.357V23.7499ZM241.871 23.7499H243.177V16.857H241.871V23.7499ZM246.691 17.7808L246.718 17.7945C247.593 17.2017 248.441 16.7192 249.573 16.7192C251.283 16.7192 251.969 17.6843 251.969 19.3111V23.7499H250.663V19.4214C250.663 18.3047 250.125 17.8911 249.155 17.8911C248.361 17.8911 247.526 18.346 246.691 18.9113V23.7499H245.385V16.857H246.691V17.7808ZM257.672 22.7986C258.507 22.7986 259.288 22.6469 260.244 22.2609L260.473 23.3087C259.813 23.6258 258.669 23.8877 257.484 23.8877C254.952 23.8877 253.768 22.2333 253.768 20.3031C253.768 17.8635 255.451 16.7192 257.444 16.7192C260.016 16.7192 261.052 18.0289 260.244 20.5926H255.141C255.181 21.7928 256.178 22.7986 257.672 22.7986ZM255.222 19.5179H259.073C259.383 18.539 258.925 17.8083 257.47 17.8083C256.474 17.8083 255.397 18.346 255.222 19.5179ZM264.822 23.8877C264.108 23.8877 262.978 23.7774 262.197 23.5293L262.317 22.4401C263.072 22.6745 263.987 22.7986 264.687 22.7986C265.724 22.7986 266.546 22.6331 266.559 21.9306C266.573 21.2964 265.926 21.0207 264.836 20.7995C262.748 20.3858 262.237 19.5869 262.237 18.7321C262.237 17.2293 263.556 16.7192 265.105 16.7192C265.819 16.7192 266.923 16.8157 267.677 17.0638L267.542 18.153C266.842 17.9324 265.94 17.8083 265.266 17.8083C264.257 17.8083 263.678 18.0151 263.678 18.566C263.678 19.0216 263.88 19.3249 265.522 19.6696C267.663 20.1245 268 21.0752 268 21.7783C268 23.4058 266.667 23.8877 264.822 23.8877Z" fill="white"/>
<path fill-rule="evenodd" clip-rule="evenodd" d="M74.4118 27H47.9878L33.2999 1.55884L18.6114 27H0L10.3918 9C13.2618 4.02949 19.6178 0 24.5882 0H51.0115L65.7001 25.4412L80.3886 0H99L88.6076 18C85.7376 22.9705 79.3822 27 74.4118 27Z" fill="white"/>
</svg>
