<svg width="263" height="38" viewBox="0 0 263 38" fill="none" xmlns="http://www.w3.org/2000/svg">
<path d="M221.537 33.1126V30.4305H219.82C218.612 30.4305 217.976 30.8477 217.976 31.7417C217.976 32.6954 218.549 33.1126 219.757 33.1126H221.537ZM223 37.8212H221.537V34.245H220.329C219.757 34.245 219.185 34.6623 218.739 35.6159L217.531 37.8212H215.814L217.34 35.1987C217.722 34.6026 218.104 34.1854 218.612 34.0066C217.913 33.947 217.34 33.649 216.959 33.2914C216.577 32.8742 216.387 32.3973 216.387 31.8013C216.387 31.0265 216.705 30.4305 217.277 30.0132C217.849 29.596 218.676 29.3576 219.757 29.3576H222.936V37.8212H223ZM209.71 37.8212H208.374V30.9669C208.247 31.2053 208.056 31.5629 207.802 31.9801L203.541 37.8212H202.015V29.2384H203.351V36.0331C203.414 35.8543 203.605 35.6159 203.796 35.1987L208.12 29.2384H209.646V37.8212H209.71ZM195.02 37.8212H193.558V33.947H188.915V37.8212H187.453V29.2384H188.915V32.755H193.558V29.2384H195.02V37.8212ZM179.123 33.4702L176.897 33.7682C176.197 33.8278 175.689 34.0066 175.371 34.245C175.053 34.4834 174.862 34.9007 174.862 35.4371C174.862 35.8543 174.989 36.2119 175.371 36.4503C175.689 36.6887 176.134 36.8675 176.643 36.8675C177.342 36.8675 177.978 36.6291 178.423 36.1523C178.868 35.6755 179.123 35.0795 179.123 34.3046V33.4702ZM180.585 37.8212H179.123V36.4503H179.059C178.423 37.4636 177.469 38 176.261 38C175.371 38 174.608 37.7616 174.099 37.3444C173.59 36.8675 173.336 36.2715 173.336 35.5563C173.336 33.947 174.353 32.9934 176.388 32.755L179.123 32.3973C179.123 30.9669 178.487 30.1921 177.215 30.1921C176.134 30.1921 175.116 30.5497 174.226 31.2649V29.8344C175.116 29.298 176.134 29.0596 177.342 29.0596C179.504 29.0596 180.585 30.1325 180.585 32.2781V37.8212ZM167.04 37.8212H165.578V30.3709H160.936V37.7616H159.473V29.2384H167.104V37.8212H167.04ZM152.415 37.8212H150.952V30.7285C150.825 31.0861 150.634 31.6225 150.316 32.2781L148.027 37.7616H146.691L144.339 32.2781C144.211 31.9801 144.021 31.4437 143.703 30.7285V37.8212H142.431V29.2384H144.275L146.691 34.8411C146.882 35.2583 147.073 35.7947 147.327 36.5099L147.963 34.8411L150.316 29.1788H152.287V37.8212H152.415ZM131.62 30.1921C130.667 30.1921 129.903 30.4901 129.395 31.0861C128.822 31.6821 128.568 32.5166 128.568 33.5894C128.568 34.6026 128.822 35.3775 129.395 35.9735C129.967 36.5695 130.667 36.8675 131.62 36.8675C132.574 36.8675 133.274 36.5695 133.782 35.9735C134.291 35.3775 134.546 34.6026 134.546 33.5298C134.546 32.457 134.291 31.6225 133.782 31.0265C133.337 30.4305 132.574 30.1921 131.62 30.1921ZM131.557 38C130.221 38 129.14 37.5828 128.314 36.8079C127.487 36.0331 127.105 34.9603 127.105 33.5894C127.105 32.1589 127.551 31.0265 128.377 30.1921C129.204 29.3576 130.349 29 131.811 29C133.147 29 134.228 29.4172 134.991 30.1921C135.754 30.9669 136.135 32.0993 136.135 33.4702C136.135 34.8411 135.754 35.9139 134.927 36.7483C134.037 37.5828 132.956 38 131.557 38ZM122.527 37.8212H120.492L116.422 33.7086H116.359V37.8212H114.896V29.2384H116.359V33.1722H116.422L120.238 29.2384H122.145L117.885 33.351L122.527 37.8212ZM106.629 33.4702L104.404 33.7682C103.704 33.8278 103.195 34.0066 102.877 34.245C102.56 34.4834 102.369 34.9007 102.369 35.4371C102.369 35.8543 102.56 36.2119 102.877 36.4503C103.195 36.6887 103.641 36.8675 104.149 36.8675C104.849 36.8675 105.485 36.6291 105.93 36.1523C106.375 35.6755 106.629 35.0795 106.629 34.3046V33.4702ZM108.092 37.8212H106.629V36.4503H106.566C105.93 37.4636 104.976 38 103.768 38C102.877 38 102.114 37.7616 101.606 37.3444C101.097 36.8675 100.843 36.2715 100.843 35.5563C100.843 33.947 101.86 32.9934 103.895 32.755L106.629 32.3973C106.629 30.9669 105.993 30.1921 104.722 30.1921C103.641 30.1921 102.623 30.5497 101.733 31.2649V29.8344C102.623 29.298 103.641 29.0596 104.849 29.0596C107.011 29.0596 108.092 30.1325 108.092 32.2781V37.8212ZM94.5471 37.8212H93.2117V30.9669C93.0845 31.2053 92.8938 31.5629 92.6394 31.9801L88.3788 37.8212H86.8527V29.2384H88.1881V36.0331C88.2517 35.8543 88.4424 35.6159 88.6332 35.1987L92.9574 29.2384H94.4835V37.8212H94.5471ZM74.5797 33.947V36.5695H77.1233C78.3315 36.5695 78.9038 36.0927 78.9038 35.1987C78.9038 34.3046 78.2679 33.8874 76.9325 33.8874H74.5797V33.947ZM74.5797 30.3709V32.8146H76.8053C78.0136 32.8146 78.5859 32.3973 78.5859 31.5033C78.5859 30.7285 78.0772 30.3709 76.9961 30.3709H74.5797ZM73.1171 37.8212V29.2384H77.1233C78.0136 29.2384 78.7131 29.4172 79.2854 29.7748C79.7941 30.1324 80.0485 30.6689 80.0485 31.3245C80.0485 32.457 79.4762 33.1126 78.2679 33.351C79.6669 33.5298 80.3664 34.1854 80.3664 35.3179C80.3664 36.0331 80.0485 36.6291 79.4762 37.106C78.9038 37.5828 78.2043 37.8212 77.3141 37.8212H73.1171ZM64.7867 33.4702L62.5611 33.7682C61.8616 33.8278 61.3529 34.0066 61.0349 34.245C60.7169 34.4834 60.5262 34.9007 60.5262 35.4371C60.5262 35.8543 60.7169 36.2119 61.0349 36.4503C61.3529 36.6887 61.798 36.8675 62.3067 36.8675C63.0062 36.8675 63.6421 36.6291 64.0872 36.1523C64.5324 35.6755 64.7867 35.0795 64.7867 34.3046V33.4702ZM66.2493 37.8212H64.7867V36.4503H64.7231C64.0872 37.4636 63.1334 38 61.9252 38C61.0349 38 60.2718 37.7616 59.7631 37.3444C59.2544 36.8675 59 36.2715 59 35.5563C59 33.947 60.0175 32.9934 62.0523 32.755L64.7867 32.3973C64.7867 30.9669 64.1508 30.1921 62.879 30.1921C61.798 30.1921 60.7805 30.5497 59.8903 31.2649V29.8344C60.7805 29.298 61.798 29.0596 63.0062 29.0596C65.1683 29.0596 66.2493 30.1325 66.2493 32.2781V37.8212Z" fill="white"/>
<path fill-rule="evenodd" clip-rule="evenodd" d="M244.52 18.363C243.402 22.4315 241.627 21.8151 239.325 22H229L232.354 4H263C261.619 7.32877 261.816 7.57534 254.911 7.57534H237.615L236.892 11.2123H252.938C252.215 14.2329 253.07 14.7877 247.677 14.7877H236.234L235.576 18.3014H244.52V18.363Z" fill="white"/>
<path fill-rule="evenodd" clip-rule="evenodd" d="M75.1567 2.35302C73.5752 0.784391 71.614 0 69.21 0C66.1734 0 63.7062 1.11116 61.8714 3.33331C59.9735 5.55562 59.0879 8.30059 59.0879 11.4378C59.0879 14.183 59.9103 16.3398 61.6184 17.7777C63.2632 19.281 65.2878 20 67.5651 20C70.5386 20 72.9426 18.8888 74.7772 16.6013C76.6118 14.379 77.5607 11.6339 77.5607 8.4313C77.4975 5.94773 76.675 3.92164 75.1567 2.35302ZM71.0446 10.6536C70.7283 12.2876 70.3488 13.4641 69.8426 14.3137C69.3365 15.1634 68.5773 15.5555 67.5651 15.5555C65.9203 15.5555 65.0978 14.5751 65.0978 12.6143C65.0978 11.1111 65.4143 9.34639 65.9835 7.3203C66.5529 5.3594 67.5651 4.37911 69.0202 4.37911C69.7794 4.37911 70.4121 4.64052 70.8548 5.16334C71.2977 5.68632 71.5507 6.4052 71.5507 7.38565C71.4875 7.97383 71.2977 9.08498 71.0446 10.6536ZM237.143 19.4935C238.915 19.4316 240.301 19.3833 241.223 15.6862V15.6209H232.556L233.189 11.8953H244.196C248.588 11.8953 248.672 11.3801 249.017 9.27914C249.079 8.89826 249.151 8.46532 249.257 7.97383H233.884L234.58 4.24825H251.219C257.586 4.24825 257.675 4.00804 258.842 0.879651L258.846 0.870157L258.94 0.616025L259 0.457469H229.519L226.293 19.5424H236.225C236.4 19.5269 236.572 19.5167 236.741 19.509C236.877 19.5028 237.011 19.4981 237.143 19.4935ZM219.524 13.0718C219.524 14.6404 218.638 15.4248 216.993 15.4248H214.21L214.905 11.3071H217.309C218.764 11.3071 219.524 11.8953 219.524 13.0718ZM211.299 0.522822L208.073 19.5424H217.12C220.283 19.5424 222.434 18.8235 223.636 17.4509C224.838 16.0784 225.407 14.379 225.407 12.4836C225.407 11.3725 225.154 10.392 224.711 9.6078C224.268 8.82341 223.573 8.23524 222.624 7.84312C221.738 7.45085 220.283 7.25479 218.385 7.25479H215.601L216.74 0.522822H211.299ZM149.554 0.522822L154.995 13.7255C154.552 14.4444 153.983 14.9019 153.35 15.0979C152.781 15.2941 152.085 15.4248 151.199 15.4248H149.365L148.669 19.6077H151.516C153.16 19.6077 154.362 19.4117 155.248 19.0196C156.134 18.6274 156.83 18.1698 157.399 17.7123C157.969 17.2549 158.791 16.013 159.993 13.9216L167.521 0.522822H162.207L158.032 8.10453L155.628 0.522822H149.554ZM140.128 15.4248H137.091L137.724 11.83H139.749C141.457 11.83 142.342 12.3529 142.342 13.4639C142.342 13.9869 142.153 14.4444 141.836 14.8365C141.457 15.2286 140.887 15.4248 140.128 15.4248ZM134.181 0.457469L130.955 19.5424V19.6077H140.571C141.836 19.6077 143.102 19.4117 144.43 18.9542C145.759 18.4967 146.708 17.7123 147.34 16.5358C147.973 15.3595 148.289 14.183 148.289 13.0065C148.289 11.83 147.973 10.8497 147.34 10.0653C146.708 9.28104 145.948 8.69271 144.936 8.4313C143.924 8.10453 142.659 7.97383 141.014 7.97383H138.42L139.053 4.37911H147.467L148.099 0.457469H134.181ZM180.553 1.63398C181.249 2.09145 181.819 2.74497 182.262 3.52937C182.704 4.3136 182.957 5.16334 182.894 6.14379C182.894 7.97383 182.325 9.4771 181.123 10.719C179.921 11.9607 178.276 12.6143 176.062 12.6143H172.329L171.127 19.6077H165.497L168.723 0.522822H175.113C176.631 0.522822 177.707 0.588175 178.402 0.71888C179.098 0.849586 179.794 1.17635 180.553 1.63398ZM173.025 8.49665H174.354C176.378 8.49665 177.39 7.77777 177.39 6.47056C177.39 5.22869 176.568 4.64052 174.86 4.64052H173.658L173.025 8.49665ZM208.706 0.522822L201.81 9.6078L206.745 19.5424H200.924L197.002 11.5685L196.18 11.83L194.851 19.5424H189.98L191.245 11.83L190.549 11.5685L184.223 19.5424H178.719L186.5 9.54245L182.894 0.522822H188.525L191.118 8.30059L191.814 8.49665L193.206 0.522822H198.077L196.749 8.562L197.508 8.36594L203.265 0.522822H208.706ZM118.808 11.8953H123.806L122.541 19.5424H128.108L131.335 0.522822H125.767L124.565 7.5162H119.568L120.706 0.522822H115.139L111.913 19.5424H117.48L118.808 11.8953ZM109.635 19.5424L110.331 15.1633H101.727L102.297 11.83H109.256L109.952 7.64706H102.993L103.499 4.70587H111.786L112.482 0.522822H98.6275L95.401 19.5424H109.635ZM94.7051 3.33331C94.2624 2.61427 93.7562 2.09145 93.0603 1.63398C92.3011 1.17635 91.6052 0.849586 90.9094 0.71888C90.2135 0.588175 89.1379 0.522822 87.6197 0.522822H81.2301L78.0036 19.6077H83.6341L84.836 12.6143H88.5686C90.7827 12.6143 92.4276 11.9607 93.6297 10.719C94.6419 9.6078 95.2113 8.30059 95.3378 6.79732C95.5908 5.55546 95.3378 4.3136 94.7051 3.33331ZM86.9238 8.49665H85.5952L86.2279 4.64052H87.4298C89.1379 4.64052 89.9603 5.22869 89.9603 6.47056C89.9603 7.77777 88.9481 8.49665 86.9238 8.49665ZM0 0.457469H60.9226C60.1635 0.980291 59.4675 1.63398 58.8349 2.41821C58.2022 3.0719 57.8227 3.52937 57.443 4.3136H0V0.457469ZM0 8.16989H56.1146C55.7982 9.41175 55.6084 10.196 55.6717 11.5685V11.9607H0V8.16989ZM59.2145 19.5424H0V15.6862L56.3676 15.8169C57.1268 17.4509 57.443 18.0391 58.7084 19.1503C58.8981 19.281 59.0246 19.4117 59.2145 19.5424Z" fill="white"/>
</svg>
