<svg width="235" height="36" viewBox="0 0 235 36" fill="none" xmlns="http://www.w3.org/2000/svg">
<path fill-rule="evenodd" clip-rule="evenodd" d="M188.398 11.8274C186.715 12.9129 186.394 15.1642 186.474 17.0135C186.554 19.2247 186.033 21.878 187.837 23.6067C189.6 25.3354 192.325 24.4912 194.328 23.6871C194.328 19.8679 194.368 16.0487 194.288 12.2294C192.445 11.5058 190.241 10.6616 188.398 11.8274ZM183.629 10.2193C186.154 6.92273 191.243 6.56091 194.569 8.89265C194.609 8.57103 194.689 7.96799 194.769 7.68658C196.211 7.64637 197.654 7.64637 199.097 7.64637C199.257 8.89265 199.297 10.1389 199.297 11.3852C199.257 17.2949 199.337 23.1645 199.257 29.0742C199.297 31.607 198.015 34.3006 195.53 35.185C191.924 36.5519 187.957 35.9086 184.27 35.2252C184.23 34.0191 184.23 32.7729 184.27 31.5668C186.875 31.6874 189.439 31.9286 192.044 31.7678C192.845 31.7276 193.647 31.3658 194.008 30.6421C194.408 29.6371 194.288 28.5516 194.368 27.5064C192.084 28.7928 189.279 29.4361 186.795 28.3104C183.669 27.1847 181.786 23.8881 181.626 20.6719C181.465 17.0939 181.265 13.1139 183.629 10.2193ZM173.571 7.64637C175.134 7.60617 176.697 7.64637 178.26 7.64637C178.38 9.05346 178.46 10.4203 178.42 11.8274C178.22 17.4156 178.5 22.9635 178.26 28.5516C176.657 28.632 175.054 28.632 173.491 28.4712C173.531 21.476 173.371 14.5612 173.571 7.64637ZM120.758 19.8679C119.796 20.4709 119.476 21.5564 119.596 22.6419C119.756 23.8881 119.836 24.6922 121.519 24.8932C123.042 25.054 124.605 24.6118 126.007 23.9685C126.007 22.4409 126.007 20.9132 126.007 19.3855C124.244 19.3855 122.361 19.1041 120.758 19.8679ZM115.95 8.0082C119.636 7.40516 123.563 6.76192 127.129 8.0886C129.453 8.89265 130.816 11.3852 130.816 13.7571C130.816 18.6618 130.816 23.5263 130.816 28.431C129.574 28.5114 128.371 28.5918 127.129 28.5114C126.408 28.5918 126.248 27.8682 126.047 27.3455C123.323 28.9134 119.836 29.4763 117.031 27.9084C114.908 26.5817 114.347 23.7675 114.667 21.4358C114.828 19.7071 115.789 18.099 117.312 17.2949C119.957 15.8879 123.082 16.0889 125.967 16.0889C125.927 14.5612 126.208 12.3099 124.404 11.7068C121.559 11.1842 118.634 11.7872 115.789 11.7068C115.789 10.4605 115.829 9.25447 115.95 8.0082ZM94.2311 7.64637C95.874 7.64637 97.4769 7.52577 99.1198 7.72678C100.803 13.1139 101.805 18.6618 103.327 24.1294C103.487 24.1294 103.808 24.1696 103.968 24.1696C105.371 18.6618 106.613 13.1139 108.136 7.64637C109.658 7.68658 111.181 7.56597 112.704 7.68658C112.824 7.80718 113.064 8.0082 113.145 8.1288C111.301 15.0838 109.178 21.9986 107.254 28.9536C106.573 31.5668 105.731 34.8634 102.726 35.587C100.081 36.3107 97.3166 35.9891 94.712 35.3458C94.6719 34.1397 94.6719 32.9739 94.7921 31.7678C96.1946 31.8482 97.6371 32.009 99.0797 32.009C102.045 32.009 101.925 31.4462 102.886 28.7124C101.444 28.632 99.9212 28.1094 99.4804 26.5817C97.9176 21.9986 96.8357 17.2547 95.4333 12.6315C94.9524 10.9832 94.4315 9.33487 94.2311 7.64637ZM82.3702 11.9078C80.3265 12.8727 80.006 15.4054 80.046 17.4156C80.0861 19.3855 79.8457 21.6368 81.168 23.2449C82.5705 25.0942 85.7762 25.0138 87.0184 23.0037C88.2606 21.2348 87.8599 18.9834 87.94 16.9733C88.0201 15.325 87.6194 13.5561 86.4173 12.3501C85.2953 11.546 83.6524 11.3048 82.3702 11.9078ZM81.6088 7.60617C84.3336 7.00314 87.4191 7.40516 89.7031 9.09366C91.8269 10.7822 92.7886 13.5561 92.7886 16.2095C92.7485 18.9834 93.1492 21.9986 91.7467 24.5314C90.4244 27.3857 87.2187 28.9134 84.2134 28.833C81.2482 28.9536 78.0024 27.7476 76.5198 25.054C74.7166 22.1594 75.1173 18.6216 75.1975 15.3652C75.3978 11.747 77.8822 8.16901 81.6088 7.60617ZM225.904 3.98796C227.507 3.66634 229.11 3.38492 230.712 3.18391C230.752 4.6714 230.753 6.15889 230.753 7.64637C232.075 7.64637 233.397 7.64637 234.76 7.64637C234.84 8.85245 234.84 10.0585 234.8 11.2646C233.437 11.3048 232.115 11.3048 230.793 11.3048C230.873 15.0034 230.793 18.702 230.833 22.4007C230.833 24.9334 231.434 24.9334 233.557 25.0138C234.038 25.0138 234.519 25.0138 235 25.0138C235 26.1797 234.96 27.3455 234.88 28.5114C232.395 28.8732 229.55 29.3155 227.266 27.8682C225.904 26.5415 225.864 24.451 225.864 22.6419C225.904 18.8628 225.864 15.0838 225.904 11.2646C224.501 11.0636 223.139 10.8626 221.737 10.6616C221.656 9.65649 221.656 8.61123 221.737 7.56597C223.099 7.56597 224.461 7.56597 225.864 7.56597C225.824 6.4001 225.864 5.19403 225.904 3.98796ZM146.243 3.22411C147.525 1.415 149.849 0.852171 151.933 0.731564C154.938 0.610957 157.944 0.691361 160.909 1.2944C161.67 2.37986 161.069 3.90755 161.069 5.15383C159.026 5.23423 156.982 5.11362 154.979 5.11362C154.137 5.11362 152.414 5.15383 151.572 5.31464C150.731 5.47544 150.33 5.99808 150.13 7.64637C149.93 9.17406 150.13 10.7822 150.13 12.3501C153.656 12.3903 157.182 12.3099 160.709 12.3903C160.749 13.7169 161.149 15.1642 160.508 16.4105C157.022 16.6115 153.536 16.4507 150.09 16.4909C150.09 20.5111 150.13 24.5314 150.05 28.5114C148.367 28.5918 146.684 28.7928 145.001 28.4712C144.76 22.6821 145.001 16.8527 144.881 11.0636C144.921 8.37002 144.68 5.47544 146.243 3.22411ZM202.503 2.90249C202.543 2.05824 202.422 1.17379 202.743 0.369742C204.266 0.249135 205.828 0.32954 207.351 0.32954C207.431 3.0633 207.391 5.79706 207.391 8.53083C210.276 7.28455 213.803 6.60111 216.688 8.24941C218.892 9.65649 219.493 12.5109 219.533 14.9632C219.533 19.4659 219.613 23.9685 219.493 28.4712C217.97 28.5114 216.447 28.632 214.925 28.431C214.524 27.9486 214.724 27.1847 214.644 26.6219C214.644 22.7223 214.644 18.8628 214.644 14.9632C214.564 13.9581 214.564 12.7521 213.803 12.0284C211.759 10.8626 209.355 11.8676 207.391 12.7119C207.351 17.898 207.511 23.1243 207.311 28.3104C205.788 28.7526 204.145 28.4712 202.583 28.4712C202.422 19.9483 202.583 11.4254 202.503 2.90249ZM164.676 0.369742C166.238 0.289337 167.841 0.289338 169.404 0.32954C169.604 7.08354 169.444 13.8375 169.484 20.5915C169.484 23.2047 169.564 25.8581 169.444 28.4712C167.881 28.4712 166.238 28.6722 164.716 28.3104C164.555 19.0236 164.636 9.6967 164.676 0.369742ZM135.384 0.32954C136.947 0.289338 138.549 0.289338 140.112 0.32954C140.232 9.6967 140.232 19.1041 140.112 28.4712C138.509 28.5516 136.907 28.5918 135.344 28.431C135.344 19.0638 135.264 9.6967 135.384 0.32954ZM59.2092 5.19403C59.2092 7.96799 59.2092 10.7822 59.2092 13.5561C61.0525 13.5963 62.8957 13.7973 64.6989 13.4757C65.861 13.2345 67.1833 12.7521 67.584 11.546C68.3053 9.6967 68.3053 7.00314 66.3819 5.91767C64.2181 4.6714 61.5734 5.23423 59.2092 5.19403ZM54.561 1.3346C57.2057 0.731564 59.9305 0.731564 62.6152 0.691361C65.7408 0.691361 69.1868 1.3346 71.3907 3.74674C73.3141 6.03828 73.4344 9.33488 72.7532 12.149C72.1521 14.4406 70.3088 16.1291 68.1851 17.0135C70.1085 20.873 72.4326 24.5716 74.1156 28.5114C72.3124 28.5918 70.4691 28.5516 68.6659 28.5516C66.7425 25.054 64.8592 21.5162 62.9759 17.9784C61.6936 17.9382 60.4514 17.8578 59.1691 17.7372C59.089 21.3152 59.2092 24.8932 59.089 28.5114C57.406 28.632 55.683 28.632 54 28.5114C54 19.9885 54 11.5058 54 2.9829C54.1202 2.37986 53.9199 1.61602 54.561 1.3346ZM173.451 0.128528C175.054 0.0481232 176.737 -0.152889 178.34 0.208933C178.7 1.69642 178.5 3.26431 178.46 4.7518C176.817 4.7518 175.094 4.95281 173.451 4.6312C173.291 3.14371 173.371 1.61602 173.451 0.128528Z" fill="white"/>
<path fill-rule="evenodd" clip-rule="evenodd" d="M26.25 4.4631C27.766 2.67044 29.7606 1.08148 32.1941 1.04074C36.4628 1 40.7314 1.04074 45 1L32.7527 28.99C30.0399 28.99 27.367 28.99 24.6543 28.99C22.3404 29.153 19.2287 27.3195 21.3431 24.0194C19.9069 25.8121 18.1117 27.2788 16.5559 28.9492C15.758 28.9492 13.6835 28.99 12.8856 28.99C14.242 28.0122 15.3989 27.1973 16.7553 26.138C21.7021 22.186 26.7287 18.3155 31.6755 14.3635C33.9894 12.4893 36.4628 10.6559 38.7367 8.78179C28.125 15.4635 17.633 22.2268 7.14096 28.99L0 28.9492C0.199468 28.8678 0.398936 28.827 0.598404 28.7455C2.71277 28.0122 4.66755 26.7899 6.2633 25.2009C13.0053 18.3155 19.6676 11.4708 26.25 4.4631Z" fill="white"/>
</svg>
